<svg viewBox="0 0 1077.87 757.27" xmlns="http://www.w3.org/2000/svg" xmlns:xlink="http://www.w3.org/1999/xlink"><linearGradient id="a" gradientTransform="matrix(1 0 0 -1 -74.4 658.62)" gradientUnits="userSpaceOnUse" x1="665.65" x2="818.65" y1="112.55" y2="112.55"><stop offset="0" stop-color="#808080" stop-opacity=".25"/><stop offset=".54" stop-color="#808080" stop-opacity=".12"/><stop offset="1" stop-color="#808080" stop-opacity=".1"/></linearGradient><g fill="#7a3fd8"><path d="m1079.1 128.46s-134-87.46-300.33-19-402.16 196.36-532.95 143.84-248.7-188.25-248.7-188.25l2 551.89c44 40.13 275.45 111 693.58-93.14 141.73-69.19 251.67-138.39 388.4-119.89-.02-32.59-2-275.45-2-275.45z" opacity=".15"/><circle cx="39.59" cy="42.69" opacity=".15" r="21.63"/><circle cx="697.18" cy="82.93" opacity=".15" r="36.02"/></g><circle cx="952.58" cy="399.93" fill="#fcb767" opacity=".1" r="21.63"/><path d="m197.62 464.25h-118.76a30.91 30.91 0 0 1 -30.86-30.91v-187.92a30.91 30.91 0 0 1 30.91-30.91h118.71a30.91 30.91 0 0 1 30.91 30.91v187.92a30.91 30.91 0 0 1 -30.91 30.91z" opacity=".2"/><path d="m205.62 459.25h-118.76a30.91 30.91 0 0 1 -30.86-30.91v-187.92a30.91 30.91 0 0 1 30.91-30.91h118.71a30.91 30.91 0 0 1 30.91 30.91v187.92a30.91 30.91 0 0 1 -30.91 30.91z" fill="#fff"/><path d="m230.5 333.67-2.4-87.22a30.91 30.91 0 0 0 -30.91-30.91h-103.19a30.9 30.9 0 0 0 -30.9 30.9l-3.23 97.36z" fill="#3ddbd4" opacity=".5"/><path d="m72.85 276.67h101.51v14.85h-101.62z" fill="#fff"/><path d="m72.83 302.51h85.47v14.86h-85.56z" fill="#fff"/><path d="m455.59 464.25h-118.76a30.91 30.91 0 0 1 -30.91-30.91v-187.92a30.91 30.91 0 0 1 30.91-30.91h118.76a30.91 30.91 0 0 1 30.91 30.91v187.92a30.91 30.91 0 0 1 -30.91 30.91z" opacity=".2"/><path d="m460.59 459.25h-118.76a30.91 30.91 0 0 1 -30.91-30.91v-187.92a30.91 30.91 0 0 1 30.91-30.91h118.76a30.91 30.91 0 0 1 30.91 30.91v187.92a30.91 30.91 0 0 1 -30.91 30.91z" fill="#fff"/><path d="m485.49 328.61 1-83.19c0-17.07-17.27-29.88-34.34-29.88h-103.15c-17.07 0-31.9 13.84-31.9 30.9l-1.6 86.13z" fill="#7ece83" opacity=".5"/><path d="m327.82 276.67h106.14v14.85h-106.25z" fill="#fff"/><path d="m327.79 249.81h75.35v14.85h-75.43z" fill="#fff"/><path d="m327.78 302.51h66.11v14.86h-66.18z" fill="#fff"/><path d="m732.2 467.25h-118.76a30.91 30.91 0 0 1 -30.91-30.91v-187.92a30.91 30.91 0 0 1 30.91-30.91h118.76a30.91 30.91 0 0 1 30.91 30.91v187.92a30.91 30.91 0 0 1 -30.91 30.91z" opacity=".2"/><path d="m727.2 462.25h-118.76a30.91 30.91 0 0 1 -30.91-30.91v-187.92a30.91 30.91 0 0 1 30.91-30.91h118.76a30.91 30.91 0 0 1 30.91 30.91v187.92a30.91 30.91 0 0 1 -30.91 30.91z" fill="#fff"/><path d="m752.09 336.67.7-89.09c0-17.07-16.95-29-34-29h-103.17c-17.06 0-34.09 12.82-34.09 29.88l1.25 84.51z" fill="#ffb866" opacity=".5"/><path d="m592.23 310.06h101.51v14.85h-101.62z" fill="#fff"/><path d="m994.38 464.25h-118.76a30.91 30.91 0 0 1 -30.91-30.91v-187.92a30.91 30.91 0 0 1 30.91-30.91h118.76a30.91 30.91 0 0 1 30.91 30.91v187.92a30.91 30.91 0 0 1 -30.91 30.91z" opacity=".2"/><path d="m986.38 459.25h-118.76a30.91 30.91 0 0 1 -30.91-30.91v-187.92a30.91 30.91 0 0 1 30.91-30.91h118.76a30.91 30.91 0 0 1 30.91 30.91v187.92a30.91 30.91 0 0 1 -30.91 30.91z" fill="#fff"/><path d="m1010.4 341.82-.4-100.41c0-17.07-14.93-25.87-32-25.87h-103.2c-17.06 0-33.94 9.25-33.94 26.32l.87 92.25z" fill="#ff7e61" opacity=".5"/><path d="m853.58 276.67h71.83v14.85h-71.91z" fill="#fff"/><path d="m853.61 302.51h99.11v14.86h-99.22z" fill="#fff"/><path d="m743 437.76a18.09 18.09 0 0 0 -.45-3.59c-.91-3.37-2.93-7.46-6.28-8.48a53.21 53.21 0 0 1 -9.93-4.2c-.61-10.72 1.86-21.69-.83-32.08-1-3.8-2.64-7.44-3.09-11.34-.55-4.83.78-10-1.15-14.46-1.52-3.51-4.86-6-8.46-7.3a45.57 45.57 0 0 0 -11.27-2c-4.8-.4-20.34-2.24-25.75 2.06a5.26 5.26 0 0 0 -1 1 2.85 2.85 0 0 0 -.33.52v.11c-.1.21-.19.43-.27.65a3.76 3.76 0 0 0 -.16.74 1 1 0 0 0 0 .25 4.69 4.69 0 0 0 0 .53v1c.07.89.21 1.8.21 2.69a5.85 5.85 0 0 1 -.12 1.32 9.36 9.36 0 0 1 -1.66 3.23l-.18.26-.33.48-.26.41-.22.36c-.1.17-.18.34-.27.52l-.15.28a6.61 6.61 0 0 0 -.3.85 5.4 5.4 0 0 0 0 2.65 10.19 10.19 0 0 0 1.36 3.16c.25.41.53.81.81 1.21s.46.63.7.94a18.89 18.89 0 0 0 -.22 2.81 20.63 20.63 0 0 0 7.91 16.25 62.58 62.58 0 0 1 -.13 12.69c-.1.89-.2 1.77-.32 2.65s-.22 1.47-.33 2.2a10.14 10.14 0 0 1 -4.38-.34 21.13 21.13 0 0 0 -2-.77c-2.92-.72-5.89 2.18-8.76 1.3a1.69 1.69 0 0 1 -.13.4 4.08 4.08 0 0 0 -2-.59c-1.7-.08-3.1-1.32-4.34-2.49l-3.8-3.59a3.85 3.85 0 0 1 -.66-.74 4.93 4.93 0 0 1 -.46-1.23 14.27 14.27 0 0 0 -3.69-5.29 2.55 2.55 0 0 0 -1.1-.79 1.35 1.35 0 0 0 -.49 0c-.11-.14-.21-.28-.33-.41-.27-.29-.55-.57-.84-.83-1.81-1.68-2-3.12-3.58-5a46 46 0 0 1 -3.73-5.65c-.14-1-.32-2.12-.54-3.22a41.29 41.29 0 0 0 -2.18-7.29l1.37-1.5v-1.49l2.44-2.85-.17-.15 3-2.82-3-.11-1.4 1.94-.11-.1-2.5 2.5-1.75.2-.23.24c-1.45-2.16-3-3.34-4.38-3.06-2.33.48-3.49 5-3.12 10.91l-6.93 7.25-.78.82-3.57 4.62 2.81 2.7 4.31-4 .69-.75 4.29-4.65a2.42 2.42 0 0 0 .1.45 12 12 0 0 0 -.22 2.16c0 .85.79 1.46 1.19 2.22a6.15 6.15 0 0 1 1 3.41c0 .42-.18.83-.19 1.26a4.74 4.74 0 0 0 .93 2.59q2.51 4.2 5 8.4c.34.59.7 1.18 1 1.76v.09a4.11 4.11 0 0 0 1.34 1.53 18.14 18.14 0 0 0 1.65 6.08c.18.37.37.74.57 1.1a35 35 0 0 0 4.71 6.12l2.39 2.67c2.34 2.63 4.69 5.25 7.24 7.68a9.56 9.56 0 0 0 3.25 2.26 3.61 3.61 0 0 0 3.63-.52v3.71a2.65 2.65 0 0 1 1.75 1.14 2.59 2.59 0 0 1 -.17 2.16c-2.09 5.39-4.21 10.82-7.4 15.66a33.41 33.41 0 0 1 6.2 4.72 27.7 27.7 0 0 1 3.24 4.38c.08.73.15 1.47.2 2.2.74 11.92-3.87 23.75-8 35.11-1.18 3.21-2.49 6.59-2.38 9.93a20.06 20.06 0 0 0 -2.25 1.62c.82 2.13.5 4 .42 6.33a11.45 11.45 0 0 1 -.84 4c-.39.89-1 1.72-1.43 2.57-2.59 4.57-3.17 10-3.69 15.21-.31 3.16.92 7-.52 9.82-2.46 4.85-4.65 10-5.05 15.38a16.81 16.81 0 0 1 -.45 3.6c-.31 1-.87 1.85-1.15 2.83a12 12 0 0 0 -.19 4 38.26 38.26 0 0 1 -2.11 14.07c-1.25 3.58-2.62 7.4-1.64 11.07a15.47 15.47 0 0 0 -4.23 9.28 14.77 14.77 0 0 1 -.33 2.65 14.17 14.17 0 0 1 -1.19 2.56 22.41 22.41 0 0 0 -2.73 12c-3 4.06-4.49 9.09-5.38 14.08s-1.29 10.07-2.43 15c-1.51 6.53-4.26 13.12-4.81 19.79-3.24 2.08-4.63 6.09-5.26 9.88s-.72 7.76-2.3 11.27c-.82 1.82-2 3.45-2.78 5.3a23.33 23.33 0 0 0 -1.21 4.57c-.48 2.45-.9 5.16-.3 7.5a11.41 11.41 0 0 1 -2.93 2.24c.15-.62.29-1.25.39-1.88-2.58 2.35-7.25 1.53-9.32 4.34a4.23 4.23 0 0 0 1 5.79 8.31 8.31 0 0 0 2.08.89c5 1.59 10.14 3.21 15.27 2.36a4.63 4.63 0 0 0 1.73-.56 5.45 5.45 0 0 0 1.61-1.86l2.31-3.66a48.62 48.62 0 0 0 5.61 1.32q.27 2.38.39 4.8c1 .2 2.34.25 2.81-.67a2.62 2.62 0 0 0 .18-1.11c0-.72.09-1.66.16-2.62h.2a19 19 0 0 0 8.85-1.8c-1.08-8.85 2.45-17.51 5.52-25.89 3.23-8.82 6-17.81 8.78-26.79 2-6.31 4.22-12.44 6.17-18.76q3.72-12 7.43-24c1.09-3.52 2.17-7 3.42-10.5a164.43 164.43 0 0 1 9.26-20.59c1-1.88 2-3.75 2.83-5.72 1-2.39 1.71-4.89 2.5-7.35a115.18 115.18 0 0 1 6.29-14.79l.18-.37c.81 3.31 1.63 6.68 2.16 10a38 38 0 0 1 .17 12.36c-.48 2.79-1.39 5.55-1.27 8.37.15 3.92 2.23 7.46 3.26 11.24a43.68 43.68 0 0 1 1.13 8.6c.27 4.49 2.72 9.54 1 13.71-5.34 13.21-2.75 28.13-5.81 42-1.56 7.12-6.37 13.82-6 21.1q.39 7.75 1.36 15.46a14.35 14.35 0 0 0 1.09 4.56 19.6 19.6 0 0 0 1.37 2.23c-.43.18-.81.63-1.12 1.58a6 6 0 0 0 2.22 7 9.76 9.76 0 0 0 2.88 1 15.51 15.51 0 0 0 4.18.58 8.24 8.24 0 0 0 1.31-.17 46.92 46.92 0 0 0 4.74 1.7 6.41 6.41 0 0 0 .12 1.23 1.45 1.45 0 0 0 .53 1.13 1.37 1.37 0 0 0 .8.15h5.43v-1.4a4.45 4.45 0 0 0 3.45-1.13 5.12 5.12 0 0 0 1-2.07q2.22-7.54 4.42-15.07a46.42 46.42 0 0 0 1.55-6.49 44.28 44.28 0 0 0 .59-10.72c-1.92-18.43 2.32-36.92.94-55.4a131.7 131.7 0 0 1 1.7-33.23c.45-2.48 1-5 1.2-7.47.43-4.66-.1-9.37.22-14 .12-1.62.34-3.23.54-4.84a234.19 234.19 0 0 0 2.34-30.16 92.86 92.86 0 0 0 -.61-10 6 6 0 0 0 2.72-1.62c.9-1.17.67-2.79.66-4.27 0-3.54 1.49-6.89 2.68-10.23a125.22 125.22 0 0 0 3.79-14 49.59 49.59 0 0 0 1.68-11.75 8.24 8.24 0 0 0 -.06-1.21 3.12 3.12 0 0 0 .91-1 5.87 5.87 0 0 0 .48-1.85c.37-2.56.73-5.11 1.1-7.67.26-1.83.52-3.67.79-5.5q1.59-11.09 3.17-22.18c.28-1.93.55-3.85.83-5.78l.82-5.73c.1-.68.19-1.36.27-2.05 2.48-3.93.14-9.38-.12-14.02zm-26.49 83.08c-1.19-2.79-2.29-5.66-2-8.69h-.1a4.61 4.61 0 0 0 -.14-2.82c-.31-.74-.84-1.36-1.17-2.08a7.51 7.51 0 0 1 -.54-2.81 76.6 76.6 0 0 1 1.44-18.13c.13-.71.27-1.41.41-2.12a5.63 5.63 0 0 0 1.13-.88 8.25 8.25 0 0 0 1.29-2q1.68-3.4 3.12-6.93c.31-.77.76-1.64 1.53-1.83-.16 5.85.44 11.82-2 17.1a10.45 10.45 0 0 0 -1 2.7c-.22 1.48.4 3 .18 4.48-.11.76-.44 1.48-.58 2.23a2.2 2.2 0 0 0 .59 2.12 1.32 1.32 0 0 0 .42.23c-.06.4-.11.81-.14 1.2-.09.82-.12 1.59-.17 2.07a62.2 62.2 0 0 0 -.28 7.35c0 2.65.11 5.31.06 8a5.33 5.33 0 0 1 -.38 2.27 4.13 4.13 0 0 1 -.76 1c-.29-.89-.61-1.68-.9-2.46z" fill="url(#a)"/><path d="m640.93 375.14 3.36-3.13-3-.11-1.57 2.4z" fill="#323f3e"/><path d="m616.76 397.06 3.56-4.57.79-.82 10.9-11.41 3.71-3.89 1.74-.2 2.5-2.49 1.47 1.29-2.43 2.84.05 1.49-3.8 4.12-10.7 11.61-.69.74-4.3 3.98z" fill="#65617d"/><path d="m621.11 391.67 10.9-11.41 3.24 3.16-10.7 11.61z" fill="#323f3e"/><ellipse cx="634.34" cy="389.17" fill="#fbbebe" rx="5.64" ry="15.97" transform="matrix(.97964538 -.20073597 .20073597 .97964538 -65.21 135.26)"/><path d="m684.14 726.24a6 6 0 0 0 2.21 6.94 9.76 9.76 0 0 0 2.88 1 15.36 15.36 0 0 0 4.16.58c1.74-.09 3.4-.76 5.12-1a.87.87 0 0 1 .59.09.88.88 0 0 1 .23.69 26.43 26.43 0 0 0 .22 3 1.13 1.13 0 0 0 1 1.28 1.45 1.45 0 0 0 .36 0h5.41a52.24 52.24 0 0 0 -1.57-14.14 3.33 3.33 0 0 0 -.4-1 3.18 3.18 0 0 0 -1.72-1 9.76 9.76 0 0 0 -4.2-.73c-1.74.22-3.21 1.36-4.7 2.3s-3.52 1.77-5.33 1.28-3.34-2.07-4.26.71z" fill="#3ddbd4"/><path d="m625.34 734.17a2.34 2.34 0 0 1 -.18 1.11c-.46.92-1.78.86-2.8.67a67.25 67.25 0 0 0 -1.22-10.11c-1.94-.09-3.35 1.76-4.38 3.4l-2.68 4.26a5.51 5.51 0 0 1 -1.61 1.85 4.58 4.58 0 0 1 -1.72.56c-5.12.84-10.29-.77-15.23-2.36a8.07 8.07 0 0 1 -2.07-.88 4.22 4.22 0 0 1 -1-5.78c2.06-2.8 6.72-2 9.29-4.32a23.28 23.28 0 0 1 -1.32 4.77c3.46-.52 5.77-3.68 8.56-5.79a5.05 5.05 0 0 1 2.44-1.17 5.43 5.43 0 0 1 2 .22 23.53 23.53 0 0 1 8.8 4.33c1 .83 2.69 2 3.15 3.28.49 1.53-.04 4.33-.03 5.96z" fill="#3ddbd4"/><circle cx="694.13" cy="383.56" fill="#fbbebe" r="20.66"/><path d="m734.83 505.55a49.26 49.26 0 0 1 -1.68 11.71 123 123 0 0 1 -3.77 14c-1.19 3.33-2.69 6.67-2.68 10.2 0 1.47.24 3.09-.65 4.26a6.34 6.34 0 0 1 -2.93 1.67 3.64 3.64 0 0 0 -2.45 2.18 15.15 15.15 0 0 1 -2.09-4.57q-2.69-8.24-5-16.57a2.15 2.15 0 0 1 .13-2 2.38 2.38 0 0 1 .88-.49 9 9 0 0 0 2.76-1.79 4.12 4.12 0 0 0 .93-1.18 5.33 5.33 0 0 0 .38-2.27c0-2.64 0-5.29-.06-7.93a64.06 64.06 0 0 1 .27-7.33c0-.49.09-1.25.17-2.07.15-1.58.45-3.39 1.31-4 1.26-.86 5.06.29 6.51.48 2.48.35 4.95.75 7.41 1.22a20.5 20.5 0 0 1 .56 4.48z" fill="#868e8d"/><path d="m651.4 406.7c-.8 1.6-2.72 2.36-4.2 3.38l-5.07 3.48a3.44 3.44 0 0 1 -2.5.86 3.28 3.28 0 0 1 -1.87-1.75l-.06-.09-1-1.75-5-8.38a4.8 4.8 0 0 1 -.93-2.59 10.83 10.83 0 0 1 .2-1.25 6.2 6.2 0 0 0 -1-3.4c-.4-.76-1.21-1.37-1.18-2.21a7.81 7.81 0 0 1 .56-3.24 6.52 6.52 0 0 1 2.18-2.34c.47-.34 1-.66 1.45-1a2.79 2.79 0 0 1 .88-.39c.82-.17 1.64.51 2.48.54 3.62 2.42 5 7 7.85 10.31 1.6 1.87 1.76 3.31 3.57 5a10.83 10.83 0 0 1 .83.83 5.63 5.63 0 0 1 .91 1.3c.32.85 2.32 1.87 1.9 2.69z" fill="#868e8d"/><path d="m686.86 404.28c1.49 3.15 2.65 6.61 2.22 10.07a6.37 6.37 0 0 1 -.86 2.65c-1.44 2.21-4.46 2.6-7.1 2.74a4.19 4.19 0 0 0 -3.07 1 2.78 2.78 0 0 0 .19 3.42 7.45 7.45 0 0 0 3.06 2c4.16 1.84 8.64 3.35 13.17 2.92 2.1-.2 4.14-.8 6.23-1.11a62.05 62.05 0 0 1 6.82-.35c2.72-.1 5.43-.37 8.14-.64l7.17-.71a1.57 1.57 0 0 0 1.07-.39c.54-.62-.15-1.53-.8-2-3.82-2.83-8.67-4.76-10.83-9-1-2-1.32-4.37-2.06-6.54s-1.92-4.1-2.37-6.31a40.35 40.35 0 0 1 -.33-5.81 7.8 7.8 0 0 0 -2-5.32c-1.42-1.33-3.49-1.67-5.44-1.76-4.78-.2-9.86.94-13.26 4.31-.91.91-1.68 1.95-2.63 2.82s-2.21 1.06-1.59 2.14 1.83 1.74 2.49 2.7a23 23 0 0 1 1.78 3.17z" fill="#fbbebe"/><path d="m727.6 433.32a114.71 114.71 0 0 1 -6.08 22.53 82.68 82.68 0 0 0 -3.6 10.11c-.78 3.1-.62 6.42-1.34 9.53-.88 3.86-1.76 7.75-2.47 11.65a76.18 76.18 0 0 0 -1.42 18.08 7.46 7.46 0 0 0 .54 2.8c.33.72.87 1.34 1.17 2.07a4.94 4.94 0 0 1 -.27 4 11.87 11.87 0 0 1 -2.06 3.13c-9.33 2.78-19.29 1.86-29 2.45-9 .55-18 2.39-26.82.85-1-4 .66-8.18 2.1-12.08 4.14-11.33 8.74-23.13 8-35a35.6 35.6 0 0 0 -.48-4.12c-1.44-8.41.13-17.12 2.66-25.28 1.58-5.07 1.51-10.49 1.14-15.78a28.68 28.68 0 0 1 -.07-5.16 9.17 9.17 0 0 1 1.88-4.83l.15-.21c.11-.17.44-.07.74 0a.62.62 0 0 0 .5 0 .21.21 0 0 1 .13-.06.3.3 0 0 1 .29 0c.23.15.35.62.85.71a18.5 18.5 0 0 0 2.23.22 11.94 11.94 0 0 1 2.66.38h.12a7.88 7.88 0 0 0 3.85-.31 10.76 10.76 0 0 0 2.38-.92 15.36 15.36 0 0 1 1.88-.63c.92-.56.72-3.14.91-4.19a11.41 11.41 0 0 1 .74-3.1 5.24 5.24 0 0 1 4.28-2.49 21.67 21.67 0 0 1 5.14.46c3.72.53 7.54.43 11.21 1.29 1.84.43 3.84 1.09 5.54.25.45.1.52.51.52 1a5.75 5.75 0 0 1 -.28 1.37c-.63 2.76 1.54 5.29 3.53 7.3a11.44 11.44 0 0 0 3 2.35c1 .46 2 .65 3 1.15a5.41 5.41 0 0 1 2 1.83 7.48 7.48 0 0 1 1.14 2.91 17.51 17.51 0 0 1 -.39 5.74z" fill="#868e8d"/><path d="m727.6 433.32a114.71 114.71 0 0 1 -6.08 22.53 82.68 82.68 0 0 0 -3.6 10.11c-.78 3.1-.62 6.42-1.34 9.53-.88 3.86-1.76 7.75-2.47 11.65-.21.12-.42.22-.64.32a15.5 15.5 0 0 1 -3.92 1.27 24.35 24.35 0 0 1 -7.33-.24l-14.3-1.87c-5.7-.76-11.77-1.69-16-5.55-2.34-2.12-3.89-4.92-5.57-7.63a35.6 35.6 0 0 0 -.48-4.12c-1.44-8.41.13-17.12 2.66-25.28 1.58-5.07 1.51-10.49 1.14-15.78a28.68 28.68 0 0 1 -.07-5.16 9.17 9.17 0 0 1 1.88-4.83 6.77 6.77 0 0 1 .89-.21 4.07 4.07 0 0 1 .63-.06h.29a4.27 4.27 0 0 1 1 .12c.67.17 1.29.53 2 .77h.12a7.76 7.76 0 0 0 2.66.38c1.32 0 2.68-.22 4-.3a7.37 7.37 0 0 1 4.74.84 28.79 28.79 0 0 1 2.64 2.42 11.76 11.76 0 0 0 3.34 1.81 35.32 35.32 0 0 0 26.61-.57 5.38 5.38 0 0 1 2.67-.67 5.06 5.06 0 0 1 1.93.81c.59.35 1.19.69 1.79 1a7.48 7.48 0 0 1 1.14 2.91 17.45 17.45 0 0 1 -.33 5.8z" opacity=".1"/><path d="m736.3 426.7a52.55 52.55 0 0 1 -11.39-5 5.08 5.08 0 0 0 -1.93-.82 5.18 5.18 0 0 0 -2.67.68 35.37 35.37 0 0 1 -26.61.56 11.63 11.63 0 0 1 -3.34-1.81 30 30 0 0 0 -2.63-2.42c-3.29-2.13-7.84.38-11.53-1a20.24 20.24 0 0 0 -2-.77c-2.91-.72-5.87 2.17-8.74 1.3a47.43 47.43 0 0 0 -2.34 8.92 94.76 94.76 0 0 0 -.65 10.52c-.06 2.1-.11 4.21 0 6.32a2.68 2.68 0 0 1 1.75 1.14 2.55 2.55 0 0 1 -.17 2.14c-2.09 5.38-4.2 10.8-7.38 15.62a32.94 32.94 0 0 1 6.18 4.72c3.51 3.7 5.22 8.88 9 12.3 4.26 3.86 10.34 4.79 16 5.56l14.28 2a24.35 24.35 0 0 0 7.33.24 15.63 15.63 0 0 0 3.92-1.27 7.07 7.07 0 0 0 2.18-1.44 8.25 8.25 0 0 0 1.29-2c1.12-2.26 2.16-4.57 3.1-6.91.34-.83.84-1.81 1.74-1.87 5.29-4.78 10.3-9.68 15.59-14.46a34.41 34.41 0 0 0 5.69-6c2.64-3.89.24-9.41 0-14.1a17.19 17.19 0 0 0 -.44-3.58c-.88-3.47-2.9-7.55-6.23-8.57z" fill="#3ddbd4"/><path d="m651.4 406.7c-.8 1.6-2.72 2.36-4.2 3.38l-5.07 3.48a3.44 3.44 0 0 1 -2.5.86 3.28 3.28 0 0 1 -1.87-1.75v-.67a6.68 6.68 0 0 1 .32-2.39 7.53 7.53 0 0 1 2.24-2.88 18.15 18.15 0 0 1 6.57-4 2.26 2.26 0 0 1 1.21-.12 1.38 1.38 0 0 1 .43.19 5.63 5.63 0 0 1 .91 1.3c.38.76 2.38 1.78 1.96 2.6z" opacity=".1"/><path d="m663.34 417.27c-1.7-.08-3.09-1.32-4.32-2.49l-3.8-3.58a3.31 3.31 0 0 1 -.66-.74 5.43 5.43 0 0 1 -.45-1.22 14.32 14.32 0 0 0 -3.68-5.28 2.55 2.55 0 0 0 -1.1-.79 2.17 2.17 0 0 0 -1.21.13 18.15 18.15 0 0 0 -6.57 4 7.34 7.34 0 0 0 -2.24 2.88 6.68 6.68 0 0 0 -.32 2.39 18.36 18.36 0 0 0 1.75 7.68c.18.37.36.74.56 1.1a35.65 35.65 0 0 0 4.7 6.1l2.38 2.67c2.34 2.61 4.68 5.23 7.23 7.65a9.39 9.39 0 0 0 3.23 2.26 3.61 3.61 0 0 0 3.72-.61 5.31 5.31 0 0 0 1.06-1.9c1.55-4 3-8.15 3.09-12.46a44.61 44.61 0 0 0 -.21-5.17c-.17-1.83-1.45-2.54-3.16-2.62z" fill="#3ddbd4"/><path d="m723.94 557.27a232.7 232.7 0 0 1 -2.13 30.07c-.2 1.6-.42 3.21-.53 4.83-.33 4.66.2 9.36-.23 14-.24 2.5-.75 5-1.2 7.45a131.45 131.45 0 0 0 -1.69 33.14c1.37 18.43-2.85 36.87-.94 55.25a45.06 45.06 0 0 1 -.58 10.69 46.49 46.49 0 0 1 -1.55 6.47q-2.22 7.51-4.4 15a5.32 5.32 0 0 1 -1 2.07 4.71 4.71 0 0 1 -3.75 1.12c-5.77-.19-11.19-2.67-16.43-5.11a5.25 5.25 0 0 1 -1.65-1c-1.09-1.13-1-2.92-1.48-4.4s-1.79-2.89-2.53-4.43a14.85 14.85 0 0 1 -1.09-4.54q-1-7.7-1.36-15.42c-.37-7.26 4.42-13.94 6-21 3.05-13.88.47-28.76 5.8-41.94 1.67-4.15-.76-9.19-1-13.67a42.74 42.74 0 0 0 -1.12-8.58c-1-3.77-3.1-7.3-3.25-11.2-.12-2.82.79-5.57 1.27-8.36a38.29 38.29 0 0 0 -.17-12.32c-.53-3.36-1.35-6.72-2.16-10l-.18.37a112.57 112.57 0 0 0 -6.27 14.75c-.79 2.45-1.5 4.94-2.5 7.33-.82 2-1.82 3.82-2.81 5.7a162.87 162.87 0 0 0 -9.24 20.58c-1.24 3.46-2.32 7-3.41 10.47q-3.69 12-7.4 24c-2 6.31-4.2 12.41-6.15 18.71-2.77 9-5.54 17.92-8.76 26.71-3.06 8.36-6.58 17-5.51 25.83a19.05 19.05 0 0 1 -8.82 1.79 51.71 51.71 0 0 1 -15-3.65 11.46 11.46 0 0 1 -5.17-3.08c-2.23-2.71-1.67-6.68-1-10.12a23.23 23.23 0 0 1 1.21-4.56c.75-1.85 2-3.48 2.77-5.29 1.58-3.5 1.68-7.45 2.3-11.24s2-7.78 5.24-9.85c.54-6.65 3.29-13.23 4.8-19.73 1.14-4.93 1.52-10 2.41-15s2.36-10 5.38-14a22.32 22.32 0 0 1 2.71-12 12.59 12.59 0 0 0 1.19-2.55 14.66 14.66 0 0 0 .33-2.64 15.54 15.54 0 0 1 4.21-9.26c-1-3.66.4-7.46 1.64-11a38 38 0 0 0 2.1-14.07 12.21 12.21 0 0 1 .2-4c.28-1 .83-1.85 1.14-2.82a15.48 15.48 0 0 0 .45-3.59c.4-5.4 2.58-10.5 5-15.33 1.43-2.82.21-6.65.52-9.8.52-5.22 1.09-10.61 3.67-15.17a28 28 0 0 0 1.43-2.57 11 11 0 0 0 .83-4c.09-2.28.41-4.19-.41-6.31 5.35-4.46 12.66-5.7 19.61-6s14 .33 20.81-1.16c2-.44 4-1.07 6.11-1.37 4.8-.7 9.65.4 14.38 1.48-.33 3 .77 5.88 1.95 8.67a93.26 93.26 0 0 1 7.41 35.65z" fill="#323f3e"/><path d="m700.39 559.53-11.48 25.84c-.53-3.36-1.35-6.72-2.16-10l-.18.37v-.54l6.26-13.78z" opacity=".1"/><path d="m734.83 505.55a4.51 4.51 0 0 1 -2.28.85 11.33 11.33 0 0 1 -3.75-.51l-8.95-2.27a3.78 3.78 0 0 1 -.82-.28c.15-1.58.45-3.39 1.31-4 1.26-.86 5.06.29 6.51.48 2.48.35 4.95.75 7.41 1.22a20.19 20.19 0 0 1 .57 4.51z" opacity=".1"/><path d="m742.43 446.05c.2.83.47 1.65.62 2.49a19.14 19.14 0 0 1 -.2 6.18l-.82 5.72-.82 5.76-3.21 22.13-.79 5.48-1.09 7.65a5.82 5.82 0 0 1 -.48 1.84 3.86 3.86 0 0 1 -3.14 1.85 11.27 11.27 0 0 1 -3.74-.51l-8.95-2.26a2.9 2.9 0 0 1 -1.09-.45 2.18 2.18 0 0 1 -.59-2.11c.13-.76.46-1.47.58-2.23.22-1.48-.41-3-.18-4.47a10.1 10.1 0 0 1 1-2.7c3-6.63 1.26-14.36 2.28-21.56a32.57 32.57 0 0 1 6.84-15.45 43.5 43.5 0 0 1 7.65-7.51c1.13-.87 2.91-2.67 4.31-3 1.91-.38 1.53 1.89 1.82 3.15z" fill="#3ddbd4"/><path d="m674.33 359.91c-.66 2.09.37 4.4-.1 6.55-.52 2.36-2.73 4-3.36 6.37-1 3.61 2.06 6.9 4.29 9.9 8.3 11.13 7.21 26.55 4.37 40.15a206.09 206.09 0 0 1 -9.45 32c-1.24 3.22-2.63 6.51-5.08 8.93 4.6-1.32 9.48-2.65 14.1-1.37 5.84 1.62 10.88 7.29 16.79 6 3.57-.8 6.06-4 9.27-5.7 6-3.23 13.22-1.2 19.92-.17a7.68 7.68 0 0 0 4.35-.22 7.3 7.3 0 0 0 2.64-2.42 24.73 24.73 0 0 0 5.13-13.3 17 17 0 0 0 -4.91-13.13c-1.41-1.34-3.11-2.42-4.2-4a12.17 12.17 0 0 1 -1.65-6.06c-.8-11 1.88-22.22-.87-32.86-1-3.79-2.64-7.42-3.08-11.31-.55-4.82.77-10-1.15-14.42a14.18 14.18 0 0 0 -8.43-7.27 42.14 42.14 0 0 0 -11.24-2c-5.48-.48-25.05-2.82-27.34 4.33z" fill="#323f3e"/><g opacity=".1"><path d="m679.52 422.88a207.69 207.69 0 0 1 -9.4 31.87c.69-1.37 1.28-2.81 1.83-4.24a206.09 206.09 0 0 0 9.45-32c2.84-13.59 3.93-29-4.37-40.15-2-2.65-4.57-5.53-4.47-8.66a10.23 10.23 0 0 0 -1.7 3.15c-1 3.61 2.06 6.9 4.29 9.9 8.31 11.11 7.22 26.53 4.37 40.13z"/><path d="m674.35 365.44a10.15 10.15 0 0 0 1.76-3.37 17.53 17.53 0 0 0 -.12-4.46 4.8 4.8 0 0 0 -1.66 2.3c-.56 1.77.09 3.71.02 5.53z"/><path d="m734 455.52a7.36 7.36 0 0 1 -2.7 2.48 7.65 7.65 0 0 1 -4.34.22c-6.7-1-14-3.07-19.92.17-3.21 1.74-5.71 4.9-9.27 5.69-5.92 1.32-11-4.34-16.8-6-4.13-1.15-8.49-.2-12.67 1a17.57 17.57 0 0 1 -3.3 4.79c4.6-1.32 9.48-2.65 14.1-1.37 5.84 1.62 10.88 7.29 16.79 6 3.56-.8 6.06-4 9.27-5.7 6-3.23 13.22-1.2 19.92-.17a7.68 7.68 0 0 0 4.35-.22 7.3 7.3 0 0 0 2.64-2.42 27.61 27.61 0 0 0 4.14-7.92 29.85 29.85 0 0 1 -2.21 3.45z"/></g><g fill="#3f3d56" opacity=".3"><path d="m648.2 366.16a2 2 0 0 0 -.41-1.27 2 2 0 0 0 -2.52-.57c-1.42.73-2.06.34-2.28.21-1.58-.95-2.46-4.74-2.5-7.83a2 2 0 0 0 -1-1.73v-.63l-.44.45a2 2 0 0 0 -2 .57 23.72 23.72 0 0 1 -4 3.57 19.21 19.21 0 0 1 -2 1.21 8.9 8.9 0 0 1 -1.44.62 13 13 0 0 0 -1.06-1.29 1.91 1.91 0 0 0 -2-.54 2.09 2.09 0 0 0 -1.41 1.74 3.54 3.54 0 0 0 2.11 3.79 7.86 7.86 0 0 1 .56 1.49 8.82 8.82 0 0 1 .25 3.66l-1.39 1-.32-.19a3.7 3.7 0 0 1 -.74-2 18.49 18.49 0 0 1 -.27-1.9 22.4 22.4 0 0 0 -.37-2.45 2 2 0 0 0 -1.14-1.36l-.08-.55-.36.41a1.94 1.94 0 0 0 -1.86.65q-1.49 1.77-3.14 3.46c.19-4-.46-9.06-4.74-10.43-6-1.95-9.6 5-11.73 9.13l-.68 1.31a30.86 30.86 0 0 1 -4.71 7.08 10.52 10.52 0 0 1 -3.09 2.27c-.7.33-1.17.37-1.32.27-.35-.22-.73-1.17-.61-4.38v-.15a58.65 58.65 0 0 1 1.74-12.24l.18-.77a15 15 0 0 1 1.45-4.18 2.46 2.46 0 0 1 1.46-1.16 1.3 1.3 0 0 1 1 .19 4.83 4.83 0 0 1 .24 2.38v.23a2 2 0 0 0 4 .09c.17-6-3.13-6.92-4.55-7-2.94-.23-5.27 1.79-6.62 5.68a56 56 0 0 0 -2.67 13.31v.34a37.54 37.54 0 0 0 -.17 7.29 5.21 5.21 0 0 0 1.77 3.75 4.25 4.25 0 0 0 2.65.88c1.71 0 3.7-.85 5.85-2.53a25.51 25.51 0 0 0 6.1-7.85c.45-.81.88-1.68 1.33-2.57 1.25-2.49 2.54-5.07 4.4-6.63a3.42 3.42 0 0 1 2.55-.94 1.73 1.73 0 0 1 1.19.88 10.41 10.41 0 0 1 .87 3.58 18.94 18.94 0 0 1 -.6 7.05 2 2 0 0 0 .65 2.05l-.33 1.19.91-.81a2 2 0 0 0 1.92-.4 61.87 61.87 0 0 0 4.73-4.46 7.31 7.31 0 0 0 2.09 4.32c1.56 1.45 4.17 2.28 6.21.68 2.39-1.88 2.26-5.77 2.08-7.36a11.32 11.32 0 0 0 -.5-2.38 18.68 18.68 0 0 0 5.32-3.24 9.26 9.26 0 0 0 2.52 5.32 7.25 7.25 0 0 0 3.48 1.93 7.88 7.88 0 0 0 -.17 1.77 1.85 1.85 0 0 0 .18.81 2 2 0 0 0 .2 1.13 2.13 2.13 0 0 0 .16.25l-.07.47.28-.23a2 2 0 0 0 3.12-.33l2.21-3.5a2 2 0 0 0 -.47-2.61z"/><path d="m324.23 374.85h.18a5.47 5.47 0 0 0 4.22-2.91c.6-.95 1.15-1.93 1.68-2.87a44.7 44.7 0 0 1 2.35-3.87c.85-1.21 1.78-2.41 2.76-3.55a5.57 5.57 0 0 0 .35-.45l.27-.35 1 .29a18.56 18.56 0 0 1 -1 3c-1 1.62-1.81 3.1-2.54 4.52a2 2 0 0 0 .75 2.63 2 2 0 0 0 2.68-.6 31.16 31.16 0 0 0 2.51-4.47 62.7 62.7 0 0 1 8.15-10.83c.38-.41.77-.82 1.17-1.22l.13-.14.3.17c.73.34.79.49 1.19 1.47l.3.7 2.79 6.38c.11.25.22.52.33.8a7.71 7.71 0 0 0 2.64 3.94 4.67 4.67 0 0 0 3.33.54h.12c1.33-.15 2.65-.41 3.93-.67v.57a2.05 2.05 0 0 0 .91 1.61 1.89 1.89 0 0 0 1.74.21 10.55 10.55 0 0 0 6.82-7.6 2 2 0 0 0 -.56-1.91 2 2 0 0 0 -2-.48 1.91 1.91 0 0 0 -1.34 1.42 6.69 6.69 0 0 1 -1.78 3.25 2 2 0 0 0 -.67-1 2.06 2.06 0 0 0 -1.65-.4c-.45.08-1 .22-1.61.37-1.53.38-4.72 1.17-5.48.32a5.91 5.91 0 0 1 -.79-1.67c-.13-.34-.25-.67-.37-.95l-1.6-3.65c-.14-.32-.3-.76-.47-1.26-.94-2.66-2.52-7.14-6.24-6.52-1.63.27-2.82 1.61-3.69 2.59l-.39.44c-1.4 1.49-2.75 3.08-4 4.71l-.08-.12a3.48 3.48 0 0 0 -2.89-1.6c-2.51 0-4.81 2.65-6.92 5.51l-.28.37a62.69 62.69 0 0 0 -4.73 7.52l-.13.25a16.38 16.38 0 0 1 -.08-2.34 17.35 17.35 0 0 1 1.92-7.31 16.5 16.5 0 0 1 2.09-3.14 17.75 17.75 0 0 1 2.34-2.09 2 2 0 0 0 .45.24 2 2 0 0 0 2-.33 2 2 0 0 0 .72-1.9 2.61 2.61 0 0 0 -2-2.41c-3.39-.63-8.5 6.67-8.54 6.75a21.13 21.13 0 0 0 -2.07 16.65 2 2 0 0 0 1.78 1.39z"/><path d="m383.91 361.46a8.84 8.84 0 0 0 2.72-1.52 6.6 6.6 0 0 0 3.5 4.74 5.06 5.06 0 0 0 4.35.39c2.2-.87 3.38-3.21 4-5 1.28-3.8 5.07-7 9.58-5.53a6.5 6.5 0 0 1 4 4 7.8 7.8 0 0 1 -.45 6.62 2 2 0 0 0 .58 2.63l-.19.72.57-.5a1.93 1.93 0 0 0 2.25-.51 16.2 16.2 0 0 1 7.17-4.87 4.76 4.76 0 0 0 .37 1 5.23 5.23 0 0 0 3.44 2.71c2.16.48 4.33-.18 6.24-.75.4-.12.79-.24 1.17-.34l10-2.72a2 2 0 0 0 1.39-1.39 2.05 2.05 0 0 0 -.53-2 2 2 0 0 0 -1.91-.49l-9.09 2.46-1.33.37c-.92.27-1.79.52-2.67.7l-.26.06a8 8 0 0 1 -1.49.23 3.45 3.45 0 0 1 -1.56-.85h.06a2 2 0 0 0 .83-2.35 2.07 2.07 0 0 0 -2.22-1.31 20.26 20.26 0 0 0 -7.93 2.88 11.81 11.81 0 0 0 -2.43-6.56 10.21 10.21 0 0 0 -8.21-4.07h-.05a11.84 11.84 0 0 0 -9.7 5.17 12.15 12.15 0 0 0 -1.17 2.83c-.37 1.15-.87 2.73-1.49 3a1.61 1.61 0 0 1 -1.48-.05 3.28 3.28 0 0 1 -1.58-2.18 11.54 11.54 0 0 1 .52-5l.07-.27a2 2 0 0 0 -.91-2.18l.2-1.55-.86 1.28a1.92 1.92 0 0 0 -2.14 1.05c-1.24 2.55-3.76 5.43-6 5.75a3.18 3.18 0 0 1 -2.87-1.25 1.93 1.93 0 0 0 -1.86-.59 2 2 0 0 0 -1.49 1.38 2 2 0 0 0 .44 1.94 7.68 7.68 0 0 0 8.42 1.92z"/><path d="m374.6 389.05a6 6 0 0 0 5.41 5.83 7.68 7.68 0 0 0 3.92-.63 10.7 10.7 0 0 0 1.68-1.06 18.48 18.48 0 0 1 2.89-1.79 2 2 0 0 0 1.28.48 2.07 2.07 0 0 0 1.76-1 1.93 1.93 0 0 0 0-2 3.23 3.23 0 0 0 -2.2-1.66c-1.9-.36-3.71 1.06-5.16 2.2a11.46 11.46 0 0 1 -1 .76 3.76 3.76 0 0 1 -3.3.55c-.7-.31-1.33-.9-1.2-3.1v-.39a8.62 8.62 0 0 0 -.87-5.35 2 2 0 0 0 -2.69-.74 61 61 0 0 0 -14.23 10.63 7.48 7.48 0 0 0 -3.1-2.63 11.15 11.15 0 0 0 -9.08.13c-.35.16-.7.33-1.06.53l-1.48-.74-2-1c-1.45-.71-2.94-1.43-4.36-2.19a7.7 7.7 0 0 1 -2.37-1.74 2.46 2.46 0 0 1 -.38-2.08c.05-.09.11-.24.57-.25a2 2 0 0 0 -.09-4 4.38 4.38 0 0 0 -4.16 2.8 6.55 6.55 0 0 0 1.52 6.69 21 21 0 0 0 6.28 3.77c.65.3 1.3.59 1.91.89l1.05.52a17.08 17.08 0 0 0 -4.8 11.33 2 2 0 0 0 1.66 2 17.07 17.07 0 0 0 2.46.18 16.41 16.41 0 0 0 7.8-1.93c1.22-.65 7.23-4.08 6.28-8-.48-1.93-2.5-2.79-3.84-3.36l-.72-.32-.31-.16a6.23 6.23 0 0 1 3.59.55 3.73 3.73 0 0 1 2 2.95 1.91 1.91 0 0 0 1.37 1.55h.15a2 2 0 0 0 1.89-.59 56.54 56.54 0 0 1 9.77-8.7c.68-.47 1.37-.93 2.06-1.37a6.62 6.62 0 0 0 .6-.41l.79-.56c0 .67-.09 1.49-.13 1.9a8.8 8.8 0 0 0 -.16 1.51zm-31.2 13.12c0-.13.07-.29.1-.45a12.49 12.49 0 0 1 .65-2.16 12.62 12.62 0 0 1 3.77-5.15c.47.22 1 .44 1.51.66a14.91 14.91 0 0 1 3.1 1.59c.53.42.49.64.48.72-.24 1.3-3.84 3.46-6 4.13a8.9 8.9 0 0 1 -3.61.66z"/><path d="m446 384.69c-7.31 3.2-12.59 4.12-16.15 2.8-1.48-.55-2.33-1.78-3.3-3.21-.4-.58-.82-1.19-1.3-1.78-.67-.81-2.05-2.52-4.15-2-1.78.41-3 2.33-3.86 3.73-.18.28-.34.54-.49.75a61.67 61.67 0 0 0 -4.13 6.83c-.17.33-.32.74-.51 1.23-.11.29-.27.71-.43 1.07-.1-.3-.2-.61-.25-.78l-.09-.3c-.84-2.73-1.55-5.57-2.18-8.69a1.91 1.91 0 0 0 -1.32-1.47l-.13-.62-.37.54a2 2 0 0 0 -1.8.89c-1.26 1.87-2.44 3.5-3.61 5-.46.58-.93 1.16-1.41 1.73a2.09 2.09 0 0 0 -1.08-1.09 1.91 1.91 0 0 0 -2.53 1 6.39 6.39 0 0 0 -.48 4 2 2 0 0 0 1.44 1.55c2.68.71 4.36-1.29 5.47-2.62l.17-.21c.9-1.07 1.81-2.21 2.73-3.46.48 1.93 1 3.76 1.57 5.55q.06.18.12.39c.36 1.22 1.1 3.75 3.51 3.75 2.37 0 3.35-2.53 3.94-4 .12-.3.23-.58.33-.79a58.47 58.47 0 0 1 4.56-7.59c.1-.14.24-.36.4-.61s.63-1 .87-1.26c.31-.09.52 0 1.09.8.2.28.4.57.59.86.37.54.74 1.09 1.17 1.62a9.26 9.26 0 0 0 6 3.55c4.59.74 10.23-.4 17.27-3.48a1.9 1.9 0 0 0 1-2.53 2.06 2.06 0 0 0 -2.66-1.15z"/><path d="m416.29 424c-1.71.22-3.5-.67-5.39-1.61-2.76-1.36-5.88-2.91-9.34-1.1a12.27 12.27 0 0 0 -4.16 4.2c-.42.59-.81 1.14-1.26 1.69a7.56 7.56 0 0 1 -1.22 1.24 1.4 1.4 0 0 1 -.76.2c-.23-.08-.57-.83-.75-1.23l-.22-.47c-.63-1.29-1.25-2.59-1.87-3.89l-.93-1.95a1.91 1.91 0 0 0 -1.62-1.1l-.38-.81-.22.87a2 2 0 0 0 -1.55 1.82 8.06 8.06 0 0 1 -3.42 5.78 6.71 6.71 0 0 1 -9.11-.77 7.43 7.43 0 0 0 .76-5.25 6.8 6.8 0 0 0 -3.77-4.7 2 2 0 0 0 -1.73 0 2 2 0 0 0 -1.09 1.27 11.85 11.85 0 0 0 .73 8.18 3.38 3.38 0 0 1 -1.21.23h-.06a3.63 3.63 0 0 1 -3.48-2 5.71 5.71 0 0 1 .64-5.8 1.92 1.92 0 0 0 -.15-2.49 2.11 2.11 0 0 0 -.36-.31l1.17-3.76-2.65 3.44a1.84 1.84 0 0 0 -.7.28 10.7 10.7 0 0 0 -1.38 1.06 9.25 9.25 0 0 0 -5.43-3.72c-4.94-1.24-10.43.4-14.17 2a31.75 31.75 0 0 0 -5 2.71 11.68 11.68 0 0 1 -.38-2.38 1.87 1.87 0 0 0 1-.75 2 2 0 0 0 .14-2 2 2 0 0 0 -1.66-1.13 3 3 0 0 0 -2.39.83 4.52 4.52 0 0 0 -1.15 3.42 28.05 28.05 0 0 0 .75 4.85 31.43 31.43 0 0 0 -9.52 14.97 2 2 0 0 0 .22 1.57 1.93 1.93 0 0 0 1.25.91 9.24 9.24 0 0 0 1.95.21c4 0 7.75-2.6 9.62-6.83a16.69 16.69 0 0 0 1.05-8.43c0-.36-.07-.71-.12-1.06a27.79 27.79 0 0 1 4.94-3 25.63 25.63 0 0 1 8.53-2.33c2.41-.2 5.69.45 7 2.05a2.93 2.93 0 0 1 .4 2.87 2 2 0 0 0 1.41 2.42 2.06 2.06 0 0 0 .69.06 8.62 8.62 0 0 0 1.74 3.55 7.6 7.6 0 0 0 7 2.61 7 7 0 0 0 2.52-.8 10.76 10.76 0 0 0 5.83 3.19 11.63 11.63 0 0 0 11.8-5.65l.93 1.93.09.19c.54 1.11 1.36 2.79 3.18 3.3 3.29.92 5.7-2.34 7-4.09.22-.29.43-.59.64-.9a9.08 9.08 0 0 1 2.5-2.75c1.13-.66 2.46-.53 4.58.45l1.41.69c2.13 1.07 4.55 2.29 7.43 1.92a2 2 0 0 0 1.62-1.22 2.05 2.05 0 0 0 -.22-2 1.92 1.92 0 0 0 -1.7-.68zm-87.63 10.13a7.54 7.54 0 0 1 -1 .38 25.22 25.22 0 0 1 1.74-3.69 27.19 27.19 0 0 1 3.86-5.22v.41c-.15 3.75-1.86 6.79-4.6 8.08z"/><path d="m470.73 350.47a2 2 0 0 0 -2.79 0 2 2 0 0 0 -.07 2.83l.24.26a1.93 1.93 0 0 0 -.92.37 20.46 20.46 0 0 0 -1.94 1.66 21.61 21.61 0 0 1 -2.93-2.38 7.48 7.48 0 0 1 3.53-1.39 2 2 0 0 0 1.62-1.21 2.05 2.05 0 0 0 -.21-2 1.91 1.91 0 0 0 -1.76-.74 11.63 11.63 0 0 0 -9.76 7.88c-1.55 4.82.45 9.2 4.87 10.66a15.39 15.39 0 0 0 4.78.76c3.11 0 6.19-1 8-3.25 3.39-4.32.85-9.75-2.65-13.38zm-11 5.95c0-.05.05-.09.07-.14a25.81 25.81 0 0 0 2.86 2.34 21 21 0 0 0 -1.85 3.35 3.7 3.7 0 0 1 -1.17-1.35 5.14 5.14 0 0 1 .1-4.2zm5 6.66a15.61 15.61 0 0 1 1.41-2.44 25.27 25.27 0 0 0 3.47 1.37 7.75 7.75 0 0 1 -4.91 1.07zm6.2-4.84q-1-.3-1.92-.69l.52-.41a2 2 0 0 0 .66-.88 7 7 0 0 1 .71 1.98z"/><path d="m466.26 379.92a2 2 0 0 0 -2.12 1.9l-.51 10.56a1.94 1.94 0 0 0 1.87 2.05h.1a2 2 0 0 0 2-1.91l.51-10.57a1.94 1.94 0 0 0 -1.85-2.03z"/><path d="m461.46 382.56a2 2 0 0 0 -2.16 1.88 74.88 74.88 0 0 0 -.06 9 2 2 0 0 0 2 1.89h.12a1.94 1.94 0 0 0 1.85-2.06 73.07 73.07 0 0 1 0-8.63 1.93 1.93 0 0 0 -1.75-2.08z"/><path d="m85.25 387.31a66.29 66.29 0 0 1 11.45-12.21c0 .18-.1.36-.14.54-.62 1.64-1.19 3.1-1.75 4.46a1.92 1.92 0 0 0 1 2.5 2 2 0 0 0 2.61-.86 25.51 25.51 0 0 0 1.9-4.8c.7-1.88 1.38-3.81 2-5.77.06.11.11.22.16.33 1.09 2.19 2.69 2.47 3.82 2.33 1.72-.21 3.19-1.63 4.27-2.66l.23-.22a20 20 0 0 0 1.42-1.49 6.07 6.07 0 0 0 4.37 3.34 5.55 5.55 0 0 0 4.56-1.29c1.37 2.32 3.15 4.77 6.28 5.26a5.33 5.33 0 0 0 2.94-.36 5.15 5.15 0 0 0 6.55 1.21 5.7 5.7 0 0 0 1.12-.83l-.12.4a4.35 4.35 0 0 0 0 3.4 1.9 1.9 0 0 0 1.8 1.12 1.77 1.77 0 0 0 .32 0 2.2 2.2 0 0 0 1.88-1.37 2 2 0 0 0 -.22-2.18c.43-1.59.95-3.73 1-4.16a28.8 28.8 0 0 0 .14-6.15 30 30 0 0 0 -3.23-11.16 1.89 1.89 0 0 0 -1.61-1.06 2 2 0 0 0 -1.82.93 2 2 0 0 0 -.1 2 25.64 25.64 0 0 1 2.87 11.92v1a1.94 1.94 0 0 0 -3 1.3c-.16.93-.62 1.42-1.35 1.43a1.64 1.64 0 0 1 -1.35-.68 4.92 4.92 0 0 0 .17-2.77 2 2 0 0 0 -1.77-1.52 1.91 1.91 0 0 0 -2 1.12 6.18 6.18 0 0 0 -.53 2.29 2.41 2.41 0 0 1 -1.81 0 5.87 5.87 0 0 1 -2-2c-.46-.67-.86-1.38-1.28-2.13s-.88-1.56-1.41-2.33a2 2 0 0 0 -1.6-.89l-.11-.18-.06.19a1.79 1.79 0 0 0 -.6.13 2 2 0 0 0 -1.25 2.21.92.92 0 0 1 -.23.62 1.56 1.56 0 0 1 -.94.6 1.9 1.9 0 0 1 -1.65-.61 5.49 5.49 0 0 1 -1.1-3.52 2 2 0 0 0 -1.42-1.87l-.11-.61-.33.52a1.93 1.93 0 0 0 -1.87 1 17.14 17.14 0 0 1 -4.11 5.08c-.53.43-.82.48-.88.46-.73-.23-1.54-3.14-1.81-4.1-.13-.46-.25-.89-.36-1.24a2 2 0 0 0 -1.38-1.31l-.5-1.78-.52 1.76a2 2 0 0 0 -1.43 1.4c-.4 1.44-.85 2.95-1.36 4.57a1.83 1.83 0 0 0 -.83.34 71.48 71.48 0 0 0 -16.6 16.7c-4.82-14.1-4.17-19.56-2.73-21.66a3.29 3.29 0 0 1 2.87-1.41 2 2 0 0 0 1.93-2.08 2 2 0 0 0 -2-1.91 7.16 7.16 0 0 0 -5.4 2.5c-2.81 3.32-2.33 8.68-2.12 10.24a85.93 85.93 0 0 0 4.79 18.6 14.06 14.06 0 0 0 -1.75 6.82c.08 2.91 1.55 6.17 4.59 6.44h.52a3.49 3.49 0 0 0 3-1.43c1.42-2 .87-5.54-1.87-11.77.6-.93 1.23-1.84 1.85-2.69zm-3.25 10.27-.76.12a4.24 4.24 0 0 1 -.1-1 6.59 6.59 0 0 1 .06-1.25 12.82 12.82 0 0 1 .61 1.58l.11.33z"/><path d="m193.6 370.54c-1.75-2.13-4.72-2.54-7.77-1.06a17.12 17.12 0 0 0 -2 1.21 6.85 6.85 0 0 1 -3.08 1.43 2.89 2.89 0 0 1 -2.6-1.11 3.72 3.72 0 0 1 -.54-3.38 1.91 1.91 0 0 0 -.35-1.84 2.1 2.1 0 0 0 -1.89-.71 30.07 30.07 0 0 0 -5.36 1.4c-1.1.36-2.14.7-3.21 1-2.17.53-5.25.32-6.65-.95a2.57 2.57 0 0 1 -.74-2.52 2 2 0 0 0 -2.18-2.33l-.14-.38-.12.43a2 2 0 0 0 -1.44 1.38l-1.2 4.1c-.1.32-.18.68-.27 1.06l-.3-4.5a2 2 0 0 0 -2.17-1.87 1.93 1.93 0 0 0 -1.82 2.07l.44 6.54a19 19 0 0 1 -2.74-2.89 2.05 2.05 0 0 0 -2.88-.35 1.89 1.89 0 0 0 -.35 2.68 22.24 22.24 0 0 0 4.23 4.27l.32.24c1 .81 2.67 2.08 4.39 2.08a3.4 3.4 0 0 0 1-.15c1.84-.58 2.37-2.46 2.68-3.59l.11-.38c.27-.93.55-1.86.82-2.79a8.44 8.44 0 0 0 4.15 2.05c3.33.63 6.38-.38 9.34-1.35.74-.25 1.46-.49 2.18-.69a7 7 0 0 0 5.54 6.36 7.88 7.88 0 0 0 5.53-1c.4-.22.85-.5 1.32-.8 2.86-1.81 3.88-2 4.71-1a1.91 1.91 0 0 0 2.72.27 2 2 0 0 0 .3-2.87z"/><path d="m188.11 392.36-20.25 4.64-.92.22a17.54 17.54 0 0 1 -4 .66 7.11 7.11 0 0 1 -3.42-1.17l-.71-.37a7.33 7.33 0 0 0 -5.89-.73c-2.53.88-4.25 3-5.76 4.78a27.41 27.41 0 0 1 -1.9 2.13c-1.83 1.76-3.4 2.11-4.68 1a3.89 3.89 0 0 1 -.87-1.14 13.19 13.19 0 0 0 -1.11-6 1.91 1.91 0 0 0 -2.13-1.12 2.11 2.11 0 0 0 -1.09.58l-2.75-4.35-.32-.53c-.83-1.4-2.77-4.68-5.86-3.17-2.13 1-3.23 4.1-4.26 7.42l-.35 1.11c-.35 1-.68 2.08-1 3.34a27 27 0 0 0 -6.1 4.66l-1.17-.87c-.8-.58-1.56-1.13-2.24-1.68l-1-.83c-.81-.65-1.65-1.32-2.42-2a8.06 8.06 0 0 1 -1.38-1.44 3.05 3.05 0 0 1 -.23-2.1 1 1 0 0 1 .51.1 1.93 1.93 0 0 0 2.49-1.18 2 2 0 0 0 -1.21-2.6 4.38 4.38 0 0 0 -5.55 2.54c-.9 1.94-.46 4.14 1.24 6.19a31.68 31.68 0 0 0 5.52 4.87c.74.55 1.47 1.1 2.16 1.65.17.14.41.32.7.52a26.81 26.81 0 0 0 -2.73 4.73 2 2 0 0 0 .15 2l-.1.19h.22a2 2 0 0 0 1.56.72h.35c4.57-.77 7.12-2 7.81-3.89a3.23 3.23 0 0 0 -.76-3.35c-.24-.29-.51-.59-.81-.89a21.54 21.54 0 0 1 1.81-1.62c-.12.7-.22 1.41-.31 2.12a1.89 1.89 0 0 0 .67 1.73l-.57 3.42 1.92-3a2.13 2.13 0 0 0 1.58-.8 25.29 25.29 0 0 0 4.29-8.47 2 2 0 0 0 -.44-1.88l.15-.46-.43.19a2 2 0 0 0 -.91-.39c.17-.48.34-1 .52-1.44s.26-.75.4-1.17a9.81 9.81 0 0 1 1.19-2.77l1 .17c.09.15.18.33.24.45a6 6 0 0 0 .33.6l6.71 10.66a2.07 2.07 0 0 0 .62.63 7.13 7.13 0 0 0 2.5 2.45l.41.65-.09-.49a6.26 6.26 0 0 0 2.16.61c4 .4 6.6-2.7 8.7-5.2.45-.53.89-1.06 1.32-1.52 2-2.15 3.42-2.56 5.35-1.57 2.68 1.38 5 2.38 8.8 1.7 5.3-1 10.64-2.27 15.79-3.54 2.52-.62 5-1.24 7.54-1.82a2 2 0 0 0 1.47-2.36 2 2 0 0 0 -2.46-1.52z"/><path d="m171.57 429.63a52 52 0 0 1 -20.61-.86c-.52-.13-1.06-.3-1.61-.48a15 15 0 0 0 -3.79-.86 8.53 8.53 0 0 0 -4.2 1.1l-.3.14a8 8 0 0 1 -5 .75 8.59 8.59 0 0 1 -6.75-5.71 2 2 0 0 0 -2.89-1.14l-13.16 7.43-2.11 1.22c-1.37.8-2.79 1.63-4.2 2.35a2.41 2.41 0 0 1 -.87.29c-.3-.27-.7-2.15.07-6a2 2 0 0 0 -.71-2l.17-1-.8.68a2 2 0 0 0 -1.89.37l-4.58 3.64c-.25.2-.51.43-.76.66a5.61 5.61 0 0 1 -1.26.95 2.23 2.23 0 0 1 -1.67.19 1.84 1.84 0 0 1 -.84-1.18 7.1 7.1 0 0 1 2.19-7.38 1.92 1.92 0 0 0 .63-1.83 2 2 0 0 0 -1.37-1.52 2 2 0 0 0 -2 .41c-3.57 3.17-5.44 9.37-2.23 13.85a4.65 4.65 0 0 0 5.97 1.62 18.71 18.71 0 0 0 4.67-3.08c0 2.47.61 4.13 1.8 5.05a3.52 3.52 0 0 0 2.21.72 6.2 6.2 0 0 0 2.49-.59 62.64 62.64 0 0 0 6.92-3.78c1-.63 2.09-1.26 3.13-1.85l8.3-4.68a12.84 12.84 0 0 0 6.2 5.44 11.94 11.94 0 0 0 9.38 0c.27-.11.53-.23.78-.35a5.13 5.13 0 0 1 3-.73 13 13 0 0 1 1.86.5c.43.14.86.28 1.28.39a56.18 56.18 0 0 0 23.24 1.15 1.88 1.88 0 0 0 1.51-1.17 2 2 0 0 0 -.33-2 2 2 0 0 0 -1.87-.71z"/></g><circle cx="847.06" cy="555.93" fill="#7a3fd8" opacity=".15" r="51.26"/><path d="m291.06 342.35c-.4-1.24-2.11-2.09-3-2.87q-2.13-1.82-4.16-3.73a109.12 109.12 0 0 0 -8.4-8.94c-.47-.44-1.1.22-.7.71a107.29 107.29 0 0 0 8.2 8.72l.46.54c.43.53 2.81 3 2.73 3.46-.21 1.44-2 .93-2.88.9l-7.41-.27-28.16-1a.5.5 0 0 0 0 1l35.57 1.3c2.37.09 4.78-.1 3.76-2.2.89.73 3.38 2.17 2.48 3.6-.49.8-3.46 1.66-4.29 2-3.15 1.4-6.35 2.65-9.6 3.78-.6.21-.34 1.17.26 1 3.63-1.27 7.2-2.68 10.7-4.28 1.31-.66 5.13-1.55 4.44-3.72z" style="fill:none;stroke:#3f3d56;stroke-linecap:round;stroke-linejoin:round;stroke-width:3;opacity:.35"/><path d="m561.36 333.06a72 72 0 0 1 -7.45-3.33 49.75 49.75 0 0 0 -6.73-4 .5.5 0 0 0 -.51.86 72.67 72.67 0 0 0 6.69 3.93c1.28.89 2.51 1.85 3.71 2.86q-26.6-.36-53.17.83c-.64 0-.64 1 0 1q27.26-1.23 54.54-.81a.5.5 0 0 0 .35-.85c-.38-.34-.78-.66-1.17-1 .89.4 1.81.76 2.72 1.12a100.53 100.53 0 0 1 -12.22 10.33c-.51.36 0 1.23.5.85a101.48 101.48 0 0 0 13-11 .5.5 0 0 0 -.26-.79z" style="fill:none;stroke:#3f3d56;stroke-linecap:round;stroke-linejoin:round;stroke-width:3;opacity:.35"/><path d="m824.41 333.47-14.25-12.15a.5.5 0 0 0 -.7.7 103 103 0 0 0 11.62 12.46c-12.1-.77-28.2-1.61-48.32-1.93a.5.5 0 0 0 0 1q24.35.39 48.65 1.95a8.41 8.41 0 0 0 -.7.53l-3.36 2.87-7.11 6.05c-.48.42.22 1.12.7.71l13.47-11.48a.5.5 0 0 0 0-.71zm-1.84 1a98.89 98.89 0 0 1 -8.54-8.59l2.18 1.86 3.37 2.88c.59.51 3.26 2.19 3.37 2.88a1.2 1.2 0 0 1 -.38 1z" style="fill:none;stroke:#3f3d56;stroke-linecap:round;stroke-linejoin:round;stroke-width:3;opacity:.35"/></svg>