<svg enable-background="new 0 0 1077.9 757.3" viewBox="0 0 1077.9 757.3" xmlns="http://www.w3.org/2000/svg" xmlns:xlink="http://www.w3.org/1999/xlink"><linearGradient id="a" gradientTransform="matrix(-1 0 0 -1 3562.9399 678.63)" gradientUnits="userSpaceOnUse" x1="3341.3044" x2="3341.3044" y1="33.0066" y2="325.6462"><stop offset="0" stop-color="#808080" stop-opacity=".25"/><stop offset=".54" stop-color="#808080" stop-opacity=".12"/><stop offset="1" stop-color="#808080" stop-opacity=".1"/></linearGradient><path d="m625 182.2c-154-15-189.5-131-390.2-100-364.9 56.4-254.1 609.1-8.7 604 239.1-5 418.5-118.8 588.1-91.6 281.1 45.2 355.3-414.4 97.5-459.4-116.5-20.4-132.7 62-286.7 47z" fill="#7a3fd8" opacity=".15"/><path d="m446 389-118.8 27c-17.1 0-30.9-13.8-30.9-30.9v-187.9c0-17.1 13.8-30.9 30.9-30.9l118.8-27c17.1 0 30.9 13.8 30.9 30.9v187.9c0 17.1-13.8 30.9-30.9 30.9z" opacity=".2"/><path d="m734 404-118.8-21c-17.1 0-30.9-13.8-30.9-30.9v-187.9c0-17.1 13.8-30.9 30.9-30.9l118.8 21c17.1 0 30.9 13.8 30.9 30.9v187.9c0 17.1-13.8 30.9-30.9 30.9z" opacity=".2"/><path d="m728 399-118.8-21c-17.1 0-30.9-13.8-30.9-30.9v-187.9c0-17.1 13.8-30.9 30.9-30.9l118.8 21c17.1 0 30.9 13.8 30.9 30.9v187.9c0 17.1-13.8 30.9-30.9 30.9z" fill="#fff"/><path d="m750.5 277.7-.1-91.4c0-17.1-13.8-30.9-30.9-30.9l-103.2-21c-17.1 0-30.9 13.8-30.9 30.9v83.2z" fill="#ffb866" opacity=".5"/><path d="m595.2 195.5 101.5 21v14.8l-101.6-21z" fill="#fff"/><path d="m595.2 221.3 85.5 21v14.9l-85.6-21z" fill="#fff"/><path d="m79.6 540.3c-15 0-27.2-15.4-27.2-34.4v-208.9c0-19 131.9-90 131.9-90 15.1 0 27.2 15.4 27.2 34.4v209c0 18.9-131.9 89.9-131.9 89.9z" opacity=".2"/><path d="m87 534.8c-15 0-27.2-15.4-27.2-34.4v-209c0-19 131.9-90 131.9-90 31-17.7 27.2 15.4 27.2 34.4v209c0 19-131.9 90-131.9 90z" fill="#fff"/><path d="m213.8 330.8v-87.6c0-19 5.3-52.8-20.3-36.1 0 0-127.5 72.2-127.5 91.2v120.6z" fill="#3ddbd4" opacity=".5"/><path d="m74.7 331.7 89.4-55.6v16.6l-89.5 55.6z" fill="#fff"/><path d="m74.6 375.2 75.4-55.6v16.5l-75.4 55.6z" fill="#fff"/><ellipse cx="228.6" cy="642.5" fill="#7a3fd8" opacity=".15" rx="59" ry="10.6"/><path d="m186.3 506.1c3 1.8 7.7 2.9 13.6-.9l-.1 8.4c.4 5.8 7.5 26.7 7.5 26.7l5 17.3c3.6 12.2 5.5 24.8 5.5 37.5-.1 4 .4 8 1.6 11.8 2.7 7.2-1 16.6-2.7 20-2.7.9-5.5 1.7-8.3 2.3-.3.1-.5.1-.8.2s-7.5 3-10.9 2.6c-2.5-.3-4.1 2.8-2.1 5.1-1.6.5-3.3.7-5 .7-3.4-.4-5 5.3 1.2 7s41.9 0 41.9 0c2.1-1 3.2-3.3 2.7-5.6 2.7-.1 4.4-.2 4.4-.2s6.3-2.9 0-10.7l-.3.3-1.4-4v-5.3s8-38.3 5.4-42.8-3.8-27.6-3.8-27.6l.8-25.1c2.3-4.7 3.4-12 4-17.8.9-2.7 1.4-5.6 1.6-8.4.1-1.3.2-2.8.2-4.2 0-3.2-.5-6.4-1.5-9.5 2.8-4.2 6-8.2 9.5-11.9 2.9-2.7 4.3-6.7 3.8-10.7l-2.1-14-5-23.8c.6-6.6-.7-10.4-2.3-12.6.4-2.1.7-4.3 1-6.4 1.1-9.3.6-18.8-1.5-28-.7-3.2-1.7-6.5-4-8.9-2.5-2.7-6.7-4.4-7.6-8-.1-.9-.3-1.8-.6-2.7-.9-2.4-3.8-3.2-6.4-3.5-4.5-.5-11.1-1-15.4.8-3 1.3-7.2 4.7-8.9 8.4-1 1.5-1.3 3.4-1 5.2.2.6.4 1.2.7 1.8-.7 1.8-1 3.6-1 5.5 0 6.6 4 12.5 10.2 14.9.1.3.2.6.3.9.2.7.3 1.5.4 2.2-.1 1.5-.2 2.9-.2 4.4 0 .2-.1.4-.2.6-3.6 1.6-7.1 3.4-10.6 5.5 2.5 3.7-.4 19.3-.4 19.3-6.3 3.7-12.6 13.2-5.9 23s2.9 20.4 2.9 20.4l-1 16.1-.2 3.2h.1l-.1 1.2h.2v1.3c-2.9 1-7.2 3.2-9.8 7.2-1.2 2-2.7 3.8-4.4 5.4-1.4 1.1-1.6 3.2-.5 4.5.8.4 1.1.7 1.5.9zm50.6-42.7c-.3-2.8.3-5.6 1.5-8.1h3c.1.7.2 1.4.4 2 .8 3.6-2.6 5.4-4.9 6.1z" fill="url(#a)"/><path d="m237.7 622.8 1.6 4.8-5.2 5.2-17.3 4-12.5-1.2.8-4.4c.5-1.9 2-3.5 4-3.9 5.2-1.2 14.9-4 17-7.8z" fill="#db8b8b"/><path d="m237.7 622.8 1.6 4.8-5.2 5.2-17.3 4-12.5-1.2.8-4.4c.5-1.9 2-3.5 4-3.9 5.2-1.2 14.9-4 17-7.8z" opacity=".1"/><path d="m208.3 634.5 2.4-3.2-2.4-3.7s-7.2 2.9-10.5 2.5-4.8 5.2 1.2 6.8 40.3 0 40.3 0 6-2.8 0-10.5l-5.2 4s-8.9 4.8-13.3 4z" fill="#2e3037"/><path d="m197.4 641.3 12.5 1.2 17.3-4 5.2-5.2-.4-1.3-.6-1.8-.6-1.8-11.7-3.3c-.6 1-1.4 1.8-2.4 2.4-3.8 2.6-10.6 4.5-14.6 5.4l-.5.1c-.8.3-1.5.7-2.1 1.2-.7.7-1.2 1.6-1.4 2.5z" fill="#db8b8b"/><path d="m197.4 641.3 12.5 1.2 17.3-4 5.2-5.2-.4-1.3-4.8 3.7s-8.9 4.8-13.3 4h-12.5l2.4-3.2-2.2-3.3c-.8.3-1.5.7-2.1 1.2-.7.7-1.2 1.6-1.4 2.5z" opacity=".1"/><path d="m201.5 640.1 2.4-3.2-2.4-3.7s-7.2 2.9-10.5 2.5-4.8 5.2 1.2 6.8 40.3 0 40.3 0 6-2.8 0-10.5l-5.2 4s-8.9 4.8-13.3 4z" fill="#2e3037"/><path d="m211.5 406.4s19.3 2 16.6-6c-.8-2.3-1-4.7-.6-7.1.5-3 1.7-5.8 3.4-8.2l-18.1 2.8c1.1 1.8 1.9 3.8 2.4 5.8 2.2 8.5-3.7 12.7-3.7 12.7z" fill="#db8b8b"/><path d="m244.5 498.3s-.4 17.3-4.4 25.8l-.9 24.6s1.2 22.6 3.6 27-5.2 41.9-5.2 41.9v6.5s-12.9 4.8-16.6-.8l3.7-48-1.6-66.5z" fill="#a5adac"/><path d="m244.5 498.3s-.4 17.3-4.4 25.8l-.9 24.6s1.2 22.6 3.6 27-5.2 41.9-5.2 41.9v6.5s-12.9 4.8-16.6-.8l3.7-48-1.6-66.5z" opacity=".1"/><path d="m252.6 442.6 2.4 6.5 2.1 13.7c.6 3.9-.8 7.8-3.6 10.5-4.8 4.8-11.3 14.9-11.3 14.9l-7.7-23s7.7-1.2 6.4-6.5-.8-14.9-.8-14.9z" fill="#ff7e61"/><path d="m252.6 442.6 2.4 6.5 2.1 13.7c.6 3.9-.8 7.8-3.6 10.5-4.8 4.8-11.3 14.9-11.3 14.9l-7.7-23s7.7-1.2 6.4-6.5-.8-14.9-.8-14.9z" opacity=".05"/><path d="m216.8 627.6c5.2 8.1 13.2 3.5 14.6 2.6l-.6-1.8-11.7-3.2c-.5 1-1.3 1.8-2.3 2.4z" opacity=".1"/><path d="m200.7 514c.4 5.6 7.2 26.2 7.2 26.2l4.8 16.9c3.5 12 5.3 24.3 5.3 36.8-.1 3.9.4 7.8 1.6 11.6 3.2 8.9-3.2 21-3.2 21 5.6 10.1 15.3 3.2 15.3 3.2v-6.5s7.7-35.1 5.6-41.9-2.8-25.4-2.8-25.4v-33.5c6.4-6.4 10.3-15 11-24.1.1-1.3.2-2.7.2-4.2.3-9.1-5.9-19.8-8.3-23.6-.6-.9-.9-1.4-.9-1.4l-35.5 14.3h-.1v4.4z" fill="#a5adac"/><path d="m212.8 387.9c1.1 1.8 1.9 3.8 2.4 5.8 4 1.5 8.4 1.4 12.3-.4.5-3 1.7-5.8 3.4-8.2z" opacity=".1"/><circle cx="220.8" cy="378.2" fill="#db8b8b" r="15.7"/><path d="m200.7 487.8h.2c16.9 3.5 38.1-14.1 38.1-14.1-.6-1-1.1-2-1.5-3-.6-.9-.9-1.4-.9-1.4l-35.6 14.1-.1 1.4z" opacity=".1"/><path d="m205.1 406s22.6-13.7 29.8-8.1l10 12.9s6.4 2 5.2 14.9l4.8 23.3-14.5 3.6s-8.6 8.1-1.7 19.8c0 0-21.4 17.7-38.3 14.1l1.2-18.9s3.6-10.5-2.8-20.1-.4-19 5.6-22.6c.3 0 3.1-15.3.7-18.9z" fill="#ff7e61"/><path d="m203.9 488.2s-8.5 1.6-12.5 8c-1.2 1.9-2.6 3.7-4.2 5.3-1.3 1.2-1.4 3.2-.2 4.5.2.2.5.4.7.6 3.2 1.9 8.4 3.1 15-2.3 11.3-9.3 1.2-16.1 1.2-16.1z" fill="#db8b8b"/><path d="m216.4 413.6s8.1-.8 10.1 20.1 5.2 25.8 5.2 25.8 2 10.9-2.8 17.3c-4.8 6.5-14.1 20.1-14.1 20.1s-10.1 2.8-12.1-7.2l12.5-23.4s2-8-2.8-13.7-8.5-43 4-39z" opacity=".1"/><path d="m215.6 412.5s8.1-.8 10.1 20.1 5.2 25.8 5.2 25.8 2 10.9-2.8 17.3-14.1 20.1-14.1 20.1-10.1 2.8-12.1-7.2l12.5-23.4s2-8.1-2.8-13.7-8.5-43.1 4-39z" fill="#ff7e61"/><path d="m208.9 427.5s-.8 12.5 2.8 19.4 3.6 15.7 0 20.6" opacity=".1"/><path d="m206.9 412.2s3.2-3.2 12.5-3.6 13.3-3.2 13.3-3.2" opacity=".1"/><path d="m229.3 357.9c2.4.3 5.2 1.1 6.1 3.5.2.9.4 1.8.5 2.7.9 3.5 4.9 5.2 7.3 7.9 2.2 2.4 3.1 5.6 3.8 8.7 2 9 2.5 18.2 1.4 27.4-.8 6.7-2.4 13.3-2.8 20s.4 13.8 4 19.4c1.6 2.4 3.7 4.6 4.8 7.2-2.3 1.9-5.5 2.1-8.5 2.2-3.4.1-6.9.1-10.4 0-1.8.1-3.6-.3-5.3-1.1-1.2-.8-2.1-1.8-2.8-3-2-3.4-2.5-7.4-2.4-11.3s.7-7.8.8-11.7c0-2.1-.1-4.4-1.4-6.1-1-1.2-2.1-2.2-3.4-3.1-4.3-3.8-5.8-10-5.9-15.7s.8-11.5.3-17.3c-.2-2.2-1-5-3.2-5.4-.7 0-1.4-.1-2.1-.3-1.8-.7-1.6-3.2-2.1-5-.6-2.1-2.3-3.6-2.8-5.7-1.2-4.9 5-10.7 9.1-12.4s10.7-1.5 15-.9z" opacity=".1"/><path d="m229.7 357.1c2.4.3 5.2 1.1 6.1 3.4.2.9.4 1.8.6 2.7.9 3.5 4.9 5.2 7.3 7.9 2.2 2.4 3.1 5.6 3.8 8.7 2 9 2.5 18.2 1.5 27.4-.8 6.7-2.4 13.3-2.9 20s.4 13.8 4 19.4c1.6 2.4 3.6 4.6 4.8 7.2-2.3 1.9-5.5 2.1-8.5 2.2-3.5.1-6.9.1-10.4 0-1.8.1-3.6-.3-5.3-1.1-1.2-.7-2.1-1.8-2.8-3-2-3.4-2.5-7.4-2.4-11.3s.7-7.8.8-11.7c0-2.1-.1-4.4-1.3-6.1-1-1.2-2.1-2.2-3.4-3.1-4.3-3.8-5.8-9.9-5.9-15.7s.8-11.5.3-17.3c-.2-2.2-1-4.9-3.2-5.4-.7 0-1.4-.1-2.1-.3-1.8-.7-1.6-3.2-2.1-5-.6-2.1-2.3-3.6-2.8-5.7-1.2-4.9 5-10.7 9.1-12.4s10.5-1.3 14.8-.8z" fill="#472727"/><g fill="#7a3fd8"><ellipse cx="102.6" cy="679.5" opacity=".15" rx="45.2" ry="6.7"/><ellipse cx="257.2" cy="706.5" opacity=".15" rx="45.2" ry="6.7"/><ellipse cx="762.9" cy="608.3" opacity=".15" rx="59.2" ry="6.6"/></g><path d="m451 384-118.8 27c-17.1 0-30.9-13.8-30.9-30.9v-187.9c0-17.1 13.8-30.9 30.9-30.9l118.8-27c17.1 0 30.9 13.8 30.9 30.9v187.9c0 17.1-13.8 30.9-30.9 30.9z" fill="#fff"/><path d="m473.5 254.4v-83.2c0-17.1-13.8-30.9-30.9-30.9l-103.1 27c-17.1 0-30.9 13.8-30.9 30.9v95.8z" fill="#7ece83" opacity=".5"/><path d="m318.2 228.5 101.5-27v14.8l-101.6 27z" fill="#fff"/><path d="m318.2 254.3 85.5-27v14.9l-85.6 27z" fill="#fff"/><path d="m978.4 547.8s-129.3-62.2-129.3-82.3v-221.5c0-20.1-2.4-43.8 24.9-32.8 0 0 131.1 58.1 131.1 78.2v221.4c0 20.1-11.9 36.7-26.7 37z" opacity=".2"/><path d="m971.8 544s-129.3-62.2-129.3-82.3v-221.5c0-20.1-2.4-43.8 24.9-32.8 0 0 131.1 58.1 131.1 78.2v221.5c0 20.1-12 36.7-26.7 36.9z" fill="#fff"/><path d="m991.2 419.5v-126.6c0-20.1-122.5-79.3-122.5-79.3-24.2-12.3-20 13.5-20 33.6v98z" fill="#ff7e61" opacity=".5"/><path d="m857 282.7 87.7 46.7v17.5l-87.7-46.7z" fill="#fff"/><path d="m857 316.2 73.9 35.2v17.5l-73.9-35.2z" fill="#fff"/><ellipse cx="538.9" cy="524.7" fill="#7a3fd8" opacity=".15" rx="94" ry="16.1"/><path d="m520 307.4c-.5 1-.8 2-1 3.1-.1.3-.1.5-.2.8-.6 3.1-1 6.9-1.2 9.1-.1 1.1-.2 1.8-.2 1.8s-21.7-1.5-17.9-5.1c1-1 1.7-2.2 2-3.6.1-.4.2-.8.3-1.2.2-.9.3-1.8.4-2.8v-.5c.1-1.5 0-3-.2-4.5 0 0 7 0 12.4.6 3.5.4 6.3 1.1 5.6 2.3z" fill="#d38884"/><path d="m482.4 410.6c-7.4-.2-2-15.6-1.1-17.7s-1.3-7.1-1.3-7.1-2.5-14.7-2.5-15.6c-.1-2-.4-4-.8-5.9-.3-2 .1-4 1-5.8.9-1.3.7-6.7.7-6.7v-6.9l1.6-2.2 4.2 4 1.2 1.1 2.1 7.7-.7 11.1-.4 10.8 2.5 14.9c0-.1.9 18.6-6.5 18.3z" fill="#d38884"/><path d="m484.7 348.5-6.3-2.6v-1l1.7-2.2 4.2 4z" opacity=".1"/><path d="m481.8 332.7c-.8 2-1.4 4.1-1.8 6.2-.3 2-.9 4-1.7 5.9l7 2.9z" fill="#505656"/><path d="m481.8 332.7c-.8 2-1.4 4.1-1.8 6.2-.3 2-.9 4-1.7 5.9l7 2.9z" opacity=".05"/><path d="m537.6 485.7-.6 1.3s-.6 4.1-.6 4.2-1.8 2.8-1.8 2.8l-4.6 1-1.9-.2c-.1-1.1-.3-2.3-.5-3.4-.1-.3-.1-.6-.2-1-.7-2.6-1.8-5-3.2-7.2 0 0-3.4-8.4-4.6-9.5s-5.8-12.1-5.3-14.8c.3-1.5 0-6.4-.2-10.4-.2-3.3-.4-6.1-.4-6.1l11.5-6.8 1.3 2.1.8 1.2v.6.1c-.1 1.7-.5 3.4-1 5 0 0-.9 6.2 0 7.3s3.6 15.7 4.2 22.4v.6c.2 3.1 2.2 5.9 4.1 7.9.1.1.2.3.4.4.7 1 1.6 1.8 2.6 2.5z" fill="#d38884"/><path d="m528 494.8 2 .2 4.6-1s1.8-2.8 1.8-2.8.6-4.2.6-4.2l.6-1.2.1-.2c-1.1-.8-2.2-1.6-3.1-2.6l-.3-.3c-.1-.1.7 4-2.8 5.8-1.7.9-3.1 1.5-4 2z" opacity=".1"/><path d="m538.4 486.3-.7 1.4s-.6 4.1-.6 4.2-1.8 2.8-1.8 2.8l-4.6 1-2.6-.3c0-.7-.1-1.5-.2-2.2-.1-.5-.2-1.2-.3-1.8 1-.5 2.5-1.2 4.5-2.2 3.5-1.8 2.8-5.8 2.8-5.8.8.7 1.6 1.5 2.4 2.1z" fill="#ceddf9"/><path d="m538.4 486.3-.7 1.4s-.6 4.1-.6 4.2-1.8 2.8-1.8 2.8l-4.6 1-2.6-.3c0-.7-.1-1.5-.2-2.2.6 0 1.1.1 1.7.2 0 0 6.2 1.3 6.5-3.6.2-2.8.8-3.9 1.2-4.3z" opacity=".1"/><path d="m537.9 486s-1.5-.3-1.9 4.6-6.5 3.6-6.5 3.6-3.1-.8-3.1.5c.1 1.2.4 2.3.8 3.4 0 0 .2 2.9.8 3.6s.2 3.3.2 3.3.2 1.9 5.1 0c0 0 4.3-.9 7.9-6.2.1-.2-.4-.7 2.7-1.8s12-8.3 11.4-11.8c-.1-1.2-1-2.2-2.1-2.5-.9-.2-1.9-.1-2.8.4-.8.5-1.7.9-2.6 1.2-1.2.5-2.4.8-3.7.9-1 .1-1.9.3-2.9.5-1.1.4-2.2.5-3.3.3z" fill="#ff7e61"/><path d="m502.6 452c-.7.6-1.3 1.2-1.8 2-1.8 2.7-2.8 6.5-4 8.1-1.5 2.1-2 6.2-2 6.2-.4 2.7-6.1 17-7.6 19.5s-3.7 9.5-3.7 9.5c-1.3 1.6-1.2 4.1-1.1 5.2 0 .2 0 .3.1.5v.2.1l-2.1 3.6-6.7-.9-3.5-2.3c.3-.5.5-.9.8-1.4 1.8-4.1 3.1-11.5 3.1-11.5s1.9-8.4 1.7-10.4c0-2.7.2-5.3.5-8 0 0 5.3-16 6.9-18.6.7-1 1.1-2.2 1.3-3.5 0-.2 0-.5 0-.8l2.3-2.2c.1-.2 18.7 2.4 15.8 4.7z" fill="#d38884"/><path d="m482.5 502.5v.8l-2.1 3.6-6.7-.9-3.5-2.3c.3-.5.5-.9.8-1.4 1.7-.5 5.5.9 5.5.9s4.2.6 6-.7z" opacity=".1"/><path d="m480.9 512-6.8 1.6-6.2-4.6.3-2.6c.4-.3.8-.6 1.1-1 .5-.5.8-1.2.9-1.9.4-1.9 6.3.2 6.3.2s4.3.8 6-.5c-.1 1.3 0 2.5.3 3.7.2.6.5 1.1 1 1.5 1.8 1.2-2.9 3.6-2.9 3.6z" fill="#ceddf9"/><path d="m480.9 512-6.8 1.6-6.2-4.6.3-2.6c.4-.3.8-.6 1.1-1h1.4c1 .1 3.5 4.5 3.5 4.5 6.1.4 8-1.6 8.6-3.1.2.6.5 1.1 1 1.5 1.8 1.3-2.9 3.7-2.9 3.7z" opacity=".1"/><path d="m474.2 510.7s-2.5-4.5-3.5-4.5c-.9 0-1.8 0-2.6 0 0 0-2.7 6.5-3.7 7s-2.5 3.6-2.5 3.6 7.2 7 14.2 5.6c2.2 0 4.4.6 6.4 1.6 3.2 1.7 16.7.4 18.3-2.5 1.2-2.2 1.7-3.8.6-5-.7-.7-1.6-1-2.5-.9-1.7.2-5.5.2-8.8-3.9 0 0-6.1-5.6-6.6-5.6s.3 5.3-9.3 4.6z" fill="#ff7e61"/><path d="m527.2 439.7c-.4.5-3.4 3.8-4.3 4-1.5.6-2.9 1.2-4.3 1.9 0 0-1.8 2.4-3.3 2.5-.4.1-.9.2-1.3.3-.2-3.3-.4-6.1-.4-6.1l11.5-6.8 1.3 2.1c.4 1 .7 1.8.8 2.1z" opacity=".1"/><path d="m485.4 392.9s-4.5 5.8 0 13.6c2.4 4.4 5.5 8.3 9.2 11.6l15.3 31.6s4-2.2 5.5-2.3 3.3-2.5 3.3-2.5c1.4-.7 2.9-1.4 4.3-1.9 1-.2 4.3-4 4.3-4s-1.7-3.6-1.3-4.6-1.1-3.4-1.1-3.4c-.5-1.2-.8-2.5-1-3.8 0-1-1.6-3.3-1.6-3.3s-1.6-2.4-1.6-3.8-2.3-6.6-2.3-6.6l-.6-23z" fill="#ceddf9"/><path d="m527.2 439s-3.4 3.8-4.3 4c-1.5.6-2.9 1.2-4.4 1.9 0 0-1.8 2.4-3.3 2.5-1 .2-2.1.6-3 1.1-1.3.6-2.5 1.2-2.5 1.2l-15.3-31.6c-1.3-1.2-2.6-2.4-3.7-3.8-2.1-2.4-3.9-5.1-5.5-7.8-1.7-2.8-2.4-6.2-1.7-9.4.3-1.5.9-2.9 1.7-4.1l10.9-.8 21.6-1.5.2 6.8.4 16.2.8 1.9c.7 1.5 1.2 3.1 1.5 4.7 0 1.3 1.6 3.8 1.6 3.8s1.6 2.3 1.6 3.3c.2 1.3.5 2.5 1 3.8 0 0 1.5 2.4 1.1 3.4s1.3 4.4 1.3 4.4z" opacity=".05"/><path d="m502.6 452c-.7.6-1.3 1.2-1.8 2-6.6.5-14.2-3-16.2-3.9 0-.2 0-.5 0-.8l2.3-2.2s18.6 2.6 15.7 4.9z" opacity=".1"/><path d="m522 400.1s-1 3.4-1.3 4.8-1.1 8.6-1.1 8.6l-.4 2-6.9 33-1.5 7.2c-2.7 1.5-9.3-2.4-9.3-2.4-7.8.9-17.3-4.1-17.3-4.1s1.6-5.1 1.2-7.6 2.2-4.6 2.2-4.6c-.6-2.3 1.6-12.4 1.6-12.4s.5-3.8 2.3-4.7-.2-2.4-.7-3.3c-.2-.7-.1-1.5.2-2.2.2-.6.4-1.1.6-1.6-4.6-4.6-5.3-11.8-5.3-15.9 0-1 0-2 .1-2.9l10-1.8 21.9-3.8 2.2 6.9.6 1.7z" fill="#ceddf9"/><path d="m520 307.4c-.5 1-.8 2-1 3.1-.1.3-.1.5-.2.8-2.1 1.4-3.4 1.4-6.1 1.4-.9 0-1.5-1.8-2.3-2 0 0-1.3-4.8-1.7-.8-2.5-.5-4.7 1.5-6.5-.3v-.6c.1-1.5 0-3-.2-4.5 0 0 7 0 12.4.6 3.5.4 6.3 1.1 5.6 2.3z" opacity=".1"/><path d="m525 299.3c0 7.5-6.1 13.5-13.5 13.5-.9 0-1.8-.1-2.7-.3-7.3-1.5-12-8.6-10.5-15.9s8.6-12 15.9-10.5c3.8.8 7.1 3.2 9 6.6 1.2 1.9 1.8 4.2 1.8 6.6z" fill="#d38884"/><path d="m517.6 320.5c-.1 1.1-.2 1.8-.2 1.8s-21.7-1.5-17.9-5.1c1-1 1.7-2.2 2-3.6l9.4 1.5s2.7 2.1 4.7 4c.6.6 1.3 1 2 1.4z" opacity=".1"/><path d="m520.8 397.6c-1 .1-1.9.1-2.8-.2-.4-.1-.8-.3-1.2-.5-1.8-1.1-7.9.2-7.9.2s-16.5 1.1-17.2 0c-.4-.6-3.3-.5-5.7-.4-1 .1-1.8.2-2.5.2.3-1.5.9-2.9 1.7-4.1l10.9-.8 21.8-3.8 2.2 6.9c.3.9.5 1.7.7 2.5z" opacity=".1"/><path d="m510.9 315.9-11.8-1.9c-.4.9-1.2 1.6-2.2 1.9-1.6.4-8.6 4-11.8 8.4l-3.2 4.4s-2.5 3.1-1.7 5.7 1.8 11.1 1.8 11.1l1.2 9.6s2.3 6.9 1.6 9.9.4 15.8.4 15.8l-2.4 15.8s8.2-1.1 9 0 17.2 0 17.2 0 6-1.3 7.9-.2c1.2.7 2.6.9 4 .7 0 0-1.5-5-.6-7.8s.6-7.9.6-7.9 1.2-7.4.6-8.7 1.3-6.2 1.3-6.2l6.4-33.8s-.8-6.1-4.2-8.1-7.3-2.7-9.4-4.6-4.7-4.1-4.7-4.1z" fill="#505656"/><path d="m516.4 349.2v4l3.7 10.1 1.3 9.3s2.4 6.7 2.4 9 5.9 13.5 5.9 13.5 1.6 3.8.8 4.5-7.8 16.7 1 16.2 6.1-17.2 6.1-17.2l-1.2-7.3s-1.7-18.2-1.7-19.5c0 0-2.2-7.8-2.4-9.5s-1.8-10.3-1.8-10.3l-1.3-5.6z" fill="#d38884"/><path d="m512.1 361.8-13.1 7.6-4.1 6.1 5.4-5.5z" opacity=".1"/><path d="m508.1 376.3s-6 3.9-8.8 3.9-9.4 6.7-9.4 6.7 9.3-6 10-5.8 8.2-4.8 8.2-4.8z" opacity=".1"/><path d="m492.8 378.4s-5.6 5.1-4.2 5.6 9-5.6 9-5.6z" opacity=".1"/><path d="m517.7 360.2s-4.3 5.9-3.2 5.8 4.5-3.5 4.5-3.5z" opacity=".1"/><path d="m518.3 366s-4.7 5.4-4.5 6.7 4.5-6.7 4.5-6.7z" opacity=".1"/><path d="m519.5 368.7s-3.2 5.7-1.8 6.9 1.8-6.9 1.8-6.9z" opacity=".1"/><path d="m515.4 354.1s-2.4 4-.7 4.3 1.9 0 1.9 0z" opacity=".1"/><path d="m516 339.5c-.6 2.4-1.4 4.8-2.4 7.1-.4-1.2-.7-2.4-.9-3.6.9-1.3 2.1-2.5 3.3-3.5z" opacity=".1"/><path d="m523.2 292.6c-.2.5-.5 1-.9 1.4-.6.6-1.2 1.2-1.6 1.9-.4 1-.6 2.1-.6 3.2-.2 1.1-.9 2.3-2 2.3-.6 0-1.1-.2-1.6-.5s-1.1-.3-1.6 0c-.3.3-.5.8-.5 1.2-.1.9-.2 1.9-.2 2.8 0 .4 0 .8.1 1.1.3 1.2.2 2.4-.2 3.6-.5.8-1.3 1.5-2.2 1.8-1 .4-2.1.7-3.1.9-2.1.3-4.1.3-6.2.2-.2 0-.4 0-.6-.1-.1 0-.2-.1-.2-.1.2-1.1.4-2.3.4-3.5-5.3-5.2-5.5-13.7-.3-19.1s13.7-5.5 19.1-.3c.8 1.1 1.6 2.1 2.2 3.2z" opacity=".1"/><path d="m517.6 281.2c-1.2-.1-2.4.5-3.6.8-2.5.5-5.1-.6-7.6-.6-2.2.1-4.4.8-6.3 1.9-1.6.7-3 1.7-4.2 2.9s-1.9 2.9-2 4.6c.2 1 .1 2-.1 3-.3.5-.6 1-.9 1.4-.6 1-.8 2.3-.4 3.5.5 1.1 1.2 2.2 2.1 3.1 1.6 2.1 2.7 4.7 4.2 6.9.6 1 1.4 1.9 2.2 2.8.1.2.3.3.5.4s.4.1.5.1c3.2.1 6.4.2 9.3-1.1.9-.3 1.7-1 2.2-1.8.4-1.2.5-2.4.2-3.6-.1-1.3-.1-2.7.1-4 0-.4.2-.9.5-1.2.5-.3 1.1-.3 1.6 0s1 .4 1.6.5c1.1 0 1.8-1.2 2-2.3-.2-2 .6-3.9 2.2-5.1 1.5-1.9 2-4.5 1.4-6.8-.8-2.3-3-5.1-5.5-5.4z" fill="#1e1637"/><path d="m530.6 338.6c-.3 1.7-.3 3.3 0 5-.1 1.3 0 8.7 0 8.7-4-1.2-14.2 1.2-14.2 1.2l-1.2-3.6c-.7-.9-1.2-1.9-1.5-3-.4-1.2-.7-2.4-.9-3.6-.5-2.5-.9-5.1-1.2-7.6-.5-3.9 5.2-8 9.6-10.3s8.1 7.5 8.1 7.5 1.7 3.8 1.3 5.7z" opacity=".1"/><path d="m530.6 337.9c-.3 1.7-.3 3.3 0 5-.1 1.3 0 8.7 0 8.7-4-1.2-14.2 1.2-14.2 1.2l-1.2-3.6c-.7-.9-1.2-1.9-1.5-3-.4-1.2-.7-2.4-.9-3.6-.5-2.5-.9-5-1.2-7.6-.5-3.9 5.2-8 9.6-10.3s8.1 7.5 8.1 7.5 1.7 3.8 1.3 5.7z" fill="#505656"/><path d="m522.9 286.5c-.2-.7-.5-1.3-.9-2 .1.2.1.3.2.5.7 2.4.1 4.9-1.4 6.8-1.6 1.2-2.5 3.1-2.2 5.1-.2 1.1-.9 2.3-2 2.3-.6 0-1.1-.2-1.6-.5s-1.1-.2-1.6 0c-.3.3-.5.7-.5 1.2-.2 1.3-.2 2.7-.1 4 .1 1.2.3 2.5-.2 3.6-.5.8-1.3 1.5-2.2 1.8-2.9 1.2-6.2 1.2-9.4 1.1-.4 0-.8-.2-1-.5-.8-.9-1.5-1.8-2.2-2.8-1.5-2.3-2.5-4.8-4.2-6.9-.5-.6-.9-1.1-1.4-1.8v.1c.5 1.1 1.2 2.2 2.1 3.1 1.7 2.1 2.7 4.7 4.2 6.9.7 1 1.4 1.9 2.2 2.8.1.2.3.3.5.4s.4.1.5.1c3.2.1 6.4.2 9.4-1.1.9-.3 1.7-1 2.2-1.8.4-1.2.5-2.4.2-3.6-.1-1.3-.1-2.7.1-4 0-.4.2-.9.5-1.2.5-.3 1.1-.3 1.6 0s1 .4 1.6.5c1.1 0 1.8-1.2 2-2.3 0-1.1.2-2.2.6-3.2.5-.7 1-1.3 1.6-1.9 1.5-1.8 2-4.3 1.4-6.7z" opacity=".2"/><path d="m620.4 289.1-8.7 18.4s-1.3 3.5-2.1 4.1-4.5 11.5-4.5 11.5l-9.3 14.3-.6 1-3.6-1-2.5-9.5.2-2.8v-.4s5.7-6 7-6.5c0 0 1 .1 2.9-4.5s3.6-5.6 3.6-5.6l1-3.4 10.7-17.1s9-12.9 11.5-7.2-5.6 8.7-5.6 8.7z" fill="#ffd2c6"/><path d="m584.5 419.6c0 .3-.1.6-.3.9-1 1.5-6.6 31.2-6.6 31.2.5 2-.8 6-1.7 7.8s-2.6 11.3-2.6 11.3-.5 20.4-1.6 23.5.4 10 .4 10c-.1 3.1 1.8 6.5 2.9 8.1l.2.3c.4.5.6.8.6.8.3.6.7 1.1 1.3 1.6l.3.2c1.5 1 3.3 1.8 5.1 2.2h.2c.7.2 1.2.2 1.2.2l.5 2.5-4.8 1-9.2.6s-10.8.8-8.4-4c.2-.3.3-.7.4-1 .1-.2.2-.5.2-.7 1.5-4.6.5-10.3.5-10.3l-2.1-16.4c-3.5-15.3 2.7-32.3 2.7-32.3s-.5-1.4.7-4.8 0-11 0-11-.6-9.7-1.5-14.5c-.3-2-.4-4.1-.3-6.1 0-1.2.2-2.4.3-3.6l20.7-2.8s1.1 3.3.9 5.3z" fill="#ffd2c6"/><path d="m584.2 520.1-4.8 1-9.2.6s-10.8.8-8.4-4c.2-.3.3-.7.4-1 .1-.2.2-.5.2-.7 1.9.1 3.7.4 5.5 1.1 3.1 1.2 5.4-1.9 5.4-1.9l1.5-2.9.2-.4c.4.5.6.8.6.8.4.7.9 1.3 1.5 1.8l-.3.5-1.5 3.1s1.8.2 4.4.6c1 .3 2.1-.3 2.4-1.3h.2c.7.2 1.2.2 1.2.2z" opacity=".1"/><path d="m588.7 522.4c-.4 1.6-10.5 2.1-10.5 2.1s-5.6-.5-7.2.8-6.2 1-6.4 1-2.6-.1-3.6-4.5 1.2-5 1.3-5.1c2 0 3.9.4 5.7 1.1 3.1 1.2 5.4-1.9 5.4-1.9l1.7-3.3c.4.5.6.8.6.8.4.7.9 1.3 1.5 1.8l-1.7 3.6s1.9.2 4.4.6c1.1.3 2.3-.4 2.5-1.6 0-.1 0-.3 0-.4s0-.2 0-.3c0 0 1.6.5 3.5 1 2 .6 3.1 2.4 2.8 4.3z" fill="#3ddbd4"/><path d="m607.7 441.2c-.2 1.5-.5 5.2-.5 5.2.8 3.1-1.3 10.6-1.3 10.6l-1.1 4.3c.5 5.5-3 18.8-3 18.8s-2.3 12.4-3.5 17.7c-.7 3-.5 6.1.6 8.9l.1.2c0 .1 0 .2.1.3 0 .1.1.3.1.4.3.7.7 1.4 1.2 2 .2.2.4.5.7.7 1.1 1 2.4 1.8 3.9 2.4l.6.2c.6.2 1.3.4 1.9.6h.2l-.5 2.9-6.4-1.7-8.6-2.8-4.2-2.3c0-.2.1-.5.1-.7v-.1c0-.2.1-.5.1-.7.7-3.8 2.3-14.2 1.5-22-1-9.6 3-22.8 3.9-25.9.6-1.8.8-3.7.7-5.6-1.6-2.3-1.9-11.5-1.9-11.5s-2.9-5.9-5.3-12.2c-.8-2.1-1.4-4.2-1.7-6.4-.3-1.5-.4-3.1-.3-4.6 0 0 19.5-17.8 21.7-.6.1.6.1 1.1.2 1.7 1.8 15.9 1 18.8.7 20.2z" fill="#ffd2c6"/><path d="m607.7 513.6-.5 2.9-6.4-1.7-8.6-2.8-4.2-2.4c0-.2.1-.5.1-.7v-.1c0-.2.1-.5.1-.7h.6c1.2-.1 2.5 0 3.6.5 1.4.5 3.2 1.1 3.6.9.6-.3 1.4-.4 2.1-.4l.9-2 .1-.3c.3.7.7 1.4 1.2 2 .2.3.4.5.7.7v.7 1c1 .6 2 1.1 3.1 1.4.3.1.6.1.9 0l.6.2c.6.2 1.3.4 1.9.6z" opacity=".1"/><path d="m604.5 519.8c-1.8-.5-6.1-1.3-6.8-.7s-6.7 0-6.7 0c-1.3 0-2.5-.7-3.1-1.8-1.2-1.9-.2-8.2-.2-8.2h.4l.7-.1c1.2-.1 2.4 0 3.6.5 1.4.5 3.2 1.1 3.6.9.6-.3 1.4-.4 2.1-.4l1-2.2c.3.7.7 1.4 1.2 2 .2.2.4.5.7.7l-.1 1.7c1 .6 2 1.1 3.1 1.4.5.2 1.2 0 1.5-.5.1-.1.1-.2.1-.2.8.4 1.7.7 2.5.8 2.3-.2 4.5 1.3 5 3.6 1 2.7-6.8 3-8.6 2.5z" fill="#3ddbd4"/><path d="m584.5 419.6-1.1.3c-.9.3-1.8.4-2.7.6-5.7.8-15.2.3-18.2.1 0-1.2.2-2.4.3-3.6l20.7-2.8c.1.1 1.2 3.4 1 5.4z" opacity=".1"/><path d="m602.6 414.5s-7.6 1.2-13.8 2.5c-2.1.5-4 .9-5.4 1.4-.9.3-1.8.4-2.7.6-6.9 1-19.1.1-19.1.1-3.4-10.9 4.1-24.6 4.1-24.6-.2-1.1 1.5-4.4 1.5-4.4v-.1l1.1-3.9h28.2l.3 1.7.7 3.4 4.4 21.1z" fill="#3ddbd4"/><path d="m607 421.1-.2.1-3.3 1.5c-3.6 1.6-14.3 2-18 2-.3-1.5-.4-3.1-.3-4.6 0 0 19.5-17.8 21.7-.6-.1.5 0 1.1.1 1.6z" opacity=".1"/><path d="m607.4 419.5-.7.3-3.3 1.5c-3.6 1.7-14.7 2-18.2 2h-.9c-1.6 0-3.3-1.6-3.3-2 0-.2-.2-1.3-.3-2.2-.1-.7-.2-1.4-.2-1.4-3.8-1.6-7.5-3.5-11-5.7-2.8-1.9-2.1-15.3-1.5-22.1.2-2.3.4-3.9.4-3.9l28.6 1.7 4 .2 2.3.5.6.1s1.7 12 2.5 13 .3 4.4.2 6.3c0 .8-.1 1.6-.3 2.5 0 0 1.2 3.4.9 5.2-.3 1.3-.1 2.7.2 4z" fill="#3ddbd4"/><circle cx="576.8" cy="308.1" fill="#ffd2c6" r="11.7"/><path d="m571.1 313s.8 11.1-1.5 13.6c-2.6 2.6-5.3 5.1-8.2 7.4l1.8 7.5 10.3 1.2 12-12.8-2.7-3.3s-2.1-7.1-.4-10.6-11.3-3-11.3-3z" fill="#ffd2c6"/><path d="m595.9 337.4-.6 1-3.6-1-2.5-9.5.2-2.8.8-1.1s4 .1 3.8 3.7c-.3 3.3 1.5 8.5 1.9 9.7z" opacity=".1"/><path d="m603.8 390s-2.9.6-6.2 1.1-7.1.7-8.7-.3c-2.6-1.6-16.9-1.1-21-1h-.7l1.1-3.9h28.2l.3 1.7 4 .2 2.3.5c.5 1.1.7 1.7.7 1.7z" opacity=".1"/><path d="m589.3 324.8s4 .1 3.8 3.7 2.2 9.9 2.2 9.9l-.9 2.1s-1.3 5.1-.3 6.4 4.6 1.3 2.5 11.7c0 0-.5 7.8.6 10.4s1.1 8.6 2.7 11.2c1.5 2.7 2.8 5.5 3.8 8.5 0 0-11.8 2.6-14.9.8s-22.1-.9-22.1-.9.1-3.2 0-3.5c-.2-.8 0-1.6.5-2.3.6-.9 1.6-2.3 1.1-3.6s1.4-3.1.4-5.1-2.2-2.4-2-3.4c.1-1.3-.3-2.5-1.1-3.5-.7-.9-5.6-10.5-5.6-10.5l-.8-4.5s-6.3-4.6-6.2-6.8 2.4-5.2 2.4-5.2l6.1-6s3.4 3.6 6.6 2.4 10.3-7.3 10.3-7.3 2.5-1.4 2.7-2.4 1.7-.1 1.7-.1 2.3-1.2 2.7-.8c.8.4 1.6.7 2.5.8z" fill="#ffb866"/><path d="m555 343.7-2 1.5c-1.5 3.1-2.3 6.5-2.4 9.9-.5 5.2-1.3 10.3-2.5 15.3l-3.8 6.8s-6.3 13.2-7.1 16.7-4.5 9.4-4.5 9.4-12.6 11.4-3.8 13.4 9.1-9 9.1-9c1-1.1 1.8-2.4 2.4-3.8.4-1.5 11.5-21.3 11.5-21.3s3.9-5.3 3.1-8.1c0 0 5.1-12 5.1-15-.1-2.5-.4-5-.8-7.5l.8-6.3z" fill="#ffd2c6"/><path d="m581.1 368.7s-8.9 4.7-10.6 4.9 7.5-1 7.5-1z" opacity=".1"/><path d="m588.4 372.4s-11.8 4-17 3.3c0-.1 12.9 2.4 17-3.3z" opacity=".1"/><path d="m589.1 373.7s-10.6 6.7-16.9 5.6c0 0 14.6 2.9 16.9 1.4l-6.5-1.8c0-.1 7.2-3.9 6.5-5.2z" opacity=".1"/><path d="m576.9 287.5c-3.1-.8-6.4-.1-9 1.7-1.8 1.4-3 3.6-5.1 4.7-1.1.5-2.2.9-3.3 1.2-4.1 1.7-6.5 5.9-5.8 10.3.3 1.8 1.2 3.5 1.6 5.2.7 3.2.1 6.5-.7 9.6-2.2 8.8-5.6 17.2-10.1 25-.4.5-.5 1.1-.5 1.7.1.4.3.8.6 1.1 4.2 4.9 11 6.5 17.5 6.7 2.4.2 4.8-.2 6.9-1.1 1.3-.8 2.5-1.8 3.4-3.1 2.2-3.1 3.3-6.8 3.1-10.6-.2-3-1.2-6.1-.4-9.1.1-.4.3-.8.5-1.1.7-.7 1.8-.5 2.8-.6 2.7-.3 4.4-3.1 4.7-5.8s-.3-5.4-.4-8c0-3.5 1.1-7 3.2-9.9.9-1.2 2-2.4 2.3-4 .4-1.9-.7-3.3-1.7-4.8-1.5-2.4-2.2-5.1-4.5-6.9-1.5-1.1-3.3-1.8-5.1-2.2z" opacity=".1"/><path d="m576.1 286.8c-3.1-.8-6.3-.1-8.9 1.7-1.8 1.4-3 3.6-5.1 4.7-1.1.5-2.2.8-3.3 1.2-4.1 1.7-6.5 5.9-5.8 10.3.3 1.8 1.2 3.5 1.6 5.2.7 3.2.1 6.5-.7 9.6-2.2 8.7-5.6 17.1-10.1 25-.4.5-.5 1.1-.5 1.7.1.4.3.8.6 1.1 4.2 4.9 11 6.5 17.5 6.7 2.4.2 4.7-.2 6.9-1.1 1.3-.8 2.5-1.8 3.4-3.1 2.2-3.1 3.3-6.8 3.1-10.6-.2-3-1.2-6.1-.4-9.1.1-.4.3-.8.5-1.1.7-.7 1.8-.5 2.8-.6 2.7-.3 4.4-3.1 4.7-5.8s-.3-5.4-.4-8c0-3.5 1.1-7 3.2-9.9.9-1.2 2-2.4 2.3-4 .4-1.9-.7-3.3-1.7-4.8-1.5-2.4-2.2-5.1-4.5-6.9-1.5-1.1-3.3-1.9-5.2-2.2z" fill="#985c7e"/><path d="m572.2 400.4s2.3 10.9 6.2 13.9z" opacity=".1"/><g opacity=".1"><path d="m553.6 307.1c-.1-.4-.3-.9-.4-1.3.2.4.2.8.4 1.3z"/><path d="m586.8 297.6v1c-.3 1.5-1.4 2.7-2.3 4-2.1 2.9-3.2 6.3-3.2 9.9 0 2.7.7 5.4.4 8s-2 5.5-4.7 5.8c-1 .1-2.1-.1-2.8.6-.3.3-.5.7-.5 1.1-.8 3 .3 6 .4 9.1.2 3.8-.9 7.5-3.2 10.5-.9 1.3-2 2.3-3.4 3.1-2.2 1-4.5 1.4-6.9 1.1-6.3-.2-13-1.8-17.2-6.5-.1.3-.2.6-.1.9.1.4.3.8.6 1.1 4.2 4.9 11 6.5 17.5 6.7 2.4.2 4.8-.2 6.9-1.1 1.3-.8 2.5-1.8 3.4-3.1 2.2-3.1 3.3-6.8 3.1-10.6-.2-3-1.2-6.1-.4-9.1.1-.4.3-.8.5-1.1.7-.7 1.8-.5 2.8-.6 2.7-.3 4.4-3.1 4.7-5.8s-.3-5.4-.4-8c0-3.5 1.1-7 3.2-9.9.9-1.2 2-2.4 2.3-4 .1-1-.1-2.1-.7-3.1z"/></g></svg>