<svg viewBox="0 0 1212.4 92.1" xmlns="http://www.w3.org/2000/svg"><path d="m0 3.7a2.4 2.4 0 0 1 2.4-2.4h53a2.4 2.4 0 0 1 2.4 2.4v14a2.4 2.4 0 0 1 -2.4 2.4h-35.4v18.4h29.1a2.6 2.6 0 0 1 2.5 2.5v13.9a2.5 2.5 0 0 1 -2.5 2.4h-29.1v31.1a2.6 2.6 0 0 1 -2.5 2.5h-15.1a2.5 2.5 0 0 1 -2.4-2.5z" fill="#001e1d"/><path d="m196.6 0c12.8 0 22.2 4 30.9 11.9a2.4 2.4 0 0 1 .2 3.6l-10 10.4a2.4 2.4 0 0 1 -3.2 0 25.8 25.8 0 0 0 -17.3-6.6c-14.4 0-25.1 12.1-25.1 26.4s10.8 26 25.2 26a26.9 26.9 0 0 0 17.2-6.2 2.6 2.6 0 0 1 3.3.2l10 10.6a2.5 2.5 0 0 1 -.1 3.4 43.7 43.7 0 0 1 -31.1 12.4 46.1 46.1 0 1 1 0-92.1z" fill="#001e1d"/><path d="m243 3.7a2.5 2.5 0 0 1 2.5-2.4h15.3a2.4 2.4 0 0 1 2.4 2.4v84.7a2.5 2.5 0 0 1 -2.4 2.5h-15.3a2.6 2.6 0 0 1 -2.5-2.5z" fill="#001e1d"/><path d="m285.3 3.7a2.4 2.4 0 0 1 2.4-2.4h15.2a2.5 2.5 0 0 1 2.5 2.4v68.4h30.4a2.4 2.4 0 0 1 2.4 2.4v13.9a2.5 2.5 0 0 1 -2.4 2.5h-48.1a2.5 2.5 0 0 1 -2.4-2.5z" fill="#001e1d"/><path d="m350.7 3.7a2.4 2.4 0 0 1 2.4-2.4h15.3a2.5 2.5 0 0 1 2.5 2.4v84.7a2.6 2.6 0 0 1 -2.5 2.5h-15.3a2.5 2.5 0 0 1 -2.4-2.5z" fill="#001e1d"/><path d="m404.4 20.1h-18.3a2.4 2.4 0 0 1 -2.4-2.4v-14a2.4 2.4 0 0 1 2.4-2.4h56.8a2.5 2.5 0 0 1 2.5 2.4v14a2.5 2.5 0 0 1 -2.5 2.4h-18.3v68.3a2.5 2.5 0 0 1 -2.4 2.5h-15.4a2.6 2.6 0 0 1 -2.4-2.5z" fill="#001e1d"/><path d="m554.5 20.1h-18.3a2.4 2.4 0 0 1 -2.4-2.4v-14a2.4 2.4 0 0 1 2.4-2.4h56.8a2.5 2.5 0 0 1 2.5 2.4v14a2.5 2.5 0 0 1 -2.5 2.4h-18.3v68.3a2.5 2.5 0 0 1 -2.4 2.5h-15.3a2.6 2.6 0 0 1 -2.5-2.5z" fill="#001e1d"/><path d="m693.1 3.7a2.4 2.4 0 0 1 2.4-2.4h38.3a27.8 27.8 0 0 1 27.9 27.6c0 11.8-7.8 21.3-18.9 25.7l17.5 32.6a2.4 2.4 0 0 1 -2.2 3.7h-17a2.3 2.3 0 0 1 -2-1.2l-17.1-33.9h-8.8v32.6a2.5 2.5 0 0 1 -2.4 2.5h-15.3a2.5 2.5 0 0 1 -2.4-2.5zm39.1 35.8c5.2 0 9.7-4.8 9.7-10.2a9.8 9.8 0 0 0 -9.7-9.7h-19v19.9z" fill="#001e1d"/><rect fill="#3ddbd4" height="90.05" rx="12.6" width="70" x="70.5" y="1.8"/><rect fill="#7ece83" height="90.05" rx="12.6" width="70" x="454.6" y="1.6"/><rect fill="#ffb866" height="90.05" rx="12.6" width="70" x="609.2" y="1.1"/><g fill="#fff"><path d="m494.5 52.6a1.5 1.5 0 0 1 -1.3-.7 1.6 1.6 0 0 1 .3-2.3c3.5-2.7 5.1-5.3 5.1-8.2 0-4.6-4-8.4-9-8.4a8.7 8.7 0 0 0 -8.9 8.4c0 2.9 1.6 5.5 5.1 8.2a1.7 1.7 0 0 1 .3 2.3 1.7 1.7 0 0 1 -2.4.3c-4.3-3.3-6.4-6.8-6.4-10.8a12.1 12.1 0 0 1 12.3-11.8c6.8 0 12.4 5.3 12.4 11.8 0 4-2.1 7.5-6.4 10.8a1.5 1.5 0 0 1 -1.1.4z"/><path d="m491.5 63.6h-3.7a1.6 1.6 0 0 1 -1.3-.6l-3.1-3.7a1.7 1.7 0 0 1 -.3-1v-7.4a1.7 1.7 0 0 1 1.6-1.7h9.8a1.7 1.7 0 0 1 1.7 1.7v7.4a1.3 1.3 0 0 1 -.4 1l-3 3.7a1.6 1.6 0 0 1 -1.3.6zm-2.9-3.3h2.1l2.2-2.6v-5.1h-6.5v5.1z"/><path d="m494.5 58.1h-9.8a1.6 1.6 0 0 1 -1.6-1.7 1.7 1.7 0 0 1 1.6-1.7h9.8a1.7 1.7 0 0 1 1.7 1.7 1.6 1.6 0 0 1 -1.7 1.7z"/><path d="m485 42.8a1.7 1.7 0 0 1 -1.7-1.6 6 6 0 0 1 6.1-5.9 1.6 1.6 0 0 1 1.7 1.7 1.6 1.6 0 0 1 -1.7 1.6 2.7 2.7 0 0 0 -2.7 2.6 1.7 1.7 0 0 1 -1.7 1.6z"/><path d="m659.4 42.7h-30.3a1.6 1.6 0 0 1 -1.7-1.6 1.6 1.6 0 0 1 1.7-1.7h30.3a1.7 1.7 0 0 1 1.7 1.7 1.7 1.7 0 0 1 -1.7 1.6z"/><path d="m644.2 61a1.6 1.6 0 0 1 -1.3-.6l-15.1-18.3a1.8 1.8 0 0 1 -.1-2.1l6.4-8.2a1.6 1.6 0 0 1 1.3-.6h17.7a1.6 1.6 0 0 1 1.3.6l6.3 8.2a1.7 1.7 0 0 1 0 2.1l-15.2 18.3a1.6 1.6 0 0 1 -1.3.6zm-13-20 13 15.7 13-15.7-5-6.5h-16z"/><path d="m644.2 61a1.7 1.7 0 0 1 -1.6-1.1l-6.3-18.3a1.6 1.6 0 0 1 .3-1.6l6.3-8.2a1.6 1.6 0 0 1 1.3-.6 2 2 0 0 1 1.4.6l6.3 8.2a1.8 1.8 0 0 1 .2 1.6l-6.3 18.3a1.6 1.6 0 0 1 -1.6 1.1zm-4.4-19.6 4.4 12.8 4.5-12.8-4.5-5.8z"/><path d="m105.5 61.5a2.1 2.1 0 0 1 -1.2-.5l-11.5-11.6a1.6 1.6 0 0 1 0-2.4 1.8 1.8 0 0 1 2.4 0l10.3 10.4 10.4-10.4a1.7 1.7 0 0 1 2.4 2.4l-11.6 11.6a1.8 1.8 0 0 1 -1.2.5z"/><path d="m94 49.9a1.7 1.7 0 0 1 -1.2-.5l-1.5-1.4a9.9 9.9 0 0 1 0-14 9.9 9.9 0 0 1 14 0l1.4 1.5a1.6 1.6 0 0 1 0 2.4 1.8 1.8 0 0 1 -2.4 0l-1.4-1.5a6.5 6.5 0 0 0 -9.2 9.2l1.5 1.4a1.8 1.8 0 0 1 0 2.4 2.1 2.1 0 0 1 -1.2.5z"/><path d="m117.1 49.9a1.7 1.7 0 0 1 -1.2-.5 1.6 1.6 0 0 1 0-2.4l1.4-1.4a6.6 6.6 0 0 0 0-9.2 6.5 6.5 0 0 0 -9.1 0l-1.5 1.5a1.7 1.7 0 1 1 -2.4-2.4l1.5-1.5a9.9 9.9 0 0 1 6.9-2.9 10.1 10.1 0 0 1 7 2.9 9.9 9.9 0 0 1 0 14l-1.4 1.4a2.1 2.1 0 0 1 -1.2.5z"/><path d="m117.7 48.1h-5.8a1.8 1.8 0 0 1 -1.5-1l-1-2.3-1.1 2.3a1.5 1.5 0 0 1 -1.5 1h-2.6a1.6 1.6 0 0 1 -1.3-.6l-1.2-1.6-1.3 1.6a1.6 1.6 0 0 1 -1.3.6h-5.8a1.6 1.6 0 0 1 -1.6-1.6 1.6 1.6 0 0 1 1.6-1.7h5l2.1-2.6a1.7 1.7 0 0 1 2.6 0l2 2.6h.7l2.1-4.8a1.8 1.8 0 0 1 1.6-1 1.8 1.8 0 0 1 1.5 1l2.1 4.8h4.7a1.7 1.7 0 0 1 1.7 1.7 1.7 1.7 0 0 1 -1.7 1.6z"/></g><path d="m846.8 0c12.8 0 22.3 4 31 11.9a2.5 2.5 0 0 1 .1 3.6l-10 10.4a2.4 2.4 0 0 1 -3.2 0 25.7 25.7 0 0 0 -17.2-6.6c-14.5 0-25.1 12.1-25.1 26.4s10.7 26 25.2 26a26.8 26.8 0 0 0 17.1-6.2 2.7 2.7 0 0 1 3.4.2l9.9 10.6a2.5 2.5 0 0 1 -.1 3.4 43.7 43.7 0 0 1 -31.1 12.4 46.1 46.1 0 1 1 0-92.1z" fill="#001e1d"/><path d="m978.1 3.7a2.4 2.4 0 0 1 2.5-2.4h38.2a27.8 27.8 0 0 1 27.9 27.6c0 11.8-7.8 21.3-18.9 25.7l17.5 32.6a2.4 2.4 0 0 1 -2.2 3.7h-17a2.3 2.3 0 0 1 -2-1.2l-17.1-33.9h-8.8v32.6a2.5 2.5 0 0 1 -2.4 2.5h-15.2a2.5 2.5 0 0 1 -2.5-2.5zm39.1 35.8c5.2 0 9.7-4.8 9.7-10.2a9.8 9.8 0 0 0 -9.7-9.7h-19v19.9z" fill="#001e1d"/><path d="m1063.9 3.7a2.3 2.3 0 0 1 2.3-2.4h31.2c24.7 0 44.9 20.1 44.9 44.6a45 45 0 0 1 -44.9 45h-31.2a2.4 2.4 0 0 1 -2.3-2.5zm32.2 68.2c14.5 0 25-11.4 25-26s-10.5-25.8-25-25.8h-12.3v51.8z" fill="#001e1d"/><path d="m1152.8 78.7 6-10.6c1.1-1.7 3.5-1.4 4.4-.8s9.7 7.1 18.2 7.1c5.1 0 8.8-3.2 8.8-7.7s-4.5-9.5-13.2-12.9c-11-4.4-24.8-13-24.8-28.3 0-12.7 9.8-25.5 29.5-25.5 13.3 0 23.6 6.8 27.4 9.6 1.6.9 1.3 3.2.8 4.1l-6.5 9.8c-.9 1.5-3.2 2.6-4.4 1.7s-10.5-7.7-18.3-7.7c-4.6 0-8.1 3.1-8.1 6.6s3.9 8.3 14 12.4 25.8 11.7 25.8 29.2c0 13.1-11.3 26.4-30.2 26.4-16.6 0-25.8-6.9-28.7-9.8-1.3-1.3-1.7-1.8-.7-3.6z" fill="#001e1d"/><rect fill="#ff7e61" height="90.05" rx="12.6" width="70" x="893.2" y="1.1"/><path d="m933.9 62.9a1.6 1.6 0 0 1 -1.3-.6l-14.5-17.7a1.5 1.5 0 0 1 -.2-1.7 1.8 1.8 0 0 1 1.5-1h3.1l-4.6-10.3a1.5 1.5 0 0 1 .1-1.6 1.7 1.7 0 0 1 1.4-.7h13.3a1.7 1.7 0 0 1 1.6 1.2l4.4 15.8a2.1 2.1 0 0 1 -.3 1.5 1.6 1.6 0 0 1 -1.3.6h-3.7l2.2 12.6a1.7 1.7 0 0 1 -1 1.8zm-10.9-17.6 8.2 10-1.5-8.3a1.8 1.8 0 0 1 .4-1.3 1.6 1.6 0 0 1 1.3-.6h3.5l-3.5-12.5h-9.4l4.6 10.3a1.5 1.5 0 0 1 -.1 1.6 1.6 1.6 0 0 1 -1.4.8z" fill="#fff"/></svg>