<svg xmlns="http://www.w3.org/2000/svg" viewBox="0 0 1212.4 92.1"><path d="M0,3.7A2.4,2.4,0,0,1,2.4,1.3h53a2.4,2.4,0,0,1,2.4,2.4v14a2.4,2.4,0,0,1-2.4,2.4H20V38.5H49.1A2.6,2.6,0,0,1,51.6,41V54.9a2.5,2.5,0,0,1-2.5,2.4H20V88.4a2.6,2.6,0,0,1-2.5,2.5H2.4A2.5,2.5,0,0,1,0,88.4Z" style="fill:#001e1d"/><path d="M196.6,0c12.8,0,22.2,4,30.9,11.9a2.4,2.4,0,0,1,.2,3.6l-10,10.4a2.4,2.4,0,0,1-3.2,0,25.8,25.8,0,0,0-17.3-6.6c-14.4,0-25.1,12.1-25.1,26.4s10.8,26,25.2,26a26.9,26.9,0,0,0,17.2-6.2,2.6,2.6,0,0,1,3.3.2l10,10.6a2.5,2.5,0,0,1-.1,3.4,43.7,43.7,0,0,1-31.1,12.4,46.1,46.1,0,1,1,0-92.1Z" style="fill:#001e1d"/><path d="M243,3.7a2.5,2.5,0,0,1,2.5-2.4h15.3a2.4,2.4,0,0,1,2.4,2.4V88.4a2.5,2.5,0,0,1-2.4,2.5H245.5a2.6,2.6,0,0,1-2.5-2.5Z" style="fill:#001e1d"/><path d="M285.3,3.7a2.4,2.4,0,0,1,2.4-2.4h15.2a2.5,2.5,0,0,1,2.5,2.4V72.1h30.4a2.4,2.4,0,0,1,2.4,2.4V88.4a2.5,2.5,0,0,1-2.4,2.5H287.7a2.5,2.5,0,0,1-2.4-2.5Z" style="fill:#001e1d"/><path d="M350.7,3.7a2.4,2.4,0,0,1,2.4-2.4h15.3a2.5,2.5,0,0,1,2.5,2.4V88.4a2.6,2.6,0,0,1-2.5,2.5H353.1a2.5,2.5,0,0,1-2.4-2.5Z" style="fill:#001e1d"/><path d="M404.4,20.1H386.1a2.4,2.4,0,0,1-2.4-2.4V3.7a2.4,2.4,0,0,1,2.4-2.4h56.8a2.5,2.5,0,0,1,2.5,2.4v14a2.5,2.5,0,0,1-2.5,2.4H424.6V88.4a2.5,2.5,0,0,1-2.4,2.5H406.8a2.6,2.6,0,0,1-2.4-2.5Z" style="fill:#001e1d"/><path d="M554.5,20.1H536.2a2.4,2.4,0,0,1-2.4-2.4V3.7a2.4,2.4,0,0,1,2.4-2.4H593a2.5,2.5,0,0,1,2.5,2.4v14a2.5,2.5,0,0,1-2.5,2.4H574.7V88.4a2.5,2.5,0,0,1-2.4,2.5H557a2.6,2.6,0,0,1-2.5-2.5Z" style="fill:#001e1d"/><path d="M693.1,3.7a2.4,2.4,0,0,1,2.4-2.4h38.3a27.8,27.8,0,0,1,27.9,27.6c0,11.8-7.8,21.3-18.9,25.7l17.5,32.6a2.4,2.4,0,0,1-2.2,3.7h-17a2.3,2.3,0,0,1-2-1.2L722,55.8h-8.8V88.4a2.5,2.5,0,0,1-2.4,2.5H695.5a2.5,2.5,0,0,1-2.4-2.5Zm39.1,35.8c5.2,0,9.7-4.8,9.7-10.2a9.8,9.8,0,0,0-9.7-9.7h-19V39.5Z" style="fill:#001e1d"/><rect x="70.5" y="1.8" width="70" height="90.05" rx="12.6" style="fill:#3ddbd4"/><rect x="454.6" y="1.6" width="70" height="90.05" rx="12.6" style="fill:#7ece83"/><rect x="609.2" y="1.1" width="70" height="90.05" rx="12.6" style="fill:#ffb866"/><path d="M494.5,52.6a1.5,1.5,0,0,1-1.3-.7,1.6,1.6,0,0,1,.3-2.3c3.5-2.7,5.1-5.3,5.1-8.2,0-4.6-4-8.4-9-8.4a8.7,8.7,0,0,0-8.9,8.4c0,2.9,1.6,5.5,5.1,8.2a1.7,1.7,0,0,1,.3,2.3,1.7,1.7,0,0,1-2.4.3c-4.3-3.3-6.4-6.8-6.4-10.8a12.1,12.1,0,0,1,12.3-11.8c6.8,0,12.4,5.3,12.4,11.8,0,4-2.1,7.5-6.4,10.8A1.5,1.5,0,0,1,494.5,52.6Z" style="fill:#fff"/><path d="M491.5,63.6h-3.7a1.6,1.6,0,0,1-1.3-.6l-3.1-3.7a1.7,1.7,0,0,1-.3-1V50.9a1.7,1.7,0,0,1,1.6-1.7h9.8a1.7,1.7,0,0,1,1.7,1.7v7.4a1.3,1.3,0,0,1-.4,1l-3,3.7A1.6,1.6,0,0,1,491.5,63.6Zm-2.9-3.3h2.1l2.2-2.6V52.6h-6.5v5.1Z" style="fill:#fff"/><path d="M494.5,58.1h-9.8a1.6,1.6,0,0,1-1.6-1.7,1.7,1.7,0,0,1,1.6-1.7h9.8a1.7,1.7,0,0,1,1.7,1.7A1.6,1.6,0,0,1,494.5,58.1Z" style="fill:#fff"/><path d="M485,42.8a1.7,1.7,0,0,1-1.7-1.6,6,6,0,0,1,6.1-5.9,1.6,1.6,0,0,1,1.7,1.7,1.6,1.6,0,0,1-1.7,1.6,2.7,2.7,0,0,0-2.7,2.6A1.7,1.7,0,0,1,485,42.8Z" style="fill:#fff"/><path d="M659.4,42.7H629.1a1.6,1.6,0,0,1-1.7-1.6,1.6,1.6,0,0,1,1.7-1.7h30.3a1.7,1.7,0,0,1,1.7,1.7A1.7,1.7,0,0,1,659.4,42.7Z" style="fill:#fff"/><path d="M644.2,61a1.6,1.6,0,0,1-1.3-.6L627.8,42.1a1.8,1.8,0,0,1-.1-2.1l6.4-8.2a1.6,1.6,0,0,1,1.3-.6h17.7a1.6,1.6,0,0,1,1.3.6l6.3,8.2a1.7,1.7,0,0,1,0,2.1L645.5,60.4A1.6,1.6,0,0,1,644.2,61Zm-13-20,13,15.7,13-15.7-5-6.5h-16Z" style="fill:#fff"/><path d="M644.2,61a1.7,1.7,0,0,1-1.6-1.1l-6.3-18.3a1.6,1.6,0,0,1,.3-1.6l6.3-8.2a1.6,1.6,0,0,1,1.3-.6,2,2,0,0,1,1.4.6l6.3,8.2a1.8,1.8,0,0,1,.2,1.6l-6.3,18.3A1.6,1.6,0,0,1,644.2,61Zm-4.4-19.6,4.4,12.8,4.5-12.8-4.5-5.8Z" style="fill:#fff"/><path d="M105.5,61.5a2.1,2.1,0,0,1-1.2-.5L92.8,49.4a1.6,1.6,0,0,1,0-2.4,1.8,1.8,0,0,1,2.4,0l10.3,10.4L115.9,47a1.7,1.7,0,0,1,2.4,2.4L106.7,61A1.8,1.8,0,0,1,105.5,61.5Z" style="fill:#fff"/><path d="M94,49.9a1.7,1.7,0,0,1-1.2-.5L91.3,48a9.9,9.9,0,0,1,0-14,9.9,9.9,0,0,1,14,0l1.4,1.5a1.6,1.6,0,0,1,0,2.4,1.8,1.8,0,0,1-2.4,0l-1.4-1.5a6.5,6.5,0,0,0-9.2,9.2L95.2,47a1.8,1.8,0,0,1,0,2.4A2.1,2.1,0,0,1,94,49.9Z" style="fill:#fff"/><path d="M117.1,49.9a1.7,1.7,0,0,1-1.2-.5,1.6,1.6,0,0,1,0-2.4l1.4-1.4a6.6,6.6,0,0,0,0-9.2,6.5,6.5,0,0,0-9.1,0l-1.5,1.5a1.7,1.7,0,1,1-2.4-2.4l1.5-1.5a9.9,9.9,0,0,1,6.9-2.9,10.1,10.1,0,0,1,7,2.9,9.9,9.9,0,0,1,0,14l-1.4,1.4A2.1,2.1,0,0,1,117.1,49.9Z" style="fill:#fff"/><path d="M117.7,48.1h-5.8a1.8,1.8,0,0,1-1.5-1l-1-2.3-1.1,2.3a1.5,1.5,0,0,1-1.5,1h-2.6a1.6,1.6,0,0,1-1.3-.6l-1.2-1.6-1.3,1.6a1.6,1.6,0,0,1-1.3.6H93.3a1.6,1.6,0,0,1-1.6-1.6,1.6,1.6,0,0,1,1.6-1.7h5l2.1-2.6a1.7,1.7,0,0,1,2.6,0l2,2.6h.7l2.1-4.8a1.8,1.8,0,0,1,1.6-1,1.8,1.8,0,0,1,1.5,1l2.1,4.8h4.7a1.7,1.7,0,0,1,1.7,1.7A1.7,1.7,0,0,1,117.7,48.1Z" style="fill:#fff"/><path d="M846.8,0c12.8,0,22.3,4,31,11.9a2.5,2.5,0,0,1,.1,3.6l-10,10.4a2.4,2.4,0,0,1-3.2,0,25.7,25.7,0,0,0-17.2-6.6c-14.5,0-25.1,12.1-25.1,26.4s10.7,26,25.2,26a26.8,26.8,0,0,0,17.1-6.2,2.7,2.7,0,0,1,3.4.2L878,76.3a2.5,2.5,0,0,1-.1,3.4,43.7,43.7,0,0,1-31.1,12.4,46.1,46.1,0,1,1,0-92.1Z" style="fill:#001e1d"/><path d="M978.1,3.7a2.4,2.4,0,0,1,2.5-2.4h38.2a27.8,27.8,0,0,1,27.9,27.6c0,11.8-7.8,21.3-18.9,25.7l17.5,32.6a2.4,2.4,0,0,1-2.2,3.7h-17a2.3,2.3,0,0,1-2-1.2L1007,55.8h-8.8V88.4a2.5,2.5,0,0,1-2.4,2.5H980.6a2.5,2.5,0,0,1-2.5-2.5Zm39.1,35.8c5.2,0,9.7-4.8,9.7-10.2a9.8,9.8,0,0,0-9.7-9.7h-19V39.5Z" style="fill:#001e1d"/><path d="M1063.9,3.7a2.3,2.3,0,0,1,2.3-2.4h31.2c24.7,0,44.9,20.1,44.9,44.6a45,45,0,0,1-44.9,45h-31.2a2.4,2.4,0,0,1-2.3-2.5Zm32.2,68.2c14.5,0,25-11.4,25-26s-10.5-25.8-25-25.8h-12.3V71.9Z" style="fill:#001e1d"/><path d="M1152.8,78.7l6-10.6c1.1-1.7,3.5-1.4,4.4-.8s9.7,7.1,18.2,7.1c5.1,0,8.8-3.2,8.8-7.7s-4.5-9.5-13.2-12.9c-11-4.4-24.8-13-24.8-28.3,0-12.7,9.8-25.5,29.5-25.5,13.3,0,23.6,6.8,27.4,9.6,1.6.9,1.3,3.2.8,4.1l-6.5,9.8c-.9,1.5-3.2,2.6-4.4,1.7s-10.5-7.7-18.3-7.7c-4.6,0-8.1,3.1-8.1,6.6s3.9,8.3,14,12.4,25.8,11.7,25.8,29.2c0,13.1-11.3,26.4-30.2,26.4-16.6,0-25.8-6.9-28.7-9.8C1152.2,81,1151.8,80.5,1152.8,78.7Z" style="fill:#001e1d"/><rect x="893.2" y="1.1" width="70" height="90.05" rx="12.6" style="fill:#ff7e61"/><path d="M933.9,62.9a1.6,1.6,0,0,1-1.3-.6L918.1,44.6a1.5,1.5,0,0,1-.2-1.7,1.8,1.8,0,0,1,1.5-1h3.1l-4.6-10.3A1.5,1.5,0,0,1,918,30a1.7,1.7,0,0,1,1.4-.7h13.3a1.7,1.7,0,0,1,1.6,1.2l4.4,15.8a2.1,2.1,0,0,1-.3,1.5,1.6,1.6,0,0,1-1.3.6h-3.7L935.6,61a1.7,1.7,0,0,1-1,1.8ZM923,45.3l8.2,10L929.7,47a1.8,1.8,0,0,1,.4-1.3,1.6,1.6,0,0,1,1.3-.6h3.5l-3.5-12.5H922l4.6,10.3a1.5,1.5,0,0,1-.1,1.6,1.6,1.6,0,0,1-1.4.8Z" style="fill:#fff"/></svg>