<?xml version="1.0" standalone="no"?>
<!DOCTYPE svg PUBLIC "-//W3C//DTD SVG 20010904//EN"
 "http://www.w3.org/TR/2001/REC-SVG-20010904/DTD/svg10.dtd">
<svg version="1.0" xmlns="http://www.w3.org/2000/svg"
 width="1000.000000pt" height="1000.000000pt" viewBox="0 0 1000.000000 1000.000000"
 preserveAspectRatio="xMidYMid meet">
<metadata>
Created by potrace 1.11, written by Peter Selinger 2001-2013
</metadata>
<g transform="translate(0.000000,1000.000000) scale(0.100000,-0.100000)"
fill="#000000" stroke="none">
<path d="M4235 8459 c-55 -10 -129 -21 -165 -24 -109 -11 -257 -44 -343 -77
-198 -75 -314 -112 -472 -150 -89 -21 -391 -68 -566 -87 -215 -24 -232 -27
-319 -52 -62 -18 -159 -71 -265 -145 -27 -19 -80 -51 -117 -70 -75 -38 -384
-136 -678 -214 -384 -102 -457 -131 -560 -226 -121 -113 -159 -285 -110 -502
21 -95 1261 -4731 1311 -4902 60 -204 143 -319 279 -384 114 -55 233 -67 375
-37 22 5 76 16 120 26 44 9 132 29 195 45 63 15 151 36 195 45 44 10 114 26
155 36 41 9 91 20 110 23 19 3 74 14 121 26 128 30 412 68 604 80 152 9 667 6
684 -4 3 -2 42 -7 86 -11 44 -3 91 -8 105 -10 24 -4 133 -15 195 -20 17 -1 71
-10 120 -19 50 -10 158 -28 240 -41 83 -13 160 -26 173 -29 12 -3 91 -21 175
-40 83 -19 163 -37 177 -40 14 -2 38 -9 54 -15 16 -7 35 -10 42 -7 8 3 16 1
19 -4 3 -5 12 -7 20 -3 8 3 15 0 15 -7 0 -7 7 -10 16 -6 9 3 21 3 27 -1 6 -4
25 -8 42 -10 16 -2 163 -38 325 -82 589 -157 755 -195 865 -198 275 -7 473
122 570 372 19 50 75 243 125 430 108 404 218 813 294 1095 30 113 98 367 151
565 115 431 343 1280 540 2015 255 948 248 920 249 1045 1 173 -46 296 -153
398 -111 106 -186 136 -704 278 -503 138 -508 140 -587 260 -77 116 -168 202
-265 248 -132 63 -211 76 -760 127 -74 7 -182 21 -255 33 -30 6 -84 15 -119
21 -68 12 -148 41 -191 71 -50 34 -211 100 -278 114 -110 23 -259 27 -515 14
-133 -6 -268 -11 -300 -10 -32 1 -64 -2 -71 -8 -7 -6 -79 -9 -187 -8 -164 2
-178 4 -249 30 -189 72 -335 84 -545 46z m2285 -3570 c1114 -298 2028 -544
2032 -548 10 -8 -666 -2524 -694 -2584 -30 -65 -105 -139 -174 -173 -46 -22
-75 -29 -143 -32 l-86 -4 -1050 282 c-577 155 -1354 363 -1725 462 -487 130
-691 189 -733 211 -114 60 -186 176 -195 312 -4 67 13 133 338 1345 188 701
344 1278 346 1282 2 4 17 3 32 -2 15 -5 938 -253 2052 -551z m-2700 456 c471
-41 472 -41 466 -64 -3 -9 -30 -108 -60 -221 -30 -113 -96 -358 -146 -545
-293 -1094 -410 -1538 -421 -1599 -19 -109 -8 -278 23 -353 29 -69 72 -136
119 -182 l31 -31 -29 0 c-15 0 -116 9 -224 19 -165 15 -206 23 -252 44 -70 32
-145 101 -179 164 -58 106 -59 79 26 1048 42 484 95 1076 116 1315 22 239 40
438 40 443 0 4 19 6 43 2 23 -3 224 -21 447 -40z m-630 -275 c0 -6 -13 -162
-30 -348 -167 -1889 -176 -2018 -145 -2151 37 -155 147 -292 291 -362 76 -37
213 -79 257 -79 11 0 18 -2 15 -5 -2 -3 -160 -19 -349 -36 -369 -33 -416 -32
-499 11 -92 48 -169 136 -195 223 -10 33 -54 494 -120 1252 -57 660 -109 1250
-114 1310 -5 61 -7 113 -3 116 4 3 180 21 392 38 212 18 396 33 410 35 58 7
90 5 90 -4z m-901 -1402 c102 -1170 112 -1264 141 -1383 55 -222 199 -370 411
-424 l69 -17 -252 -68 c-234 -63 -259 -68 -326 -63 -130 10 -258 90 -312 197
-12 23 -174 612 -361 1309 -186 696 -341 1271 -343 1277 -3 7 85 35 232 74
300 80 635 168 642 169 3 1 47 -482 99 -1071z"/>
</g>
</svg>
