<?xml version="1.0" standalone="no"?>
<!DOCTYPE svg PUBLIC "-//W3C//DTD SVG 20010904//EN"
 "http://www.w3.org/TR/2001/REC-SVG-20010904/DTD/svg10.dtd">
<svg version="1.0" xmlns="http://www.w3.org/2000/svg"
 width="1000.000000pt" height="1000.000000pt" viewBox="0 0 1000.000000 1000.000000"
 preserveAspectRatio="xMidYMid meet">
<metadata>
Created by potrace 1.11, written by Peter Selinger 2001-2013
</metadata>
<g transform="translate(0.000000,1000.000000) scale(0.100000,-0.100000)"
fill="#000000" stroke="none">
<path d="M4415 8439 c-27 -4 -97 -14 -155 -23 -58 -9 -152 -23 -210 -31 -141
-19 -191 -32 -285 -70 -69 -29 -102 -42 -125 -50 -3 -1 -12 -4 -20 -7 -59 -22
-349 -99 -415 -110 -33 -5 -82 -14 -110 -18 -167 -30 -256 -42 -386 -55 -80
-7 -156 -16 -170 -19 -96 -20 -161 -39 -197 -56 -22 -11 -46 -20 -52 -20 -5 0
-10 -4 -10 -8 0 -4 -26 -23 -57 -42 -32 -18 -67 -41 -78 -50 -31 -26 -94 -60
-111 -60 -8 0 -14 -4 -14 -9 0 -12 -60 -33 -185 -66 -55 -15 -104 -30 -110
-35 -5 -4 -156 -46 -335 -94 -179 -47 -338 -93 -353 -101 -16 -8 -33 -15 -38
-15 -4 0 -34 -12 -66 -27 -85 -39 -203 -160 -232 -236 -12 -33 -24 -78 -27
-100 -9 -61 -6 -171 5 -200 5 -14 7 -27 5 -30 -7 -6 1322 -4971 1341 -5012 64
-139 69 -148 108 -188 15 -16 27 -33 27 -38 0 -5 6 -9 14 -9 8 0 16 -6 19 -12
3 -7 22 -22 43 -33 22 -10 47 -26 58 -35 10 -8 19 -13 20 -11 0 1 26 -4 56
-13 83 -23 200 -21 315 6 28 7 54 11 58 10 5 -1 84 18 177 43 93 25 179 45
192 45 13 0 44 7 71 15 26 8 100 23 165 35 64 11 151 29 192 39 99 24 193 41
257 45 28 2 56 7 63 11 6 4 39 8 73 10 34 2 85 7 112 10 60 8 567 10 750 2 72
-2 161 -10 198 -17 37 -7 76 -10 87 -7 11 3 20 1 20 -3 0 -5 16 -7 35 -6 19 2
35 -1 35 -6 0 -6 20 -8 45 -6 25 2 45 0 45 -3 0 -4 15 -7 33 -7 17 0 66 -7
107 -15 87 -18 189 -31 208 -28 7 1 28 -2 45 -8 18 -6 46 -13 62 -16 17 -3 59
-12 95 -20 36 -8 112 -24 170 -35 58 -12 113 -26 122 -31 10 -5 24 -6 33 -3 8
3 15 1 15 -6 0 -7 8 -9 21 -5 16 5 19 4 14 -5 -5 -9 -2 -10 14 -5 13 4 21 2
21 -5 0 -7 6 -10 14 -7 8 3 59 -6 113 -20 54 -14 117 -29 140 -34 69 -14 164
-39 181 -49 10 -5 78 -25 152 -43 74 -19 194 -49 265 -67 72 -19 164 -40 205
-48 41 -9 77 -19 80 -23 3 -5 14 -8 25 -9 11 0 72 -2 135 -5 133 -5 197 7 292
55 69 35 112 65 145 101 61 67 75 86 90 118 10 20 19 38 22 41 10 9 32 71 61
170 34 119 143 515 175 635 13 50 40 151 60 225 40 149 96 356 240 895 53 198
112 416 130 485 18 69 86 321 150 560 64 239 132 494 151 565 20 72 46 171 59
220 13 50 60 225 105 390 138 510 238 907 246 980 15 132 5 212 -41 320 -17
40 -104 165 -115 165 -3 0 -16 10 -30 23 -39 35 -106 76 -137 83 -15 4 -30 10
-33 14 -11 14 -171 63 -480 145 -179 47 -343 93 -365 102 -22 8 -47 16 -56 18
-48 10 -159 85 -159 107 0 41 -195 244 -263 274 -23 10 -44 22 -47 25 -8 12
-221 66 -260 66 -35 1 -363 34 -369 37 -4 3 -41 7 -82 10 -226 15 -474 62
-557 105 -179 91 -268 129 -322 137 -123 16 -314 21 -490 10 -80 -4 -194 -10
-255 -12 -60 -3 -130 -7 -155 -10 -200 -22 -313 -12 -435 41 -16 8 -43 17 -60
21 -16 4 -35 11 -41 16 -7 5 -28 9 -48 10 -20 1 -36 4 -36 8 0 8 -139 7 -205
-1z m2237 -3610 c1074 -287 1954 -524 1956 -525 8 -5 -683 -2554 -703 -2594
-33 -64 -103 -133 -172 -166 -45 -22 -74 -29 -142 -32 -86 -4 -87 -4 -1061
258 -536 144 -1312 352 -1725 462 -545 145 -766 208 -808 231 -114 60 -185
174 -194 312 -5 67 9 122 337 1345 188 701 344 1278 346 1282 2 3 51 -6 108
-22 57 -15 983 -263 2058 -551z m-2842 480 c421 -36 509 -45 516 -52 4 -4 -22
-108 -150 -582 -41 -155 -61 -229 -116 -435 -61 -227 -144 -536 -185 -690 -84
-311 -124 -471 -144 -570 -12 -58 -26 -123 -31 -145 -9 -42 -6 -179 4 -230 19
-87 94 -226 143 -265 15 -11 23 -23 20 -26 -3 -3 -103 3 -222 14 -201 18 -220
22 -279 51 -116 57 -198 174 -213 301 -4 36 142 1753 212 2490 8 85 15 161 15
167 0 9 13 11 43 8 23 -3 197 -19 387 -36z m-570 -288 c0 -10 -45 -531 -99
-1157 -55 -626 -98 -1159 -96 -1184 10 -170 54 -290 146 -395 42 -47 139 -113
203 -138 59 -22 197 -57 228 -57 12 0 19 -2 17 -5 -3 -2 -162 -18 -354 -35
-298 -27 -359 -30 -410 -20 -96 19 -170 65 -231 142 -70 90 -65 53 -179 1360
-57 662 -107 1239 -110 1283 -3 44 -8 96 -11 115 l-5 35 398 33 c219 19 407
35 418 36 62 9 85 6 85 -13z m-965 -686 c15 -170 40 -461 56 -645 16 -184 42
-490 59 -680 34 -396 66 -687 82 -745 5 -22 12 -51 15 -64 16 -92 119 -236
215 -302 66 -45 173 -89 215 -89 55 0 2 -18 -227 -80 -210 -56 -242 -62 -306
-58 -132 9 -269 98 -319 208 -11 24 -173 615 -360 1314 l-341 1271 141 38 c77
21 273 73 435 117 l295 78 7 -27 c4 -14 19 -165 33 -336z"/>
</g>
</svg>
