<svg xmlns="http://www.w3.org/2000/svg" viewBox="0 0 64 64"><defs><style>.cls-1{isolation:isolate;}.cls-2{opacity:0.2;mix-blend-mode:color-burn;}.cls-3{fill:none;stroke:#fff;stroke-linecap:round;stroke-linejoin:round;stroke-width:6px;}</style></defs><title>fcicons-close</title><g class="cls-1"><g id="lines"><path class="cls-2" d="M38.24,36,51,23.27A3,3,0,0,0,46.73,19L34,31.76,21.27,19A3,3,0,1,0,17,23.27L29.76,36,17,48.73a3,3,0,0,0,2.12,5.12A3,3,0,0,0,21.27,53L34,40.24,46.73,53A3,3,0,0,0,51,53a3,3,0,0,0,0-4.24Z"/><line class="cls-3" x1="46.85" y1="17.15" x2="17.15" y2="46.85"/><line class="cls-3" x1="17.15" y1="17.15" x2="46.85" y2="46.85"/></g></g></svg>