<svg xmlns="http://www.w3.org/2000/svg" viewBox="0 0 64 64"><defs><style>.cls-1{isolation:isolate;}.cls-2{opacity:0.2;mix-blend-mode:color-burn;}.cls-3{fill:none;stroke:#fff;stroke-linecap:round;stroke-linejoin:round;stroke-width:6px;}</style></defs><title>fcicons-ideation</title><g class="cls-1"><g id="lines"><polygon class="cls-2" points="23.27 39.64 40.73 39.64 40.73 51.65 35.27 59.29 28.73 59.29 23.27 52.74 23.27 39.64"/><path class="cls-3" d="M23.27,39.64C18,35.6,13,30.16,13,22.67c0-9.92,8.51-18,19-18s19,8,19,18c0,7.49-5,12.94-10.27,17"/><polygon class="cls-3" points="40.73 39.64 40.73 52.74 35.27 59.29 28.73 59.29 23.27 52.74 23.27 39.64 40.73 39.64"/><line class="cls-3" x1="23.27" y1="49.47" x2="40.73" y2="49.47"/><path class="cls-3" d="M23.72,22.27a7.71,7.71,0,0,1,7.92-7.49"/></g></g></svg>