<svg xmlns="http://www.w3.org/2000/svg" viewBox="0 0 64 64"><defs><style>.cls-1{isolation:isolate;}.cls-2{opacity:0.2;mix-blend-mode:color-burn;}.cls-3{fill:none;stroke:#fff;stroke-linecap:round;stroke-linejoin:round;stroke-width:6px;}</style></defs><title>fcicons-emotion</title><g class="cls-1"><g id="shadows"><polygon class="cls-2" points="9.15 32 20.58 32 25.15 26.29 29.71 32 33.14 32 38.85 22.86 42.28 32 55.99 32 32 55.99 9.15 32"/></g><g id="lines"><polyline class="cls-3" points="52.58 35.42 32 56 11.42 35.42"/><path class="cls-3" d="M11.42,35.42,8.84,32.84a14.56,14.56,0,0,1,0-20.58h0a14.57,14.57,0,0,1,20.59,0L32,14.84"/><path class="cls-3" d="M32,14.84l2.57-2.58a14.57,14.57,0,0,1,20.59,0h0a14.56,14.56,0,0,1,0,20.58l-2.58,2.58"/><polyline class="cls-3" points="53.71 32.27 43.42 32.27 38.85 21.99 34.28 32.27 29.71 32.27 25.15 26.56 20.58 32.27 10.29 32.27"/></g></g></svg>
