<svg xmlns="http://www.w3.org/2000/svg" viewBox="0 0 64 64"><title>fcicons-envelope</title><g style="isolation:isolate"><g id="shadows"><polygon points="5 51 26 33 32 38 59 15 59 51 5 51" style="opacity:0.2;mix-blend-mode:color-burn"/></g><g id="lines"><path d="M2.3,13.7c0,.1-.1.2-.1.3v.2a.4.4,0,0,1-.1.3v37a.4.4,0,0,1,.1.3.3.3,0,0,1,.1.2c0,.1.1.2.1.3a.4.4,0,0,1,.1.3.2.2,0,0,1,.2.2c.1.1.1.1.1.2h.1l.3.3h.2l.3.2h.2l.5.2H59.7l.5-.2h.2l.3-.2h.2l.3-.3h.1c0-.1,0-.1.1-.2a.2.2,0,0,1,.2-.2.4.4,0,0,1,.1-.3c0-.1.1-.2.1-.3a.3.3,0,0,1,.1-.2.4.4,0,0,1,.1-.3v-37a.4.4,0,0,1-.1-.3V14c0-.1-.1-.2-.1-.3a.4.4,0,0,1-.1-.3.2.2,0,0,1-.2-.2h-.2l-.2-.2-.2-.2-.3-.2H3.5l-.3.2-.2.2-.2.2H2.6a.2.2,0,0,1-.2.2A.4.4,0,0,1,2.3,13.7ZM56,44.5,42.6,33,56,21.5ZM30.1,40.3h0c.1.1.2.1.2.2l.4.2h2.6l.4-.2c0-.1.1-.1.2-.2h0l4-3.4L50.9,48H13.1l13-11.1ZM32,34.1,13.1,18H50.9ZM21.4,33,8,44.5v-23Z" style="fill:#fff"/></g></g></svg>