<svg xmlns="http://www.w3.org/2000/svg" viewBox="0 0 64 64"><title>fcicons-chevron-down</title><g style="isolation:isolate"><g id="shadows"><g style="opacity:0.2;mix-blend-mode:color-burn"><path d="M11.3,22.7a3.5,3.5,0,0,1,.8-2.2,3.2,3.2,0,0,1,4.3,0L36.9,41,55.6,22.3a3,3,0,0,1,4.3,0,3.1,3.1,0,0,1,0,4.2L39,47.4a3,3,0,0,1-4.3,0L12.1,24.8A3.4,3.4,0,0,1,11.3,22.7Z"/></g></g><g id="lines"><path d="M32.9,46.3a2.9,2.9,0,0,0,2.1-.9L55.9,24.6a3.2,3.2,0,0,0,0-4.3,3,3,0,0,0-4.3,0L32.9,39.1,12.4,18.6a3,3,0,0,0-4.3,0,3.1,3.1,0,0,0,0,4.2L30.7,45.4A3.1,3.1,0,0,0,32.9,46.3Z" style="fill:#fff"/></g></g></svg>