<svg xmlns="http://www.w3.org/2000/svg" viewBox="0 0 64 64"><title>fcicons-none</title><g style="isolation:isolate"><g id="shadows"><polygon points="49 19 18 50 21 52 51 21 49 19" style="opacity:0.2;mix-blend-mode:color-burn"/><path d="M45,15S31,9,20,19s-4,27-4,27S6,39,10,27,24,10,31,10,45,15,45,15Z" style="opacity:0.2;mix-blend-mode:color-burn"/><path d="M62,35A27,27,0,0,1,10.6,46.6l.4.4c6,6,20,13,29,10S56,47,57,35c.6-7.1-2.6-15.5-5.4-21.3A27.1,27.1,0,0,1,62,35Z" style="opacity:0.2;mix-blend-mode:color-burn"/></g><g id="lines"><path d="M59,32A27,27,0,1,0,32,59,27,27,0,0,0,59,32ZM32,11a21.4,21.4,0,0,1,12.6,4.2L15.2,44.6A21.4,21.4,0,0,1,11,32,21,21,0,0,1,32,11Zm0,42a21.4,21.4,0,0,1-12.6-4.2L48.8,19.4A21.4,21.4,0,0,1,53,32,21,21,0,0,1,32,53Z" style="fill:#fff"/></g></g></svg>