<svg xmlns="http://www.w3.org/2000/svg" viewBox="0 0 64 64"><title>fcicons-marker</title><g style="isolation:isolate"><g id="shadows"><polygon points="12.6 51.4 49.4 14.6 51.4 23 17.8 56.5 12.6 51.4" style="opacity:0.2;mix-blend-mode:color-burn"/></g><g id="lines"><path d="M61.2,4.9A2.8,2.8,0,0,0,58.5,3H56.6a2.9,2.9,0,0,0-2.1.9L52,6.3a3,3,0,0,0-3.9.3L45.8,9a11.5,11.5,0,0,0-10.4,3.1L3.4,44a3.2,3.2,0,0,0,0,4.3L15.3,60.1a2.9,2.9,0,0,0,4.2,0l32-31.9a11.8,11.8,0,0,0,3.1-10.4l2.3-2.4a2.9,2.9,0,0,0,.3-3.9l3.4-3.4A2.9,2.9,0,0,0,61.2,4.9Zm-14,19L17.4,53.8,9.8,46.1,39.6,16.3A5.3,5.3,0,0,1,44.9,15l3.7,3.6A5.3,5.3,0,0,1,47.2,23.9Z" style="fill:#fff"/></g></g></svg>