<svg xmlns="http://www.w3.org/2000/svg" viewBox="0 0 64 64"><title>fcicons-small-groups</title><g style="isolation:isolate"><g id="shadows"><path d="M55.8,30.9,45,26.6v1.1A15.2,15.2,0,0,1,29.8,42.8a15.4,15.4,0,0,1-4.3-.6l5.4,12.5S2.8,66.7,8.2,33.1l13.5,5.4A16.8,16.8,0,0,0,38.5,21.7L33.1,8.2C65.6,1.7,55.8,30.9,55.8,30.9Z" style="opacity:0.2;mix-blend-mode:color-burn"/></g><g id="lines"><path d="M22.3,61A19,19,0,0,0,32,58.4,20.1,20.1,0,0,0,41.7,61,19.4,19.4,0,0,0,61,41.7,20.1,20.1,0,0,0,58.4,32,19,19,0,0,0,61,22.3,19.4,19.4,0,0,0,41.7,3,19,19,0,0,0,32,5.6,20.1,20.1,0,0,0,22.3,3,19.4,19.4,0,0,0,3,22.3,20.1,20.1,0,0,0,5.6,32,19,19,0,0,0,3,41.7,19.4,19.4,0,0,0,22.3,61ZM9,41.7A15,15,0,0,1,9.8,37a19.2,19.2,0,0,0,12.5,4.6h.1A19.2,19.2,0,0,0,27,54.2a15,15,0,0,1-4.7.8A13.4,13.4,0,0,1,9,41.7ZM41.7,55A13.3,13.3,0,0,1,28.4,41.7V40.6A19,19,0,0,0,40.6,28.4h1.1a13.3,13.3,0,0,1,0,26.6ZM55,22.3a15,15,0,0,1-.8,4.7,19.2,19.2,0,0,0-12.5-4.6h-.1A19.2,19.2,0,0,0,37,9.8,15,15,0,0,1,41.7,9,13.4,13.4,0,0,1,55,22.3ZM22.3,9A13.3,13.3,0,1,1,9,22.3,13.3,13.3,0,0,1,22.3,9Z" style="fill:#fff"/></g></g></svg>