<svg xmlns="http://www.w3.org/2000/svg" viewBox="0 0 64 64"><defs><style>.cls-1{isolation:isolate;}.cls-2{opacity:0.2;mix-blend-mode:color-burn;}.cls-3{fill:none;stroke:#fff;stroke-linecap:round;stroke-linejoin:round;stroke-width:6px;}</style></defs><title>fcicons-hat</title><g class="cls-1"><g id="shadows"><ellipse class="cls-2" cx="32" cy="19" rx="13.5" ry="4.5"/><path class="cls-2" d="M34,29.5l-17-2v8c0,.33,17,1.66,17,2v11c0,4-5,9-10,7,0,0,21.76,4.49,24-7,.8-4.11-2.18-19.31-1-22C47,26.5,44,29.5,34,29.5Z"/></g><g id="lines"><path class="cls-3" d="M48,48c0,4.69-7.16,8.5-16,8.5S16,52.69,16,48"/><ellipse class="cls-3" cx="32" cy="18.5" rx="22.5" ry="11"/><line class="cls-3" x1="16" y1="48.5" x2="17" y2="27.5"/><line class="cls-3" x1="48" y1="48.5" x2="47" y2="27.5"/><path class="cls-3" d="M47,35.5a40.84,40.84,0,0,1-15,3,40.84,40.84,0,0,1-15-3"/><path class="cls-3" d="M21,18.5s2,2,11,2,11-2,11-2"/></g></g></svg>