<svg xmlns="http://www.w3.org/2000/svg" viewBox="0 0 64 64"><title>fcicons-map</title><g style="isolation:isolate"><g id="shadows"><polygon points="40 55.5 23 48.5 23 8.5 40 14.5 40 55.5" style="opacity:0.2;mix-blend-mode:color-burn"/></g><g id="lines"><path d="M59.8,6.1a2.7,2.7,0,0,0-2.7-.4L40,11.3,24,5.7H22l-17,6a2.9,2.9,0,0,0-2,2.8v41A3.1,3.1,0,0,0,4.3,58a3.4,3.4,0,0,0,1.7.5l1.1-.2L23,51.7l15.9,6.6h1.6a.1.1,0,0,1,.1-.1h.3l18-6A2.9,2.9,0,0,0,61,49.5V8.5A3,3,0,0,0,59.8,6.1ZM9,16.6l11-3.9V46.5L9,51Zm17-3.9,11,3.9V51L26,46.5ZM55,47.3l-12,4V16.7l12-4Z" style="fill:#fff"/></g></g></svg>