<svg xmlns="http://www.w3.org/2000/svg" viewBox="0 0 64 64"><title>fcicons-index-cards</title><g style="isolation:isolate"><g id="shadows"><polyline points="20.7 5.4 13.6 30.2 41.5 23.5 49.2 40.7 57.1 16.3 20.7 5.4" style="opacity:0.2;mix-blend-mode:color-burn"/></g><g id="lines"><path d="M16,45a3.1,3.1,0,0,1-2.9-2.2,3,3,0,0,1,2.1-3.7L36,33.5a2.9,2.9,0,0,1,3.7,2.1,3.1,3.1,0,0,1-2.1,3.7L16.8,44.9Z" style="fill:#fff"/><path d="M60.6,15.2a2.6,2.6,0,0,0-1.7-1.4L21.4,2.6a3.1,3.1,0,0,0-3.7,2L11,27.1a2.9,2.9,0,0,0,1.6,3.6L4.5,32.9a2.9,2.9,0,0,0-2.1,3.7L8.5,59.2a3.1,3.1,0,0,0,2.9,2.2h.8L49.9,51.1a2.8,2.8,0,0,0,1.8-1.4,3.1,3.1,0,0,0,.3-2.3L50.5,42h.8A3,3,0,0,0,54.2,40l6.7-22.5A3.1,3.1,0,0,0,60.6,15.2ZM13.5,54.7,8.9,37.9l14.6-4H24l16.9-4.6,4.5,16.9ZM49.3,35.5h-.6L45.9,24.8A3.2,3.2,0,0,0,44.5,23a3.1,3.1,0,0,0-2.3-.3L23,27.9,17.6,26l5-16.8,31.7,9.5Z" style="fill:#fff"/></g></g></svg>