<svg xmlns="http://www.w3.org/2000/svg" viewBox="0 0 64 64"><defs><style>.cls-1{isolation:isolate;}.cls-2{opacity:0.2;mix-blend-mode:color-burn;}.cls-3{fill:none;stroke:#fff;stroke-linecap:round;stroke-linejoin:round;stroke-width:6px;}</style></defs><title>fcicons-none</title><g class="cls-1"><g id="shadows"><polygon class="cls-2" points="49 19 18 50 21 52 51 21 49 19"/><path class="cls-2" d="M45,15S31,9,20,19s-4,27-4,27S6,39,10,27,24,10,31,10,45,15,45,15Z"/><path class="cls-2" d="M62,35A27,27,0,0,1,10.6,46.57,5.36,5.36,0,0,0,11,47c6,6,20,13,29,10S56,47,57,35c.59-7.06-2.64-15.52-5.39-21.27A26.91,26.91,0,0,1,62,35Z"/></g><g id="lines"><circle class="cls-3" cx="32" cy="32" r="24"/><line class="cls-3" x1="48.5" y1="15.5" x2="15.5" y2="48.5"/></g></g></svg>