<svg xmlns="http://www.w3.org/2000/svg" viewBox="0 0 64 64"><defs><style>.cls-1{isolation:isolate;}.cls-2{opacity:0.2;mix-blend-mode:color-burn;}.cls-3{fill:none;stroke:#fff;stroke-linecap:round;stroke-linejoin:round;stroke-width:6px;}</style></defs><title>fcicons-full-group</title><g class="cls-1"><g id="shadows"><path class="cls-2" d="M48.51,27.51l-.28-5.26h0A15.21,15.21,0,0,1,48.51,27.51Z"/><path class="cls-2" d="M49.31,42.83l-.8-15.32a15.21,15.21,0,0,0-.24-5.25C70.94,30.92,49.31,42.83,49.31,42.83Z"/><path class="cls-2" d="M48.51,27.51a20.85,20.85,0,0,1-.78,3.77L40.6,28.43a5.7,5.7,0,0,1,0,.72,10,10,0,0,1-9.94,9.94,9.7,9.7,0,0,1-2.81-.41L31.4,46.9S12.94,54.71,16.49,32.7l8.87,3.54a11,11,0,0,0,11-11l-3.55-8.87C43.5,14.23,47.22,18,48.27,22.26h0Z"/><path class="cls-2" d="M30.9,48.24l10.83,1.09c0,4.33-4.33,7.58-10.83,8.66s-9.75-7.58-9.75-7.58Z"/><path class="cls-2" d="M48.51,27.51l-.28-5.26h0A15.21,15.21,0,0,1,48.51,27.51Z"/></g><g id="lines"><path class="cls-3" d="M21,15.45a10.94,10.94,0,0,1,21.69.06"/><path class="cls-3" d="M36,27.79a10.78,10.78,0,0,1,2.29-.24,10.95,10.95,0,1,1-11,11,11.57,11.57,0,0,1,.24-2.3"/><path class="cls-3" d="M31.81,47.3A10.95,10.95,0,0,1,16.5,32"/><path class="cls-3" d="M31.81,16.69A10.95,10.95,0,0,1,47.12,32"/><circle class="cls-3" cx="25.31" cy="25.5" r="10.95"/><path class="cls-3" d="M48.49,21.47a10.94,10.94,0,0,1-.31,21.77"/><path class="cls-3" d="M42.65,48.54a10.94,10.94,0,0,1-21.68,0"/><path class="cls-3" d="M15.32,42.85a10.95,10.95,0,0,1-.06-21.7"/></g></g></svg>