<svg xmlns="http://www.w3.org/2000/svg" viewBox="0 0 64 64"><defs><style>.cls-1{isolation:isolate;}.cls-2{opacity:0.2;mix-blend-mode:color-burn;}.cls-3{fill:none;stroke:#fff;stroke-linecap:round;stroke-linejoin:round;stroke-width:6px;}</style></defs><title>fcicons-small-groups</title><g class="cls-1"><g id="shadows"><path class="cls-2" d="M55.83,30.92,45,26.57c0,.36,0,.73,0,1.1A15.2,15.2,0,0,1,25.54,42.22l5.38,12.53S2.75,66.67,8.17,33.08L21.71,38.5A16.79,16.79,0,0,0,38.5,21.71L33.08,8.17C65.58,1.67,55.83,30.92,55.83,30.92Z"/></g><g id="lines"><path class="cls-3" d="M38.27,25.73a16.67,16.67,0,0,1,3.42-.36A16.32,16.32,0,1,1,25.37,41.69a16.67,16.67,0,0,1,.36-3.42"/><path class="cls-3" d="M32,54.81A16.31,16.31,0,0,1,9.19,32"/><path class="cls-3" d="M32,9.19A16.31,16.31,0,0,1,54.81,32"/><circle class="cls-3" cx="22.31" cy="22.31" r="16.31"/></g></g></svg>