<svg xmlns="http://www.w3.org/2000/svg" viewBox="0 0 64 64"><title>fcicons-chevron-left</title><g style="isolation:isolate"><g id="shadows"><g style="opacity:0.2;mix-blend-mode:color-burn"><path d="M47.3,9.3a3.2,3.2,0,0,1,2.1.8,3,3,0,0,1,0,4.3L28.9,34.9,47.7,53.6a3,3,0,0,1,0,4.3,3.2,3.2,0,0,1-4.3,0L22.6,37a3,3,0,0,1,0-4.3L45.2,10.1A3.2,3.2,0,0,1,47.3,9.3Z"/></g></g><g id="lines"><path d="M45.4,8.1a3.1,3.1,0,0,0-4.2,0L18.6,30.7a3.1,3.1,0,0,0-.9,2.2,2.9,2.9,0,0,0,.9,2.1L39.4,55.9a3.5,3.5,0,0,0,2.2.8,3.4,3.4,0,0,0,2.1-.8,3,3,0,0,0,0-4.3L24.9,32.9,45.4,12.4A3,3,0,0,0,45.4,8.1Z" style="fill:#fff"/></g></g></svg>