<svg xmlns="http://www.w3.org/2000/svg" viewBox="0 0 64 64"><title>fcicons-close</title><g style="isolation:isolate"><g id="shadows"><line x1="39.3" y1="34.4" x2="54.7" y2="19" style="opacity:0.2;mix-blend-mode:color-burn"/><path d="M54.7,19a3.6,3.6,0,1,0-5.1-5.1L34.2,29.3,18.8,13.9A3.6,3.6,0,0,0,13.7,19L29.1,34.4,13.7,49.8A3.7,3.7,0,0,0,16.3,56a3.6,3.6,0,0,0,2.5-1.1L34.2,39.5,49.6,54.9A3.6,3.6,0,0,0,52.2,56a3.6,3.6,0,0,0,2.5-1.1,3.6,3.6,0,0,0,0-5.1L39.3,34.4" style="opacity:0.2;mix-blend-mode:color-burn"/></g><g id="lines"><path d="M51.9,11.5a3,3,0,0,0-4.3,0L31.8,27.3,16,11.5a3,3,0,0,0-4.3,0,2.9,2.9,0,0,0,0,4.2L27.5,31.6,11.7,47.4a3,3,0,0,0,0,4.3,3.4,3.4,0,0,0,2.1.8,3.5,3.5,0,0,0,2.2-.8L31.8,35.8,47.6,51.7a3.4,3.4,0,0,0,2.1.8,3.5,3.5,0,0,0,2.2-.8,3.2,3.2,0,0,0,0-4.3L36,31.6,51.9,15.7A3.1,3.1,0,0,0,51.9,11.5Z" style="fill:#fff"/></g></g></svg>