<svg xmlns="http://www.w3.org/2000/svg" viewBox="0 0 64 64"><defs><style>.cls-1{isolation:isolate;}.cls-2{opacity:0.2;mix-blend-mode:color-burn;}.cls-3{fill:none;stroke:#fff;stroke-linecap:round;stroke-linejoin:round;stroke-width:6px;}</style></defs><title>fcicons-writing-utensils</title><g class="cls-1"><g id="shadows"><polygon class="cls-2" points="9.63 54.32 47.77 16.18 46.45 10.92 55.66 6.97 51.72 18.81 13.58 58.26 9.63 54.32"/></g><g id="lines"><path class="cls-3" d="M2.38,30H56.93a0,0,0,0,1,0,0V40.55a0,0,0,0,1,0,0H2.38a2,2,0,0,1-2-2V32a2,2,0,0,1,2-2Z" transform="translate(-16.56 30.6) rotate(-45)"/><polyline class="cls-3" points="44.93 11.58 57.95 6 52.37 19.02"/><line class="cls-3" x1="12.38" y1="44.13" x2="19.82" y2="51.57"/></g></g></svg>