<svg xmlns="http://www.w3.org/2000/svg" viewBox="0 0 64 64"><defs><style>.cls-1{isolation:isolate;}.cls-2{opacity:0.2;mix-blend-mode:color-burn;}.cls-3{fill:none;stroke:#fff;stroke-linecap:round;stroke-linejoin:round;stroke-width:6px;}</style></defs><title>fcicons-blog</title><g class="cls-1"><g id="shadows"><path class="cls-2" d="M19,6H45a6,6,0,0,1,6,6V32a0,0,0,0,1,0,0H13a0,0,0,0,1,0,0V12A6,6,0,0,1,19,6Z"/></g><g id="lines"><rect class="cls-3" x="13" y="6" width="38" height="51.5" rx="6"/><line class="cls-3" x1="22" y1="32" x2="30" y2="32"/><line class="cls-3" x1="42" y1="19" x2="22" y2="19"/><line class="cls-3" x1="38" y1="32" x2="42" y2="32"/><line class="cls-3" x1="30" y1="41" x2="39" y2="41"/><line class="cls-3" x1="39" y1="49" x2="42" y2="49"/><line class="cls-3" x1="22" y1="49" x2="31" y2="49"/><line class="cls-3" x1="22" y1="41" x2="22" y2="41"/></g></g></svg>