<svg xmlns="http://www.w3.org/2000/svg" viewBox="0 0 64 64"><title>fcicons-flipchart</title><g style="isolation:isolate"><g id="shadows"><polygon points="45.3 7.8 45.3 51.4 13.8 51.4 13.8 56.2 50.2 56.2 50.2 6.6 45.3 7.8" style="opacity:0.2;mix-blend-mode:color-burn"/></g><g id="lines"><path d="M58,57.4a3,3,0,0,0-3-3h-.6V6.6a3,3,0,0,0-3-3H12.6a3,3,0,0,0-3,3V54.4H9a3,3,0,0,0-3,3,2.9,2.9,0,0,0,3,3H55A2.9,2.9,0,0,0,58,57.4Zm-42.4-3V9.6h8.6v.6a2.9,2.9,0,0,0,3,3h9.6a2.9,2.9,0,0,0,3-3V9.6h8.6V54.4Z" style="fill:#fff"/></g></g></svg>