<svg xmlns="http://www.w3.org/2000/svg" viewBox="0 0 64 64"><title>fcicons-pairs</title><g style="isolation:isolate"><g id="shadows"><path d="M33.8,9.8C34.2,24.1,23,32,9.8,33.7a18.5,18.5,0,0,0,13,5.2L38.9,24.4S36.7,11.3,33.8,9.8Z" style="opacity:0.2;mix-blend-mode:color-burn"/></g><g id="lines"><path d="M21.9,41.9h.2v.2a20,20,0,1,0,20-20h-.2v-.2a20,20,0,1,0-20,20Zm34.1.2a14,14,0,1,1-13.9-14A14,14,0,0,1,56,42.1ZM21.9,8a14,14,0,0,1,14,13.9,4.9,4.9,0,0,1-.1,1.2A20.1,20.1,0,0,0,23.1,35.8H21.9A14,14,0,0,1,21.9,8Z" style="fill:#fff"/></g></g></svg>