<svg xmlns="http://www.w3.org/2000/svg" viewBox="0 0 64 64"><title>fcicons-play-doh</title><g style="isolation:isolate"><g id="shadows"><path d="M14,16.4c10.6-3,22-3.4,35,0S2,19.9,14,16.4Z" style="opacity:0.2;mix-blend-mode:color-burn"/><polygon points="24 39 32 34 40 39 45 43 39 48 24 48 20 43 24 39" style="opacity:0.2;mix-blend-mode:color-burn"/><path d="M45,25c0,13,1,25-9,31l14-3,2-30Z" style="opacity:0.2;mix-blend-mode:color-burn"/></g><g id="lines"><path d="M32,6C27.7,6,6,6.4,6,15a4.7,4.7,0,0,0,.3,1.7A2.8,2.8,0,0,0,6,18a5.5,5.5,0,0,0,2.2,4.2l1.8,29v.2c.4,5.4,8.5,8.6,22,8.6s21.6-3.2,22-8.6v-.2l1.8-29A5.5,5.5,0,0,0,58,18a2.8,2.8,0,0,0-.3-1.3A4.7,4.7,0,0,0,58,15C58,6.4,36.3,6,32,6Zm0,6c10.2,0,16.9,1.7,19.3,3-2.4,1.3-9.1,3-19.3,3s-16.9-1.7-19.3-3C15.1,13.7,21.8,12,32,12ZM48,50.8c-.8,1.1-5.7,3.2-16,3.2s-15.2-2.1-16-3.2L14.4,25C21,26.8,29.5,27,32,27s11-.2,17.6-2Z" style="fill:#fff"/><path d="M24.7,35.9A7.6,7.6,0,0,0,19,43.4,7.4,7.4,0,0,0,26.2,51H37.8A7.4,7.4,0,0,0,45,43.4a7.6,7.6,0,0,0-5.7-7.5C38.2,33.8,36,32,32,32S25.8,33.8,24.7,35.9ZM34,38.8a2.5,2.5,0,0,0,.8,2.1,2.9,2.9,0,0,0,2.2.8h.8c.6,0,1.2.7,1.2,1.7A1.5,1.5,0,0,1,37.8,45H26.2A1.5,1.5,0,0,1,25,43.4c0-1,.6-1.7,1.2-1.7H27a2.9,2.9,0,0,0,2.2-.8,2.5,2.5,0,0,0,.8-2.1c.1-.7,1.3-.8,2-.8S33.9,38.1,34,38.8Z" style="fill:#fff"/></g></g></svg>