<svg xmlns="http://www.w3.org/2000/svg" viewBox="0 0 64 64"><defs><style>.cls-1{isolation:isolate;}.cls-2{opacity:0.2;mix-blend-mode:color-burn;}.cls-3{fill:none;stroke:#fff;stroke-linecap:round;stroke-linejoin:round;stroke-width:6px;}</style></defs><title>fcicons-hand</title><g class="cls-1"><g id="shadows"><path class="cls-2" d="M56.18,26s-.56-2.76-2.93.87c-3.27,5-9.47,17.38-17.89,22.34C20.85,57.76,20,54.82,20,54.82s6.64,4.43,9.58,3.56,14-3.08,16.65-4.93S57.82,35.1,56.18,26Z"/></g><g id="lines"><path class="cls-3" d="M54.33,23.35c-3.51-1.09-9.21,4.86-9.21,4.86l-2.9-9.8-2.17-7.34A4.59,4.59,0,0,0,34.33,8h0a4.59,4.59,0,0,0-3.1,5.71l5.08,17.14-6.53-22a4.6,4.6,0,0,0-5.71-3.1h0A4.6,4.6,0,0,0,21,11.39l6.52,22L22.42,16.29a4.59,4.59,0,0,0-5.71-3.1h0a4.58,4.58,0,0,0-3.1,5.71L18.68,36l-3-10.29a4.61,4.61,0,0,0-5.72-3.1h0a4.6,4.6,0,0,0-3.1,5.71l3.92,13.22c3.48,11.76,14.9,18,21.76,15.93l10.77-3.19c5.87-1.74,13.57-23.83,13.57-23.83C57.75,28.15,57.85,24.43,54.33,23.35Z"/></g></g></svg>