<svg xmlns="http://www.w3.org/2000/svg" viewBox="0 0 64 64"><title>fcicons-sticky-notes</title><g style="isolation:isolate"><g id="shadows"><polygon points="11 35.7 15.9 55.2 53.8 46.7 51.3 36.9 23.2 43 11 35.7" style="opacity:0.2;mix-blend-mode:color-burn"/></g><g id="lines"><path d="M63.3,32.9a3.1,3.1,0,0,0-3.7-2.1h0c-3.1.8-9.4-8.6-13.5-23.6a2.9,2.9,0,0,0-1.9-2,2.8,2.8,0,0,0-1.8-.1L4.7,15.4a3.3,3.3,0,0,0-2.2,2.5v.5h0c0,.2.1.4.1.6L12.9,56.8A3.1,3.1,0,0,0,15.8,59h.8L54.3,48.6a2.8,2.8,0,0,0,1.8-1.4,3.1,3.1,0,0,0,.3-2.3l-1.8-6.5,6.6-1.8h0A3.1,3.1,0,0,0,63.3,32.9ZM38.4,36.6c-6.2,1.7-8-3.7-8.3-4.7a3,3,0,0,0-2.3-2.2,3.2,3.2,0,0,0-3,1.1c-2.2,2.7-4.2,3.9-5.9,3.6-3.4-.8-6.9-6.8-9-12.5l-.6-1.5,31.9-8.7a87.5,87.5,0,0,0,4.3,11.4,36.9,36.9,0,0,0,6.2,9.8ZM27.8,39.5l-1.2.3a6.7,6.7,0,0,1-3.7,0,11.2,11.2,0,0,0,3.4-2.1Zm22,4.1L17.9,52.3,15.1,42c2.8,2.4,5.9,4.1,9.6,4.1a14.8,14.8,0,0,0,3.5-.5l20.6-5.7Z" style="fill:#fff"/></g></g></svg>