<svg xmlns="http://www.w3.org/2000/svg" viewBox="0 0 64 64"><defs><style>.cls-1{isolation:isolate;}.cls-2{opacity:0.2;mix-blend-mode:color-burn;}.cls-3{fill:none;stroke:#fff;stroke-linecap:round;stroke-linejoin:round;stroke-width:6px;}</style></defs><title>fcicons-play-doh</title><g class="cls-1"><g id="shadows"><path class="cls-2" d="M14,16.43c10.61-3,22-3.43,35,0S2,19.86,14,16.43Z"/><polygon class="cls-2" points="24 39 32 34 40 39 45 43 39 48 24 48 20 43 24 39"/><path class="cls-2" d="M45,25c0,13,1,25-9,31l14-3,2-30Z"/></g><g id="lines"><ellipse class="cls-3" cx="32" cy="15" rx="23" ry="6"/><path class="cls-3" d="M51,51c0,3.31-7.4,6-19,6s-19-2.69-19-6"/><line class="cls-3" x1="13" y1="51" x2="11" y2="18"/><line class="cls-3" x1="51" y1="51" x2="53" y2="18"/><path class="cls-3" d="M55,18c0,3.31-10.3,6-23,6S9,21.31,9,18"/><path class="cls-3" d="M37,38.71h.83A4.43,4.43,0,0,1,42,43.36h0A4.43,4.43,0,0,1,37.83,48H26.17A4.43,4.43,0,0,1,22,43.36h0a4.43,4.43,0,0,1,4.17-4.65H27S27,35,32,35,37,38.71,37,38.71Z"/></g></g></svg>