<svg xmlns="http://www.w3.org/2000/svg" viewBox="0 0 64 64"><defs><style>.cls-1{isolation:isolate;}.cls-2{opacity:0.2;mix-blend-mode:color-burn;}.cls-3{fill:none;stroke:#fff;stroke-linecap:round;stroke-linejoin:round;stroke-width:6px;}</style></defs><title>fcicons-reply</title><g class="cls-1"><g id="shadows"><path class="cls-2" d="M12,32,9,40l11-3s1-8,7-12,14.76-2.88,14.76-2.88c0-7.8-8-14.12-17.88-14.12S6,14.32,6,22.12a12.89,12.89,0,0,0,5.65,10.29"/></g><g id="lines"><path class="cls-3" d="M11.65,32.41A12.89,12.89,0,0,1,6,22.12C6,14.32,14,8,23.88,8s17.88,6.32,17.88,14.12"/><polyline class="cls-3" points="11.65 32.47 8.82 40 20 37"/><path class="cls-3" d="M52,47.94c3.69-2.74,6-6.63,6-10.94,0-8.28-8.51-15-19-15S20,28.72,20,37c0,7.75,7.45,14.13,17,14.92.66,0,1.32.08,2,.08"/><polyline class="cls-3" points="52 48 55 56 39 52"/></g></g></svg>