<svg id="fac-cards-illustration" xmlns="http://www.w3.org/2000/svg" xmlns:xlink="http://www.w3.org/1999/xlink" viewBox="0 0 1077.87 757.27"><defs><style>.cls-1{fill:#7a3fd8;opacity:0.15;}.cls-1,.cls-12,.cls-14,.cls-15,.cls-2,.cls-4,.cls-5,.cls-8{isolation:isolate;}.cls-2{opacity:0.2;}.cls-3{fill:#fff;}.cls-22,.cls-4{fill:#ffb866;}.cls-14,.cls-15,.cls-4,.cls-5{opacity:0.5;}.cls-21,.cls-5{fill:#3ddbd4;}.cls-6{fill:url(#linear-gradient);}.cls-7{fill:#db8b8b;}.cls-24,.cls-8{opacity:0.1;}.cls-9{fill:#2e3037;}.cls-10{fill:#a5adac;}.cls-11,.cls-15{fill:#ff7e61;}.cls-12{opacity:0.05;}.cls-13{fill:#472727;}.cls-14{fill:#7ece83;}.cls-16{fill:#d38884;}.cls-17{fill:#505656;}.cls-18{fill:#ceddf9;}.cls-19{fill:#1e1637;}.cls-20{fill:#ffd2c6;}.cls-23{fill:#985c7e;}</style><linearGradient id="linear-gradient" x1="2663.28" y1="764.94" x2="2663.28" y2="472.37" gradientTransform="matrix(-1, 0, 0, 1, 2884.94, -79.37)" gradientUnits="userSpaceOnUse"><stop offset="0" stop-color="gray" stop-opacity="0.25"/><stop offset="0.54" stop-color="gray" stop-opacity="0.12"/><stop offset="1" stop-color="gray" stop-opacity="0.1"/></linearGradient></defs><title>bg-gallery-cards</title><path class="cls-1" d="M567,190C413,175,354,61,219.32,49.28,154,41.81,43.48,72.63-2,125V578c-2.69,28.32,118.2,176,327,106s322-93,493-77,260-137,260-137l2-242s-66-66-184-74S721,205,567,190Z"/><path class="cls-2" d="M446,429.05l-118.76,27a30.91,30.91,0,0,1-30.91-30.91h0V237.22a30.91,30.91,0,0,1,30.91-30.91h0l118.76-27a30.91,30.91,0,0,1,30.91,30.91h0V398.14A30.91,30.91,0,0,1,446,429.05Z"/><path class="cls-2" d="M734,444.05l-118.76-21a30.91,30.91,0,0,1-30.91-30.91V204.22a30.91,30.91,0,0,1,30.91-30.91l118.76,21a30.91,30.91,0,0,1,30.91,30.91V413.14A30.91,30.91,0,0,1,734,444.05Z"/><path class="cls-3" d="M728,439.05l-118.76-21a30.91,30.91,0,0,1-30.91-30.91V199.22a30.91,30.91,0,0,1,30.91-30.91l118.76,21a30.91,30.91,0,0,1,30.91,30.91V408.14A30.91,30.91,0,0,1,728,439.05Z"/><path class="cls-4" d="M750.54,317.68l-.06-91.43a30.91,30.91,0,0,0-30.91-30.91l-103.15-21a30.89,30.89,0,0,0-30.9,30.9h0v83.16Z"/><polygon class="cls-3" points="595.23 235.47 696.74 256.47 696.74 271.32 595.12 250.32 595.23 235.47"/><polygon class="cls-3" points="595.21 261.31 680.68 282.31 680.68 297.17 595.12 276.17 595.21 261.31"/><path class="cls-2" d="M79.58,580.32c-15,0-27.23-15.38-27.23-34.36V337c0-19,131.9-90,131.9-90,15.05,0,27.24,15.38,27.24,34.36v209C211.49,509.34,79.58,580.32,79.58,580.32Z"/><path class="cls-3" d="M87,574.76c-15,0-27.23-15.38-27.23-34.36v-209c0-19,131.9-90,131.9-90,31-17.72,27.24,15.38,27.24,34.36v209C218.9,503.78,87,574.76,87,574.76Z"/><path class="cls-5" d="M213.82,370.76V283.13c0-19,5.28-52.84-20.26-36.11,0,0-127.47,72.15-127.47,91.15V458.81Z"/><polygon class="cls-3" points="74.65 371.74 164.11 316.14 164.11 332.66 74.56 388.26 74.65 371.74"/><polygon class="cls-3" points="74.64 415.22 149.97 359.62 149.97 376.14 74.56 431.74 74.64 415.22"/><ellipse class="cls-1" cx="228.61" cy="682.52" rx="59" ry="10.62"/><path class="cls-6" d="M186.33,546.11c3,1.77,7.67,2.92,13.56-.88l-.06,8.39c.42,5.77,7.54,26.74,7.54,26.74l5,17.27a134.8,134.8,0,0,1,5.52,37.54A36.12,36.12,0,0,0,219.52,647c2.67,7.25-1,16.57-2.67,20a82.78,82.78,0,0,1-8.28,2.33,5.94,5.94,0,0,0-.75.23v0s-7.53,3-10.89,2.58c-2.49-.32-4.06,2.8-2.07,5.09a15.21,15.21,0,0,1-5,.66c-3.35-.41-5,5.35,1.25,7s41.89,0,41.89,0a5.06,5.06,0,0,0,2.68-5.58c2.73-.1,4.44-.19,4.44-.19s6.28-2.88,0-10.69l-.33.26-1.35-4v-5.35s8-38.3,5.44-42.77S240.1,589,240.1,589l.84-25.09c2.26-4.69,3.43-12,4-17.77a38.38,38.38,0,0,0,1.65-8.42c.09-1.34.17-2.76.23-4.23a28.26,28.26,0,0,0-1.53-9.47,94.71,94.71,0,0,1,9.49-11.92,12.19,12.19,0,0,0,3.76-10.69l-2.07-14-5-23.81c.63-6.63-.74-10.44-2.27-12.59.36-2.13.7-4.28,1-6.42a82.63,82.63,0,0,0-1.47-28c-.73-3.2-1.72-6.48-4-8.9-2.54-2.74-6.66-4.42-7.6-8a27.59,27.59,0,0,0-.58-2.7c-.93-2.36-3.83-3.21-6.38-3.52-4.53-.55-11.09-1-15.44.8-3,1.26-7.25,4.67-8.9,8.35a7.14,7.14,0,0,0-1,5.17,6.72,6.72,0,0,0,.72,1.75,15.75,15.75,0,0,0-1,5.52A16,16,0,0,0,214.73,430c.09.31.18.63.26.94a15.35,15.35,0,0,1,.41,2.23c-.07,1.46-.17,2.92-.24,4.37a4,4,0,0,1-.16.59,104.28,104.28,0,0,0-10.56,5.45c2.51,3.69-.42,19.32-.42,19.32-6.28,3.71-12.56,13.17-5.87,23s2.91,20.41,2.91,20.41l-1,16.08h0l-.21,3.21h.08l-.08,1.22H200v1.32c-2.95,1-7.25,3.25-9.81,7.24a25.58,25.58,0,0,1-4.39,5.39,3.23,3.23,0,0,0-.48,4.54A3.38,3.38,0,0,0,186.33,546.11Zm50.57-42.73a15.28,15.28,0,0,1,1.49-8.09h3c.1.7.22,1.36.36,2,.85,3.66-2.54,5.39-4.81,6.13Z"/><path class="cls-7" d="M237.73,662.8l1.63,4.83-5.17,5.24-17.33,4-12.5-1.21.81-4.43h0a5.37,5.37,0,0,1,4-3.91c5.17-1.21,14.92-4,17-7.78Z"/><path class="cls-8" d="M237.73,662.8l1.63,4.83-5.17,5.24-17.33,4-12.5-1.21.81-4.43h0a5.37,5.37,0,0,1,4-3.91c5.17-1.21,14.92-4,17-7.78Z"/><path class="cls-9" d="M208.31,674.49l2.42-3.23-2.42-3.73s-7.25,2.92-10.48,2.52S193,675.29,199,676.9s40.3,0,40.3,0,6-2.82,0-10.48l-5.17,4s-8.88,4.84-13.31,4Z"/><path class="cls-7" d="M197.43,681.34l12.49,1.2,17.33-4,5.24-5.23-.43-1.29-.6-1.8-.58-1.75L219.2,665.2a7.29,7.29,0,0,1-2.37,2.38c-3.8,2.59-10.62,4.46-14.62,5.41l-.51.14a5.64,5.64,0,0,0-2.07,1.25,5.38,5.38,0,0,0-1.44,2.51Z"/><path class="cls-8" d="M197.43,681.34l12.49,1.2,17.33-4,5.24-5.23-.43-1.29-4.81,3.7s-8.86,4.84-13.3,4H201.47l2.41-3.23-2.18-3.35a5.64,5.64,0,0,0-2.07,1.25,5.38,5.38,0,0,0-1.44,2.51Z"/><path class="cls-9" d="M201.47,680.13l2.41-3.23-2.41-3.73s-7.25,2.92-10.49,2.52-4.83,5.25,1.21,6.85,40.3,0,40.3,0,6-2.82,0-10.48l-5.24,4s-8.86,4.84-13.3,4Z"/><path class="cls-7" d="M211.54,446.39s19.34,2,16.56-6a14.6,14.6,0,0,1-.6-7.12,19.65,19.65,0,0,1,3.43-8.2l-18.14,2.82a22.91,22.91,0,0,1,2.45,5.82C217.37,442.22,211.54,446.39,211.54,446.39Z"/><path class="cls-10" d="M244.54,538.27s-.41,17.33-4.43,25.8l-.85,24.57s1.21,22.57,3.62,27-5.24,41.91-5.24,41.91V664s-12.88,4.85-16.56-.8l3.69-48-1.59-66.52Z"/><path class="cls-8" d="M244.54,538.27s-.41,17.33-4.43,25.8l-.85,24.57s1.21,22.57,3.62,27-5.24,41.91-5.24,41.91V664s-12.88,4.85-16.56-.8l3.69-48-1.59-66.52Z"/><path class="cls-11" d="M252.64,482.65l2.41,6.45,2.07,13.71a12.08,12.08,0,0,1-3.62,10.47c-4.83,4.84-11.28,14.92-11.28,14.92l-7.66-23s7.66-1.21,6.45-6.45-.81-14.91-.81-14.91Z"/><path class="cls-12" d="M252.64,482.65l2.41,6.45,2.07,13.71a12.08,12.08,0,0,1-3.62,10.47c-4.83,4.84-11.28,14.92-11.28,14.92l-7.66-23s7.66-1.21,6.45-6.45-.81-14.91-.81-14.91Z"/><path class="cls-8" d="M216.83,667.59c5.17,8.14,13.21,3.52,14.63,2.6l-.58-1.75-11.68-3.23A7.29,7.29,0,0,1,216.83,667.59Z"/><path class="cls-10" d="M200.66,554c.4,5.64,7.24,26.19,7.24,26.19l4.84,16.92a134.34,134.34,0,0,1,5.31,36.79,36.33,36.33,0,0,0,1.58,11.58c3.23,8.86-3.22,20.95-3.22,20.95,5.64,10.07,15.31,3.23,15.31,3.23V663.2s7.66-35.06,5.64-41.91-2.81-25.39-2.81-25.39V562.45a38,38,0,0,0,11-24.07c.11-1.32.18-2.71.23-4.15.33-9.09-5.89-19.75-8.28-23.56-.58-.91-.94-1.42-.94-1.42L201,523.37h-.09v4.43Z"/><path class="cls-8" d="M212.75,427.85a22.91,22.91,0,0,1,2.45,5.82,15.72,15.72,0,0,0,12.26-.44,19.63,19.63,0,0,1,3.42-8.2Z"/><circle class="cls-7" cx="220.8" cy="418.18" r="15.71"/><path class="cls-8" d="M200.66,527.8h.16c16.91,3.46,38.12-14.14,38.12-14.14a21.47,21.47,0,0,1-1.47-3c-.58-.91-.94-1.42-.94-1.42l-35.59,14.14-.1,1.4Z"/><path class="cls-11" d="M205.14,446s22.57-13.71,29.82-8.07L245,450.82s6.45,2,5.24,14.91l4.84,23.34-14.5,3.63s-8.56,8.06-1.67,19.77c0,0-21.36,17.73-38.3,14.1l1.2-18.94s3.63-10.47-2.82-20.14-.4-18.95,5.64-22.58C204.68,464.88,207.51,449.61,205.14,446Z"/><path class="cls-7" d="M203.88,528.2s-8.46,1.6-12.5,8a24.89,24.89,0,0,1-4.21,5.27,3.22,3.22,0,0,0-.22,4.53,3.39,3.39,0,0,0,.72.58c3.2,1.91,8.41,3.1,15-2.31C214,535,203.88,528.2,203.88,528.2Z"/><path class="cls-8" d="M216.37,453.64s8.07-.81,10.07,20.15,5.24,25.8,5.24,25.8,2,10.88-2.81,17.33-14.11,20.14-14.11,20.14-10.08,2.83-12.09-7.25l12.49-23.37s2-8.05-2.82-13.69S203.88,449.61,216.37,453.64Z"/><path class="cls-11" d="M215.55,452.46s8.07-.81,10.08,20.14,5.25,25.79,5.25,25.79,2,10.88-2.82,17.33S214,535.86,214,535.86s-10.07,2.83-12.09-7.25l12.49-23.37s2-8.06-2.81-13.7S203.07,448.4,215.55,452.46Z"/><path class="cls-8" d="M208.92,467.54s-.81,12.49,2.81,19.35,3.64,15.71,0,20.56"/><path class="cls-8" d="M206.9,452.23s3.23-3.22,12.49-3.62,13.31-3.23,13.31-3.23"/><path class="cls-8" d="M229.32,397.86c2.44.3,5.25,1.14,6.13,3.45A26.54,26.54,0,0,1,236,404c.91,3.52,4.87,5.18,7.32,7.86,2.16,2.37,3.1,5.59,3.81,8.71a82.09,82.09,0,0,1,1.41,27.38c-.78,6.69-2.39,13.27-2.84,20s.37,13.78,4,19.42c1.58,2.42,3.66,4.56,4.78,7.25-2.31,1.87-5.5,2.14-8.47,2.24-3.45.12-6.91.12-10.35,0a11.09,11.09,0,0,1-5.29-1.09,8.28,8.28,0,0,1-2.78-3c-2-3.37-2.48-7.41-2.4-11.32s.71-7.78.78-11.69c0-2.13-.13-4.38-1.35-6.12a19.94,19.94,0,0,0-3.38-3.11c-4.31-3.82-5.79-10-5.93-15.71s.79-11.53.31-17.28c-.19-2.25-1-4.95-3.24-5.38a14.3,14.3,0,0,1-2.07-.27c-1.78-.68-1.61-3.19-2.07-5-.57-2.07-2.32-3.65-2.82-5.73-1.16-4.87,5-10.69,9.11-12.42S225,397.33,229.32,397.86Z"/><path class="cls-13" d="M229.72,397.06c2.45.31,5.24,1.15,6.13,3.44a22.47,22.47,0,0,1,.56,2.66c.91,3.52,4.88,5.18,7.32,7.85,2.16,2.37,3.11,5.59,3.81,8.72A81.82,81.82,0,0,1,249,447.11c-.79,6.68-2.39,13.27-2.85,20s.37,13.78,4,19.42c1.57,2.43,3.65,4.56,4.77,7.25-2.31,1.87-5.5,2.14-8.47,2.25q-5.18.17-10.4,0a11.24,11.24,0,0,1-5.29-1.1,8.06,8.06,0,0,1-2.77-3c-2-3.38-2.49-7.41-2.41-11.33s.71-7.78.78-11.68c0-2.07-.12-4.39-1.34-6.13a20.83,20.83,0,0,0-3.39-3.11c-4.31-3.82-5.8-9.94-5.94-15.71s.81-11.53.32-17.28c-.19-2.24-1-4.94-3.24-5.38a14.3,14.3,0,0,1-2.07-.27c-1.78-.68-1.61-3.19-2.07-5-.57-2.07-2.32-3.64-2.82-5.72-1.16-4.87,5-10.7,9.11-12.42S225.36,396.56,229.72,397.06Z"/><ellipse class="cls-1" cx="147.77" cy="730.86" rx="45.2" ry="6.68"/><ellipse class="cls-1" cx="257.23" cy="746.54" rx="45.2" ry="6.68"/><ellipse class="cls-1" cx="668.47" cy="638.28" rx="59.2" ry="6.62"/><path class="cls-3" d="M451,424.05l-118.76,27a30.91,30.91,0,0,1-30.91-30.91h0V232.22a30.91,30.91,0,0,1,30.91-30.91h0l118.76-27a30.91,30.91,0,0,1,30.91,30.91h0V393.14A30.91,30.91,0,0,1,451,424.05Z"/><path class="cls-14" d="M473.48,294.41V211.25a30.91,30.91,0,0,0-30.91-30.91h0l-103.15,27a30.89,30.89,0,0,0-30.9,30.9h0v95.84Z"/><polygon class="cls-3" points="318.23 268.47 419.74 241.47 419.74 256.32 318.12 283.32 318.23 268.47"/><polygon class="cls-3" points="318.21 294.31 403.68 267.31 403.68 282.17 318.12 309.17 318.21 294.31"/><path class="cls-2" d="M978.44,587.75s-129.32-62.19-129.32-82.31V284c0-20.11-2.41-43.81,24.89-32.8,0,0,131.12,58.06,131.12,78.18V550.81C1005.13,570.93,993.19,587.47,978.44,587.75Z"/><path class="cls-3" d="M971.75,584s-129.32-62.19-129.32-82.31V280.25c0-20.11-2.41-43.81,24.89-32.8,0,0,131.13,58.07,131.13,78.19V547.1C998.45,567.22,986.5,583.75,971.75,584Z"/><path class="cls-15" d="M991.17,459.46V332.88c0-20.12-122.53-79.26-122.53-79.26-24.22-12.33-20,13.52-20,33.63v98Z"/><polygon class="cls-3" points="857.04 322.7 944.74 369.37 944.74 386.88 856.95 340.21 857.04 322.7"/><polygon class="cls-3" points="857.02 356.22 930.87 391.36 930.87 408.87 856.95 373.73 857.02 356.22"/><ellipse class="cls-1" cx="538.93" cy="564.71" rx="94" ry="16.1"/><path class="cls-16" d="M520,347.42a13.78,13.78,0,0,0-1,3.07q-.09.4-.18.84c-.59,3.06-1,6.91-1.21,9.15-.1,1.12-.15,1.84-.15,1.84s-21.69-1.45-17.93-5.09a8,8,0,0,0,2-3.6c.11-.39.2-.78.28-1.18a18.31,18.31,0,0,0,.35-2.75V349a27,27,0,0,0-.21-4.49s7,0,12.37.57C517.88,345.49,520.66,346.2,520,347.42Z"/><path class="cls-16" d="M482.38,450.63c-7.4-.24-1.95-15.63-1.1-17.7s-1.26-7.14-1.26-7.14-2.5-14.66-2.5-15.62a38.44,38.44,0,0,0-.84-5.94,10,10,0,0,1,1-5.82c.85-1.33.72-6.66.72-6.66v-6.9l1.65-2.18,4.21,4,1.17,1.1,2.06,7.72-.73,11.06-.39,10.77,2.55,14.9S489.82,450.88,482.38,450.63Z"/><polygon class="cls-8" points="484.71 388.5 478.42 385.88 478.42 384.86 480.06 382.68 484.27 386.66 484.71 388.5"/><path class="cls-17" d="M481.82,372.74a28.29,28.29,0,0,0-1.75,6.18,27.8,27.8,0,0,1-1.66,5.93l7,2.91Z"/><path class="cls-12" d="M481.82,372.74a28.29,28.29,0,0,0-1.75,6.18,27.8,27.8,0,0,1-1.66,5.93l7,2.91Z"/><path class="cls-16" d="M537.58,525.73,537,527s-.63,4.11-.63,4.21-1.82,2.84-1.82,2.84L530,535l-1.94-.24a25.5,25.5,0,0,0-.52-3.36c-.07-.31-.14-.63-.23-.95a25.34,25.34,0,0,0-3.19-7.24s-3.39-8.36-4.6-9.45-5.82-12.12-5.33-14.78c.26-1.46,0-6.36-.19-10.44-.2-3.33-.42-6.13-.42-6.13l11.52-6.8,1.34,2.11h0l.8,1.25c0,.21,0,.43,0,.64v.15a21.84,21.84,0,0,1-1,5s-.86,6.18,0,7.27,3.59,15.66,4.21,22.4v.61c.24,3.1,2.16,5.86,4.09,7.88h0c.12.14.25.27.38.4A24.43,24.43,0,0,0,537.58,525.73Z"/><path class="cls-8" d="M528,534.76,530,535l4.57-1s1.82-2.75,1.82-2.84S537,527,537,527l.59-1.24.07-.15a23.61,23.61,0,0,1-3.14-2.59h0l-.33-.31c-.1-.11.66,4-2.83,5.79-1.69.87-3.08,1.54-4,2Z"/><path class="cls-18" d="M538.38,526.31l-.66,1.39s-.63,4.11-.63,4.21-1.82,2.84-1.82,2.84l-4.57,1-2.63-.31a16.09,16.09,0,0,0-.22-2.19c-.08-.55-.19-1.16-.34-1.82,1-.45,2.55-1.19,4.54-2.22,3.49-1.79,2.83-5.79,2.83-5.79a29.92,29.92,0,0,0,2.39,2.12Z"/><path class="cls-8" d="M538.38,526.31l-.66,1.39s-.63,4.11-.63,4.21-1.82,2.84-1.82,2.84l-4.57,1-2.63-.31a16.09,16.09,0,0,0-.22-2.19,9.22,9.22,0,0,1,1.66.23s6.24,1.33,6.54-3.61c.18-2.8.76-3.9,1.22-4.33Z"/><path class="cls-11" d="M537.91,526s-1.55-.34-1.86,4.59-6.53,3.61-6.53,3.61-3.06-.76-3.1.51a12.21,12.21,0,0,0,.82,3.42s.18,2.94.77,3.64.21,3.3.21,3.3.24,1.94,5.06,0c0,0,4.3-.89,7.87-6.24.12-.18-.42-.73,2.7-1.85s12-8.3,11.36-11.81a3,3,0,0,0-2.12-2.52,3.67,3.67,0,0,0-2.79.38,21.9,21.9,0,0,1-2.61,1.2,13,13,0,0,1-3.72.89,14.18,14.18,0,0,0-2.89.55A6,6,0,0,1,537.91,526Z"/><path class="cls-16" d="M502.59,492a8.63,8.63,0,0,0-1.76,2c-1.76,2.69-2.82,6.45-4,8.07-1.54,2.1-2,6.18-2,6.18-.41,2.68-6.09,17-7.63,19.54s-3.68,9.45-3.68,9.45c-1.31,1.64-1.23,4.08-1.1,5.24a1.24,1.24,0,0,0,.06.47.17.17,0,0,1,0,.19v.07l-2.09,3.57-6.68-.93-3.45-2.34c.27-.46.52-.94.75-1.43,1.84-4.12,3.15-11.48,3.15-11.48s1.86-8.4,1.72-10.36c.05-2.67.24-5.34.55-8,0,0,5.26-16,6.94-18.65a7.41,7.41,0,0,0,1.26-3.45,3.14,3.14,0,0,0,0-.75l2.26-2.25S505.49,489.73,502.59,492Z"/><path class="cls-8" d="M482.55,542.48v.79l-2.09,3.57-6.68-.93-3.45-2.34c.27-.46.52-.94.75-1.43,1.68-.48,5.52.88,5.52.88s4.15.79,5.9-.48A.1.1,0,0,1,482.55,542.48Z"/><path class="cls-18" d="M480.92,552l-6.78,1.62-6.22-4.6.32-2.59a4.58,4.58,0,0,0,1.15-1,4.15,4.15,0,0,0,.9-1.86c.36-1.91,6.27.18,6.27.18s4.32.82,6-.55a10.26,10.26,0,0,0,.32,3.74,2.73,2.73,0,0,0,1,1.49C485.6,549.63,480.92,552,480.92,552Z"/><path class="cls-8" d="M480.92,552l-6.78,1.62-6.22-4.6.32-2.59a4.58,4.58,0,0,0,1.15-1h1.35c1,.1,3.5,4.55,3.5,4.55,6.15.41,8-1.6,8.64-3.08a2.73,2.73,0,0,0,1,1.49C485.6,549.63,480.92,552,480.92,552Z"/><path class="cls-11" d="M474.24,550.74s-2.46-4.45-3.5-4.54a23.25,23.25,0,0,0-2.64,0s-2.71,6.45-3.71,7-2.47,3.64-2.47,3.64,7.2,7,14.16,5.63a14.4,14.4,0,0,1,6.38,1.59c3.22,1.68,16.67.41,18.31-2.54,1.22-2.22,1.71-3.83.63-5a2.9,2.9,0,0,0-2.53-.86c-1.69.23-5.49.19-8.82-3.9,0,0-6.14-5.62-6.64-5.63S483.83,551.38,474.24,550.74Z"/><path class="cls-8" d="M527.22,479.72v.06c-.42.46-3.38,3.71-4.29,3.94a43.26,43.26,0,0,0-4.35,1.93s-1.82,2.43-3.28,2.55a5.91,5.91,0,0,0-1.28.34c-.2-3.33-.42-6.13-.42-6.13l11.51-6.78,1.35,2.11h0c.3.85.64,1.64.75,1.89Z"/><path class="cls-18" d="M485.38,432.93s-4.48,5.84,0,13.59a44.71,44.71,0,0,0,9.21,11.63l15.26,31.62s4-2.18,5.46-2.3,3.27-2.54,3.27-2.54a41.11,41.11,0,0,1,4.35-1.93c1-.24,4.34-4,4.34-4s-1.67-3.63-1.3-4.6-1.09-3.4-1.09-3.4a19.39,19.39,0,0,1-1-3.75c0-1-1.59-3.27-1.59-3.27s-1.57-2.43-1.57-3.76-2.34-6.58-2.34-6.58l-.61-23Z"/><path class="cls-12" d="M527.22,479s-3.36,3.75-4.33,4a40.45,40.45,0,0,0-4.36,1.94s-1.82,2.42-3.27,2.54a11.66,11.66,0,0,0-3,1.07c-1.3.59-2.47,1.23-2.47,1.23l-15.27-31.62a34.23,34.23,0,0,1-3.72-3.8,54,54,0,0,1-5.5-7.83,13.11,13.11,0,0,1-1.73-9.43A10.85,10.85,0,0,1,485.3,433l10.86-.77,21.63-1.54.18,6.81.41,16.19.78,1.88a20.15,20.15,0,0,1,1.51,4.66c0,1.34,1.57,3.76,1.57,3.76s1.59,2.3,1.59,3.27a19.68,19.68,0,0,0,1,3.76s1.46,2.42,1.09,3.38S527.22,479,527.22,479Z"/><path class="cls-8" d="M502.59,492a8.63,8.63,0,0,0-1.76,2c-6.59.48-14.25-3-16.24-3.92a3.14,3.14,0,0,0,0-.75l2.26-2.25S505.49,489.73,502.59,492Z"/><path class="cls-18" d="M522,440.1s-1,3.39-1.33,4.84-1.09,8.61-1.09,8.61l-.42,2-6.92,33-1.51,7.17c-2.66,1.46-9.32-2.43-9.32-2.43-7.76.86-17.33-4.11-17.33-4.11s1.57-5.09,1.21-7.63,2.18-4.61,2.18-4.61c-.6-2.3,1.57-12.36,1.57-12.36s.49-3.75,2.31-4.72-.24-2.42-.73-3.28a3.83,3.83,0,0,1,.17-2.22c.16-.56.35-1.11.56-1.65-4.62-4.62-5.33-11.84-5.34-15.85a28.59,28.59,0,0,1,.13-2.93l10-1.75L518,428.36l2.23,6.86h0l.56,1.72Z"/><path class="cls-8" d="M520,347.42a13.78,13.78,0,0,0-1,3.07q-.09.4-.18.84c-2.11,1.37-3.4,1.38-6.11,1.38-.92,0-1.45-1.78-2.33-2,0,0-1.32-4.76-1.69-.75-2.54-.52-4.73,1.46-6.53-.27h0V349a27,27,0,0,0-.21-4.49s7,0,12.37.57C517.88,345.49,520.66,346.2,520,347.42Z"/><path class="cls-16" d="M525,339.26a13.52,13.52,0,0,1-13.54,13.5h0a13.19,13.19,0,0,1-2.66-.27h0a13.5,13.5,0,1,1,14.47-19.86A13.18,13.18,0,0,1,525,339.26Z"/><path class="cls-8" d="M517.59,360.48c-.1,1.12-.16,1.84-.16,1.84s-21.69-1.45-17.92-5.09a8.17,8.17,0,0,0,2-3.6l9.4,1.54s2.66,2.06,4.72,4A8.6,8.6,0,0,0,517.59,360.48Z"/><path class="cls-8" d="M520.83,437.63a6.85,6.85,0,0,1-2.85-.21,5.67,5.67,0,0,1-1.15-.51c-1.82-1.09-7.87.25-7.87.25s-16.48,1.09-17.22,0c-.4-.63-3.32-.54-5.7-.35-1,.08-1.84.18-2.46.24a11,11,0,0,1,1.74-4.15l10.86-.77L518,428.31l2.23,6.86h0A23.07,23.07,0,0,0,520.83,437.63Z"/><path class="cls-17" d="M510.89,355.9,499.07,354a3.56,3.56,0,0,1-2.23,1.94c-1.57.36-8.6,4-11.75,8.36l-3.16,4.37s-2.54,3.15-1.7,5.69,1.82,11.15,1.82,11.15l1.22,9.57s2.3,6.91,1.58,9.94.36,15.75.36,15.75l-2.42,15.75s8.23-1.09,9,0,17.21,0,17.21,0,6-1.34,7.87-.25a6.53,6.53,0,0,0,4,.73s-1.45-5-.61-7.75.61-7.88.61-7.88,1.21-7.39.6-8.72,1.34-6.18,1.34-6.18l6.42-33.8s-.78-6.06-4.21-8.12-7.3-2.67-9.36-4.6S510.89,355.9,510.89,355.9Z"/><path class="cls-16" d="M516.38,389.22v4l3.72,10.06,1.35,9.33s2.43,6.66,2.43,9,5.93,13.45,5.93,13.45,1.62,3.76.81,4.48-7.83,16.72,1,16.24,6.06-17.2,6.06-17.2l-1.25-7.27s-1.7-18.18-1.7-19.51c0,0-2.18-7.75-2.41-9.45s-1.83-10.3-1.83-10.3l-1.33-5.57Z"/><polygon class="cls-8" points="512.13 401.82 498.95 409.36 494.87 415.54 500.31 410 512.13 401.82"/><path class="cls-8" d="M508.14,416.26s-6,3.91-8.82,3.91-9.36,6.72-9.36,6.72,9.27-6,10-5.81S508.14,416.26,508.14,416.26Z"/><path class="cls-8" d="M492.78,418.35s-5.63,5.09-4.18,5.64,9-5.64,9-5.64Z"/><path class="cls-8" d="M517.67,400.18s-4.35,5.91-3.18,5.82,4.54-3.46,4.54-3.46Z"/><path class="cls-8" d="M518.3,406s-4.71,5.36-4.53,6.72S518.3,406,518.3,406Z"/><path class="cls-8" d="M519.49,408.68s-3.17,5.68-1.82,6.86S519.49,408.68,519.49,408.68Z"/><path class="cls-8" d="M515.38,394.09s-2.37,4-.65,4.27,1.91,0,1.91,0Z"/><path class="cls-8" d="M516,379.46a41.88,41.88,0,0,1-2.42,7.13,36,36,0,0,1-.94-3.57A24.63,24.63,0,0,1,516,379.46Z"/><path class="cls-8" d="M523.24,332.63a5.64,5.64,0,0,1-.9,1.41,10.11,10.11,0,0,0-1.64,1.88,10.36,10.36,0,0,0-.6,3.21c-.18,1.08-.86,2.28-2,2.31a4,4,0,0,1-1.59-.48,1.68,1.68,0,0,0-1.6,0,1.79,1.79,0,0,0-.51,1.2,16.85,16.85,0,0,0-.16,2.84,10.55,10.55,0,0,0,.06,1.13,6.23,6.23,0,0,1-.21,3.6,4.33,4.33,0,0,1-2.24,1.8,13.56,13.56,0,0,1-3.14.88h0a34.58,34.58,0,0,1-6.19.2,1.53,1.53,0,0,1-.56-.09,1.58,1.58,0,0,1-.24-.15,18.21,18.21,0,0,0,.37-3.45,13.5,13.5,0,0,1,18.81-19.37A13,13,0,0,1,523.24,332.63Z"/><path class="cls-19" d="M517.6,321.2c-1.24-.13-2.4.53-3.63.8-2.51.55-5.08-.59-7.65-.58a14.25,14.25,0,0,0-6.3,1.88,15.21,15.21,0,0,0-4.2,2.94,6.81,6.81,0,0,0-2,4.62,7.58,7.58,0,0,1-.1,3,8.05,8.05,0,0,1-.92,1.4,4.16,4.16,0,0,0-.42,3.47,11.14,11.14,0,0,0,2.07,3.1c1.65,2.13,2.7,4.68,4.19,6.94a20,20,0,0,0,2.18,2.77,1.63,1.63,0,0,0,.46.37,1.5,1.5,0,0,0,.55.08c3.16.09,6.43.16,9.34-1.08a4.21,4.21,0,0,0,2.24-1.8,6.23,6.23,0,0,0,.22-3.6,17.26,17.26,0,0,1,.09-4,1.77,1.77,0,0,1,.51-1.19,1.63,1.63,0,0,1,1.6,0,4.5,4.5,0,0,0,1.59.48c1.1,0,1.79-1.24,2-2.32a5.47,5.47,0,0,1,2.23-5.09,7.7,7.7,0,0,0,1.37-6.83C522.3,324.26,520.1,321.45,517.6,321.2Z"/><path class="cls-8" d="M530.58,378.63a15,15,0,0,0,0,5c-.12,1.34,0,8.73,0,8.73-4-1.22-14.17,1.21-14.17,1.21l-1.21-3.63a9,9,0,0,1-1.53-3,37,37,0,0,1-.94-3.58,74.79,74.79,0,0,1-1.19-7.61c-.51-3.85,5.22-8,9.56-10.3s8.14,7.51,8.14,7.51S531.05,376.73,530.58,378.63Z"/><path class="cls-17" d="M530.58,377.94a15,15,0,0,0,0,5c-.12,1.33,0,8.72,0,8.72-4-1.21-14.17,1.21-14.17,1.21l-1.21-3.63a8.88,8.88,0,0,1-1.53-3,36,36,0,0,1-.94-3.57q-.78-3.76-1.19-7.61c-.51-3.86,5.22-8,9.56-10.31s8.14,7.51,8.14,7.51S531.05,376,530.58,377.94Z"/><path class="cls-2" d="M522.89,326.51a7.84,7.84,0,0,0-.9-1.95c.06.17.12.33.17.5a7.7,7.7,0,0,1-1.37,6.83,5.44,5.44,0,0,0-2.22,5.09c-.17,1.08-.86,2.27-2,2.31a4,4,0,0,1-1.6-.48,1.64,1.64,0,0,0-1.59.05,1.76,1.76,0,0,0-.52,1.2,17.26,17.26,0,0,0-.09,4c.11,1.22.35,2.53-.22,3.61a4.45,4.45,0,0,1-2.23,1.8c-2.91,1.24-6.18,1.17-9.35,1.08a1.19,1.19,0,0,1-1-.46,20.93,20.93,0,0,1-2.18-2.77c-1.49-2.26-2.53-4.8-4.19-6.94-.48-.56-.94-1.15-1.37-1.76v.12a11.59,11.59,0,0,0,2.07,3.1c1.66,2.13,2.71,4.68,4.18,6.94a22.59,22.59,0,0,0,2.19,2.77,1.54,1.54,0,0,0,.47.37,1.42,1.42,0,0,0,.54.08c3.16.09,6.44.16,9.35-1.08a4.28,4.28,0,0,0,2.24-1.8,6.31,6.31,0,0,0,.21-3.6,17.85,17.85,0,0,1,.1-4,1.73,1.73,0,0,1,.51-1.19,1.59,1.59,0,0,1,1.59-.05,4.49,4.49,0,0,0,1.6.48c1.1,0,1.78-1.24,2-2.32a9.5,9.5,0,0,1,.59-3.21,10.49,10.49,0,0,1,1.64-1.88A7.75,7.75,0,0,0,522.89,326.51Z"/><path class="cls-20" d="M620.38,329.14l-8.65,18.36s-1.27,3.45-2.09,4.09-4.45,11.54-4.45,11.54l-9.27,14.28h0l-.63,1-3.63-1-2.55-9.52.15-2.76v-.35s5.72-6,7-6.45c0,0,1,.12,2.9-4.53s3.64-5.65,3.64-5.65l1-3.36,10.73-17.09s9-12.89,11.45-7.17S620.38,329.14,620.38,329.14Z"/><path class="cls-20" d="M584.49,459.56a2.12,2.12,0,0,1-.28.88c-1,1.46-6.63,31.17-6.63,31.17.45,2-.82,6-1.65,7.82s-2.64,11.26-2.64,11.26-.45,20.36-1.62,23.54.37,10,.37,10c-.11,3.13,1.78,6.45,2.89,8.13l.22.32c.36.52.6.82.6.82a5,5,0,0,0,1.27,1.57l.26.2a14.83,14.83,0,0,0,5.1,2.15h.17c.72.16,1.21.23,1.21.23l.45,2.46-4.81,1-9.18.63s-10.82.83-8.36-4a8.92,8.92,0,0,0,.44-1h0c.09-.24.18-.48.25-.72,1.48-4.63.48-10.26.48-10.26l-2.1-16.44c-3.45-15.27,2.72-32.26,2.72-32.26s-.54-1.36.65-4.81,0-11,0-11-.63-9.72-1.45-14.53a30,30,0,0,1-.33-6.13,30.73,30.73,0,0,1,.33-3.58l20.71-2.75S584.74,457.63,584.49,459.56Z"/><path class="cls-8" d="M584.21,560.13l-4.81,1-9.18.63s-10.82.83-8.36-4a8.92,8.92,0,0,0,.44-1h0c.09-.24.18-.48.25-.72a16.92,16.92,0,0,1,5.48,1.1c3.08,1.19,5.4-1.91,5.4-1.91l1.5-2.86.22-.41c.36.52.59.82.59.82a5,5,0,0,0,1.54,1.77l-.26.53-1.45,3.06s1.85.19,4.4.6a2,2,0,0,0,2.4-1.31h.18c.72.16,1.2.23,1.2.23Z"/><path class="cls-21" d="M588.65,562.39c-.36,1.64-10.49,2.14-10.49,2.14s-5.64-.54-7.21.77-6.23,1-6.41,1-2.63-.09-3.59-4.49,1.25-5,1.34-5.07h0a16.44,16.44,0,0,1,5.73,1.11c3.08,1.19,5.4-1.91,5.4-1.91l1.72-3.27c.36.52.6.82.6.82a5.12,5.12,0,0,0,1.53,1.77l-1.71,3.59s1.86.19,4.4.59a2.11,2.11,0,0,0,2.53-1.58h0a1.4,1.4,0,0,0,0-.41,1.22,1.22,0,0,0,0-.27s1.58.46,3.54,1A3.63,3.63,0,0,1,588.65,562.39Z"/><path class="cls-20" d="M607.74,481.22c-.23,1.45-.48,5.21-.48,5.21.84,3.15-1.34,10.63-1.34,10.63l-1.09,4.27c.48,5.45-3,18.78-3,18.78s-2.33,12.36-3.54,17.69a14.84,14.84,0,0,0,.63,8.91l.1.22a1.09,1.09,0,0,0,.07.3,2.16,2.16,0,0,0,.14.43,6.36,6.36,0,0,0,1.19,2,5.87,5.87,0,0,0,.65.67h0a12.91,12.91,0,0,0,3.86,2.38h0l.61.24c.63.23,1.28.43,1.93.6h.21l-.48,2.86-6.42-1.65-8.6-2.79L588,549.63a2.21,2.21,0,0,1,.13-.67v-.08a3.05,3.05,0,0,1,.13-.67c.66-3.75,2.3-14.24,1.48-22-1-9.57,3-22.78,3.93-25.92a15.74,15.74,0,0,0,.73-5.58c-1.58-2.3-1.94-11.51-1.94-11.51s-2.91-5.94-5.31-12.24a31.27,31.27,0,0,1-1.73-6.37,21.3,21.3,0,0,1-.35-4.65s19.51-17.81,21.65-.57c.07.59.14,1.14.21,1.69C608.84,476.91,608,479.81,607.74,481.22Z"/><path class="cls-8" d="M607.74,553.63l-.48,2.86-6.42-1.65-8.6-2.79L588,549.63a2.21,2.21,0,0,1,.13-.67v-.08a3.05,3.05,0,0,1,.13-.67h.6a7.9,7.9,0,0,1,3.6.49c1.4.52,3.24,1.12,3.61.87a4.52,4.52,0,0,1,2.06-.36l.89-2,.14-.3a6.07,6.07,0,0,0,1.19,2,6.6,6.6,0,0,0,.69.71v.69l0,1a12.55,12.55,0,0,0,3.09,1.42,1.79,1.79,0,0,0,.86,0h0l.61.24c.63.23,1.28.43,1.93.6h0Z"/><path class="cls-21" d="M604.53,559.76c-1.79-.51-6.11-1.34-6.81-.7s-6.69,0-6.69,0a3.67,3.67,0,0,1-3.1-1.81c-1.25-1.94-.23-8.21-.23-8.21h.44l.74-.08h0a8,8,0,0,1,3.59.48c1.41.53,3.24,1.13,3.61.88a4.57,4.57,0,0,1,2.06-.37l1-2.25a6.76,6.76,0,0,0,1.19,2,9.13,9.13,0,0,0,.69.7l-.09,1.67A13.32,13.32,0,0,0,604,553.5a1.24,1.24,0,0,0,1.48-.47.8.8,0,0,0,.11-.25h0a11.64,11.64,0,0,0,2.54.84h0a4.64,4.64,0,0,1,5,3.56C614.1,560,606.32,560.27,604.53,559.76Z"/><path class="cls-8" d="M584.49,459.56l-1.1.34a16.47,16.47,0,0,1-2.67.56c-5.74.81-15.19.32-18.19.13a30.73,30.73,0,0,1,.33-3.58l20.71-2.75S584.74,457.63,584.49,459.56Z"/><path class="cls-21" d="M602.57,454.53s-7.6,1.18-13.79,2.53c-2.06.45-4,.93-5.39,1.38a17.64,17.64,0,0,1-2.67.57c-6.89,1-19.13.07-19.13.07-3.36-10.9,4.08-24.63,4.08-24.63-.17-1.09,1.55-4.44,1.55-4.44v-.11l1.06-3.89h28.25l.35,1.67.71,3.4L602,452.15Z"/><path class="cls-8" d="M607,461.14l-.17.07-3.35,1.47c-3.58,1.65-14.28,2-18,2a21.93,21.93,0,0,1-.34-4.65s19.51-17.81,21.65-.57C606.8,460,606.88,460.63,607,461.14Z"/><path class="cls-21" d="M607.43,459.45l-.69.31-3.31,1.47c-3.64,1.68-14.7,2-18.23,2h-.93c-1.63-.05-3.28-1.58-3.28-2,0-.22-.16-1.3-.31-2.22-.13-.74-.22-1.38-.22-1.38a86.69,86.69,0,0,1-11-5.69c-2.78-1.89-2.07-15.32-1.54-22.07.19-2.33.36-3.86.36-3.86l28.6,1.67,4,.23,2.28.51.61.13s1.65,12,2.46,13,.29,4.36.18,6.28a10.64,10.64,0,0,1-.27,2.45s1.18,3.36.91,5.24A10.86,10.86,0,0,0,607.43,459.45Z"/><circle class="cls-20" cx="576.84" cy="348.14" r="11.72"/><path class="cls-20" d="M571.12,353s.81,11.1-1.46,13.65a100.08,100.08,0,0,1-8.18,7.36l1.82,7.54,10.28,1.18,12-12.81-2.73-3.31s-2.09-7.09-.37-10.63S571.12,353,571.12,353Z"/><path class="cls-8" d="M595.92,377.41h0l-.63,1-3.63-1-2.55-9.52.16-2.76.75-1.08s4,.09,3.83,3.73C593.67,371,595.49,376.2,595.92,377.41Z"/><path class="cls-8" d="M603.83,430s-2.9.64-6.21,1.07-7.13.66-8.7-.26c-2.63-1.56-16.88-1.11-21-.95h-.7l1.06-3.89h28.25l.35,1.67,4,.23,2.29.51C603.59,429.37,603.83,430,603.83,430Z"/><path class="cls-22" d="M589.29,364.76s4,.09,3.82,3.73,2.18,9.9,2.18,9.9l-.9,2.09s-1.28,5.09-.28,6.36,4.63,1.27,2.54,11.72c0,0-.45,7.82.64,10.36s1.1,8.63,2.72,11.18a58.3,58.3,0,0,1,3.82,8.45s-11.81,2.63-14.9.82-22.08-.91-22.08-.91.09-3.18,0-3.55a3,3,0,0,1,.45-2.31c.64-.87,1.64-2.32,1.09-3.59s1.36-3.15.36-5.12-2.21-2.36-2-3.44a4.66,4.66,0,0,0-1.11-3.45c-.72-.91-5.63-10.51-5.63-10.51l-.83-4.48s-6.32-4.63-6.2-6.81,2.4-5.21,2.4-5.21l6.08-6s3.37,3.63,6.64,2.36S578.43,369,578.43,369s2.52-1.36,2.69-2.36,1.73-.09,1.73-.09,2.27-1.25,2.72-.81a8,8,0,0,0,2.46.81Z"/><path class="cls-20" d="M555,383.69,553,385.21a25.36,25.36,0,0,0-2.43,9.9,132.36,132.36,0,0,1-2.45,15.34l-3.82,6.83S538,430.45,537.22,434s-4.54,9.41-4.54,9.41-12.63,11.35-3.82,13.4,9.1-9,9.1-9a13.08,13.08,0,0,0,2.39-3.82c.39-1.55,11.51-21.31,11.51-21.31s3.91-5.32,3.09-8.14c0,0,5.09-12,5.09-15a53.64,53.64,0,0,0-.82-7.48l.82-6.27Z"/><path class="cls-8" d="M581.11,408.74s-8.9,4.66-10.63,4.91,7.54-1,7.54-1Z"/><path class="cls-8" d="M588.38,412.37s-11.81,4-17,3.28C571.38,415.63,584.29,418.1,588.38,412.37Z"/><path class="cls-8" d="M589.11,413.68s-10.64,6.69-16.9,5.6c0,0,14.63,2.91,16.9,1.36l-6.53-1.81S589.84,415,589.11,413.68Z"/><path class="cls-8" d="M576.86,327.51a11.07,11.07,0,0,0-9,1.69c-1.82,1.43-3,3.62-5.08,4.69a27.21,27.21,0,0,1-3.32,1.17,9.61,9.61,0,0,0-5.85,10.32c.32,1.8,1.16,3.46,1.59,5.24.73,3.17.08,6.49-.72,9.65a102,102,0,0,1-10.1,25.05,2.6,2.6,0,0,0-.5,1.68,2.42,2.42,0,0,0,.62,1.07c4.2,4.85,11,6.52,17.45,6.74a13.52,13.52,0,0,0,6.92-1.15,10.49,10.49,0,0,0,3.37-3.09A16.47,16.47,0,0,0,575.38,380c-.17-3.05-1.2-6.13-.42-9.08a2.3,2.3,0,0,1,.53-1.11c.69-.71,1.85-.52,2.83-.64,2.66-.31,4.39-3.12,4.71-5.79s-.35-5.35-.37-8a16.72,16.72,0,0,1,3.17-9.89c.89-1.22,2-2.42,2.32-3.95.38-1.92-.73-3.33-1.69-4.84-1.49-2.36-2.22-5.11-4.49-6.91A12.06,12.06,0,0,0,576.86,327.51Z"/><path class="cls-23" d="M576.14,326.78a11,11,0,0,0-8.94,1.69c-1.82,1.44-3,3.63-5.1,4.7a29.64,29.64,0,0,1-3.32,1.16,9.58,9.58,0,0,0-5.85,10.3c.33,1.8,1.16,3.46,1.59,5.24.74,3.17.09,6.49-.72,9.65a102.13,102.13,0,0,1-10.09,25,2.48,2.48,0,0,0-.5,1.68,2.07,2.07,0,0,0,.61,1.07c4.2,4.86,11,6.52,17.45,6.74a13.56,13.56,0,0,0,6.91-1.14,10.41,10.41,0,0,0,3.37-3.1,16.37,16.37,0,0,0,3.13-10.56c-.17-3-1.2-6.13-.42-9.08a2.44,2.44,0,0,1,.53-1.11c.7-.71,1.85-.52,2.83-.63,2.66-.31,4.39-3.13,4.71-5.79s-.35-5.35-.36-8a16.67,16.67,0,0,1,3.17-9.88c.88-1.23,2-2.43,2.32-4,.37-1.92-.74-3.32-1.7-4.84-1.49-2.35-2.22-5.11-4.49-6.91A12.15,12.15,0,0,0,576.14,326.78Z"/><path class="cls-8" d="M572.22,440.39s2.33,10.91,6.21,13.87Z"/><g class="cls-24"><path d="M553.62,347.09c-.11-.42-.26-.85-.4-1.27C553.38,346.25,553.43,346.63,553.62,347.09Z"/><path d="M586.78,337.63a4.18,4.18,0,0,1,0,1c-.3,1.53-1.43,2.73-2.32,4a16.72,16.72,0,0,0-3.17,9.89c0,2.69.68,5.37.36,8s-2,5.48-4.7,5.78c-1,.12-2.13-.07-2.83.64a2.56,2.56,0,0,0-.54,1.11c-.78,2.95.26,6,.43,9.08a16.49,16.49,0,0,1-3.18,10.55,10.49,10.49,0,0,1-3.37,3.09,13.48,13.48,0,0,1-6.91,1.15c-6.31-.21-13-1.84-17.24-6.51a1.56,1.56,0,0,0-.1.88,2.07,2.07,0,0,0,.61,1.07c4.2,4.86,11,6.52,17.45,6.74a13.62,13.62,0,0,0,6.92-1.14,10.62,10.62,0,0,0,3.37-3.1,16.49,16.49,0,0,0,3.13-10.56c-.18-3-1.2-6.13-.43-9.08a2.36,2.36,0,0,1,.54-1.11c.7-.71,1.84-.52,2.83-.63,2.66-.31,4.38-3.13,4.7-5.79s-.35-5.35-.36-8a16.69,16.69,0,0,1,3.17-9.88c.88-1.23,2-2.43,2.32-4A4.57,4.57,0,0,0,586.78,337.63Z"/></g></svg>