<?xml version="1.0" encoding="utf-8"?>
<!-- Generator: Adobe Illustrator 23.0.1, SVG Export Plug-In . SVG Version: 6.00 Build 0)  -->
<svg version="1.1" id="fac-cards-illustration" xmlns="http://www.w3.org/2000/svg" xmlns:xlink="http://www.w3.org/1999/xlink"
	 x="0px" y="0px" viewBox="0 0 1077.9 757.3" style="enable-background:new 0 0 1077.9 757.3;" xml:space="preserve">
<style type="text/css">
	.st0{opacity:0.15;fill:#7A3FD8;enable-background:new    ;}
	.st1{opacity:0.2;enable-background:new    ;}
	.st2{fill:#FFFFFF;}
	.st3{opacity:0.5;fill:#FFB866;enable-background:new    ;}
	.st4{opacity:0.5;fill:#3DDBD4;enable-background:new    ;}
	.st5{fill:url(#SVGID_1_);}
	.st6{fill:#DB8B8B;}
	.st7{opacity:0.1;enable-background:new    ;}
	.st8{fill:#2E3037;}
	.st9{fill:#A5ADAC;}
	.st10{fill:#FF7E61;}
	.st11{opacity:5.000000e-02;enable-background:new    ;}
	.st12{fill:#472727;}
	.st13{opacity:0.5;fill:#7ECE83;enable-background:new    ;}
	.st14{opacity:0.5;fill:#FF7E61;enable-background:new    ;}
	.st15{fill:#D38884;}
	.st16{fill:#505656;}
	.st17{fill:#CEDDF9;}
	.st18{fill:#1E1637;}
	.st19{fill:#FFD2C6;}
	.st20{fill:#3DDBD4;}
	.st21{fill:#FFB866;}
	.st22{fill:#985C7E;}
	.st23{opacity:0.1;}
</style>
<title>bg-gallery-cards</title>
<path class="st0" d="M625,182.2c-154-15-189.5-131-390.2-100c-364.9,56.4-254.1,609.1-8.7,604c239.1-5,418.5-118.8,588.1-91.6
	c281.1,45.2,355.3-414.4,97.5-459.4C795.2,114.8,779,197.2,625,182.2z"/>
<path class="st1" d="M446,389l-118.8,27c-17.1,0-30.9-13.8-30.9-30.9l0,0l0,0V197.2c0-17.1,13.8-30.9,30.9-30.9l0,0l0,0l118.8-27
	c17.1,0,30.9,13.8,30.9,30.9l0,0l0,0v187.9C476.9,375.2,463.1,389,446,389z"/>
<path class="st1" d="M734,404l-118.8-21c-17.1,0-30.9-13.8-30.9-30.9V164.2c0-17.1,13.8-30.9,30.9-30.9l118.8,21
	c17.1,0,30.9,13.8,30.9,30.9v187.9C764.9,390.2,751.1,404,734,404z"/>
<path class="st2" d="M728,399l-118.8-21c-17.1,0-30.9-13.8-30.9-30.9V159.2c0-17.1,13.8-30.9,30.9-30.9l118.8,21
	c17.1,0,30.9,13.8,30.9,30.9v187.9C758.9,385.2,745.1,399,728,399z"/>
<path class="st3" d="M750.5,277.7l-0.1-91.4c0-17.1-13.8-30.9-30.9-30.9l-103.2-21c-17.1,0-30.9,13.8-30.9,30.9c0,0,0,0,0,0l0,0
	v83.2L750.5,277.7z"/>
<polygon class="st2" points="595.2,195.5 696.7,216.5 696.7,231.3 595.1,210.3 "/>
<polygon class="st2" points="595.2,221.3 680.7,242.3 680.7,257.2 595.1,236.2 "/>
<path class="st1" d="M79.6,540.3c-15,0-27.2-15.4-27.2-34.4V297c0-19,131.9-90,131.9-90c15.1,0,27.2,15.4,27.2,34.4v209
	C211.5,469.3,79.6,540.3,79.6,540.3z"/>
<path class="st2" d="M87,534.8c-15,0-27.2-15.4-27.2-34.4v-209c0-19,131.9-90,131.9-90c31-17.7,27.2,15.4,27.2,34.4v209
	C218.9,463.8,87,534.8,87,534.8z"/>
<path class="st4" d="M213.8,330.8v-87.6c0-19,5.3-52.8-20.3-36.1c0,0-127.5,72.2-127.5,91.2v120.6L213.8,330.8z"/>
<polygon class="st2" points="74.7,331.7 164.1,276.1 164.1,292.7 74.6,348.3 "/>
<polygon class="st2" points="74.6,375.2 150,319.6 150,336.1 74.6,391.7 "/>
<ellipse class="st0" cx="228.6" cy="642.5" rx="59" ry="10.6"/>
<linearGradient id="SVGID_1_" gradientUnits="userSpaceOnUse" x1="3341.3044" y1="33.0066" x2="3341.3044" y2="325.6462" gradientTransform="matrix(-1 0 0 -1 3562.9399 678.63)">
	<stop  offset="0" style="stop-color:#808080;stop-opacity:0.25"/>
	<stop  offset="0.54" style="stop-color:#808080;stop-opacity:0.12"/>
	<stop  offset="1" style="stop-color:#808080;stop-opacity:0.1"/>
</linearGradient>
<path class="st5" d="M186.3,506.1c3,1.8,7.7,2.9,13.6-0.9l-0.1,8.4c0.4,5.8,7.5,26.7,7.5,26.7l5,17.3c3.6,12.2,5.5,24.8,5.5,37.5
	c-0.1,4,0.4,8,1.6,11.8c2.7,7.2-1,16.6-2.7,20c-2.7,0.9-5.5,1.7-8.3,2.3c-0.3,0.1-0.5,0.1-0.8,0.2l0,0c0,0-7.5,3-10.9,2.6
	c-2.5-0.3-4.1,2.8-2.1,5.1c-1.6,0.5-3.3,0.7-5,0.7c-3.4-0.4-5,5.3,1.2,7s41.9,0,41.9,0c2.1-1,3.2-3.3,2.7-5.6
	c2.7-0.1,4.4-0.2,4.4-0.2s6.3-2.9,0-10.7l-0.3,0.3l-1.4-4v-5.3c0,0,8-38.3,5.4-42.8s-3.8-27.6-3.8-27.6l0.8-25.1
	c2.3-4.7,3.4-12,4-17.8c0.9-2.7,1.4-5.6,1.6-8.4c0.1-1.3,0.2-2.8,0.2-4.2c0-3.2-0.5-6.4-1.5-9.5c2.8-4.2,6-8.2,9.5-11.9
	c2.9-2.7,4.3-6.7,3.8-10.7l-2.1-14l-5-23.8c0.6-6.6-0.7-10.4-2.3-12.6c0.4-2.1,0.7-4.3,1-6.4c1.1-9.3,0.6-18.8-1.5-28
	c-0.7-3.2-1.7-6.5-4-8.9c-2.5-2.7-6.7-4.4-7.6-8c-0.1-0.9-0.3-1.8-0.6-2.7c-0.9-2.4-3.8-3.2-6.4-3.5c-4.5-0.5-11.1-1-15.4,0.8
	c-3,1.3-7.2,4.7-8.9,8.4c-1,1.5-1.3,3.4-1,5.2c0.2,0.6,0.4,1.2,0.7,1.8c-0.7,1.8-1,3.6-1,5.5c0,6.6,4,12.5,10.2,14.9
	c0.1,0.3,0.2,0.6,0.3,0.9c0.2,0.7,0.3,1.5,0.4,2.2c-0.1,1.5-0.2,2.9-0.2,4.4c0,0.2-0.1,0.4-0.2,0.6c-3.6,1.6-7.1,3.4-10.6,5.5
	c2.5,3.7-0.4,19.3-0.4,19.3c-6.3,3.7-12.6,13.2-5.9,23s2.9,20.4,2.9,20.4l-1,16.1l0,0l-0.2,3.2h0.1l-0.1,1.2h0.2v1.3
	c-2.9,1-7.2,3.2-9.8,7.2c-1.2,2-2.7,3.8-4.4,5.4c-1.4,1.1-1.6,3.2-0.5,4.5C185.6,505.6,185.9,505.9,186.3,506.1z M236.9,463.4
	c-0.3-2.8,0.3-5.6,1.5-8.1h3c0.1,0.7,0.2,1.4,0.4,2C242.6,460.9,239.2,462.7,236.9,463.4L236.9,463.4z"/>
<path class="st6" d="M237.7,622.8l1.6,4.8l-5.2,5.2l-17.3,4l-12.5-1.2l0.8-4.4l0,0c0.5-1.9,2-3.5,4-3.9c5.2-1.2,14.9-4,17-7.8
	L237.7,622.8z"/>
<path class="st7" d="M237.7,622.8l1.6,4.8l-5.2,5.2l-17.3,4l-12.5-1.2l0.8-4.4l0,0c0.5-1.9,2-3.5,4-3.9c5.2-1.2,14.9-4,17-7.8
	L237.7,622.8z"/>
<path class="st8" d="M208.3,634.5l2.4-3.2l-2.4-3.7c0,0-7.2,2.9-10.5,2.5s-4.8,5.2,1.2,6.8s40.3,0,40.3,0s6-2.8,0-10.5l-5.2,4
	c0,0-8.9,4.8-13.3,4L208.3,634.5z"/>
<path class="st6" d="M197.4,641.3l12.5,1.2l17.3-4l5.2-5.2l-0.4-1.3l-0.6-1.8l-0.6-1.8l-11.7-3.3c-0.6,1-1.4,1.8-2.4,2.4
	c-3.8,2.6-10.6,4.5-14.6,5.4l-0.5,0.1c-0.8,0.3-1.5,0.7-2.1,1.2c-0.7,0.7-1.2,1.6-1.4,2.5L197.4,641.3z"/>
<path class="st7" d="M197.4,641.3l12.5,1.2l17.3-4l5.2-5.2l-0.4-1.3l-4.8,3.7c0,0-8.9,4.8-13.3,4h-12.5l2.4-3.2l-2.2-3.3
	c-0.8,0.3-1.5,0.7-2.1,1.2c-0.7,0.7-1.2,1.6-1.4,2.5L197.4,641.3z"/>
<path class="st8" d="M201.5,640.1l2.4-3.2l-2.4-3.7c0,0-7.2,2.9-10.5,2.5s-4.8,5.2,1.2,6.8s40.3,0,40.3,0s6-2.8,0-10.5l-5.2,4
	c0,0-8.9,4.8-13.3,4L201.5,640.1z"/>
<path class="st6" d="M211.5,406.4c0,0,19.3,2,16.6-6c-0.8-2.3-1-4.7-0.6-7.1c0.5-3,1.7-5.8,3.4-8.2l-18.1,2.8
	c1.1,1.8,1.9,3.8,2.4,5.8C217.4,402.2,211.5,406.4,211.5,406.4z"/>
<path class="st9" d="M244.5,498.3c0,0-0.4,17.3-4.4,25.8l-0.9,24.6c0,0,1.2,22.6,3.6,27s-5.2,41.9-5.2,41.9v6.5
	c0,0-12.9,4.8-16.6-0.8l3.7-48l-1.6-66.5L244.5,498.3z"/>
<path class="st7" d="M244.5,498.3c0,0-0.4,17.3-4.4,25.8l-0.9,24.6c0,0,1.2,22.6,3.6,27s-5.2,41.9-5.2,41.9v6.5
	c0,0-12.9,4.8-16.6-0.8l3.7-48l-1.6-66.5L244.5,498.3z"/>
<path class="st10" d="M252.6,442.6l2.4,6.5l2.1,13.7c0.6,3.9-0.8,7.8-3.6,10.5c-4.8,4.8-11.3,14.9-11.3,14.9l-7.7-23
	c0,0,7.7-1.2,6.4-6.5s-0.8-14.9-0.8-14.9L252.6,442.6z"/>
<path class="st11" d="M252.6,442.6l2.4,6.5l2.1,13.7c0.6,3.9-0.8,7.8-3.6,10.5c-4.8,4.8-11.3,14.9-11.3,14.9l-7.7-23
	c0,0,7.7-1.2,6.4-6.5s-0.8-14.9-0.8-14.9L252.6,442.6z"/>
<path class="st7" d="M216.8,627.6c5.2,8.1,13.2,3.5,14.6,2.6l-0.6-1.8l-11.7-3.2C218.6,626.2,217.8,627,216.8,627.6z"/>
<path class="st9" d="M200.7,514c0.4,5.6,7.2,26.2,7.2,26.2l4.8,16.9c3.5,12,5.3,24.3,5.3,36.8c-0.1,3.9,0.4,7.8,1.6,11.6
	c3.2,8.9-3.2,21-3.2,21c5.6,10.1,15.3,3.2,15.3,3.2v-6.5c0,0,7.7-35.1,5.6-41.9s-2.8-25.4-2.8-25.4v-33.5c6.4-6.4,10.3-15,11-24.1
	c0.1-1.3,0.2-2.7,0.2-4.2c0.3-9.1-5.9-19.8-8.3-23.6c-0.6-0.9-0.9-1.4-0.9-1.4L201,483.4h-0.1v4.4L200.7,514z"/>
<path class="st7" d="M212.8,387.9c1.1,1.8,1.9,3.8,2.4,5.8c4,1.5,8.4,1.4,12.3-0.4c0.5-3,1.7-5.8,3.4-8.2L212.8,387.9z"/>
<circle class="st6" cx="220.8" cy="378.2" r="15.7"/>
<path class="st7" d="M200.7,487.8h0.2c16.9,3.5,38.1-14.1,38.1-14.1c-0.6-1-1.1-2-1.5-3c-0.6-0.9-0.9-1.4-0.9-1.4l-35.6,14.1
	l-0.1,1.4L200.7,487.8z"/>
<path class="st10" d="M205.1,406c0,0,22.6-13.7,29.8-8.1l10,12.9c0,0,6.4,2,5.2,14.9l4.8,23.3l-14.5,3.6c0,0-8.6,8.1-1.7,19.8
	c0,0-21.4,17.7-38.3,14.1l1.2-18.9c0,0,3.6-10.5-2.8-20.1s-0.4-19,5.6-22.6C204.7,424.9,207.5,409.6,205.1,406z"/>
<path class="st6" d="M203.9,488.2c0,0-8.5,1.6-12.5,8c-1.2,1.9-2.6,3.7-4.2,5.3c-1.3,1.2-1.4,3.2-0.2,4.5c0.2,0.2,0.5,0.4,0.7,0.6
	c3.2,1.9,8.4,3.1,15-2.3C214,495,203.9,488.2,203.9,488.2z"/>
<path class="st7" d="M216.4,413.6c0,0,8.1-0.8,10.1,20.1s5.2,25.8,5.2,25.8s2,10.9-2.8,17.3c-4.8,6.5-14.1,20.1-14.1,20.1
	s-10.1,2.8-12.1-7.2l12.5-23.4c0,0,2-8-2.8-13.7S203.9,409.6,216.4,413.6z"/>
<path class="st10" d="M215.6,412.5c0,0,8.1-0.8,10.1,20.1s5.2,25.8,5.2,25.8s2,10.9-2.8,17.3c-4.8,6.4-14.1,20.1-14.1,20.1
	s-10.1,2.8-12.1-7.2l12.5-23.4c0,0,2-8.1-2.8-13.7S203.1,408.4,215.6,412.5z"/>
<path class="st7" d="M208.9,427.5c0,0-0.8,12.5,2.8,19.4s3.6,15.7,0,20.6"/>
<path class="st7" d="M206.9,412.2c0,0,3.2-3.2,12.5-3.6s13.3-3.2,13.3-3.2"/>
<path class="st7" d="M229.3,357.9c2.4,0.3,5.2,1.1,6.1,3.5c0.2,0.9,0.4,1.8,0.5,2.7c0.9,3.5,4.9,5.2,7.3,7.9
	c2.2,2.4,3.1,5.6,3.8,8.7c2,9,2.5,18.2,1.4,27.4c-0.8,6.7-2.4,13.3-2.8,20s0.4,13.8,4,19.4c1.6,2.4,3.7,4.6,4.8,7.2
	c-2.3,1.9-5.5,2.1-8.5,2.2c-3.4,0.1-6.9,0.1-10.4,0c-1.8,0.1-3.6-0.3-5.3-1.1c-1.2-0.8-2.1-1.8-2.8-3c-2-3.4-2.5-7.4-2.4-11.3
	s0.7-7.8,0.8-11.7c0-2.1-0.1-4.4-1.4-6.1c-1-1.2-2.1-2.2-3.4-3.1c-4.3-3.8-5.8-10-5.9-15.7s0.8-11.5,0.3-17.3c-0.2-2.2-1-5-3.2-5.4
	c-0.7,0-1.4-0.1-2.1-0.3c-1.8-0.7-1.6-3.2-2.1-5c-0.6-2.1-2.3-3.6-2.8-5.7c-1.2-4.9,5-10.7,9.1-12.4S225,357.3,229.3,357.9z"/>
<path class="st12" d="M229.7,357.1c2.4,0.3,5.2,1.1,6.1,3.4c0.2,0.9,0.4,1.8,0.6,2.7c0.9,3.5,4.9,5.2,7.3,7.9
	c2.2,2.4,3.1,5.6,3.8,8.7c2,9,2.5,18.2,1.5,27.4c-0.8,6.7-2.4,13.3-2.9,20s0.4,13.8,4,19.4c1.6,2.4,3.6,4.6,4.8,7.2
	c-2.3,1.9-5.5,2.1-8.5,2.2c-3.5,0.1-6.9,0.1-10.4,0c-1.8,0.1-3.6-0.3-5.3-1.1c-1.2-0.7-2.1-1.8-2.8-3c-2-3.4-2.5-7.4-2.4-11.3
	s0.7-7.8,0.8-11.7c0-2.1-0.1-4.4-1.3-6.1c-1-1.2-2.1-2.2-3.4-3.1c-4.3-3.8-5.8-9.9-5.9-15.7s0.8-11.5,0.3-17.3
	c-0.2-2.2-1-4.9-3.2-5.4c-0.7,0-1.4-0.1-2.1-0.3c-1.8-0.7-1.6-3.2-2.1-5c-0.6-2.1-2.3-3.6-2.8-5.7c-1.2-4.9,5-10.7,9.1-12.4
	S225.4,356.6,229.7,357.1z"/>
<ellipse class="st0" cx="102.6" cy="679.5" rx="45.2" ry="6.7"/>
<ellipse class="st0" cx="257.2" cy="706.5" rx="45.2" ry="6.7"/>
<ellipse class="st0" cx="762.9" cy="608.3" rx="59.2" ry="6.6"/>
<path class="st2" d="M451,384l-118.8,27c-17.1,0-30.9-13.8-30.9-30.9l0,0l0,0V192.2c0-17.1,13.8-30.9,30.9-30.9l0,0l0,0l118.8-27
	c17.1,0,30.9,13.8,30.9,30.9l0,0l0,0v187.9C481.9,370.2,468.1,384,451,384z"/>
<path class="st13" d="M473.5,254.4v-83.2c0-17.1-13.8-30.9-30.9-30.9l0,0l0,0l-103.1,27c-17.1,0-30.9,13.8-30.9,30.9c0,0,0,0,0,0
	l0,0v95.8L473.5,254.4z"/>
<polygon class="st2" points="318.2,228.5 419.7,201.5 419.7,216.3 318.1,243.3 "/>
<polygon class="st2" points="318.2,254.3 403.7,227.3 403.7,242.2 318.1,269.2 "/>
<path class="st1" d="M978.4,547.8c0,0-129.3-62.2-129.3-82.3V244c0-20.1-2.4-43.8,24.9-32.8c0,0,131.1,58.1,131.1,78.2v221.4
	C1005.1,530.9,993.2,547.5,978.4,547.8z"/>
<path class="st2" d="M971.8,544c0,0-129.3-62.2-129.3-82.3V240.2c0-20.1-2.4-43.8,24.9-32.8c0,0,131.1,58.1,131.1,78.2v221.5
	C998.5,527.2,986.5,543.8,971.8,544z"/>
<path class="st14" d="M991.2,419.5V292.9c0-20.1-122.5-79.3-122.5-79.3c-24.2-12.3-20,13.5-20,33.6v98L991.2,419.5z"/>
<polygon class="st2" points="857,282.7 944.7,329.4 944.7,346.9 857,300.2 "/>
<polygon class="st2" points="857,316.2 930.9,351.4 930.9,368.9 857,333.7 "/>
<ellipse class="st0" cx="538.9" cy="524.7" rx="94" ry="16.1"/>
<path class="st15" d="M520,307.4c-0.5,1-0.8,2-1,3.1c-0.1,0.3-0.1,0.5-0.2,0.8c-0.6,3.1-1,6.9-1.2,9.1c-0.1,1.1-0.2,1.8-0.2,1.8
	s-21.7-1.5-17.9-5.1c1-1,1.7-2.2,2-3.6c0.1-0.4,0.2-0.8,0.3-1.2c0.2-0.9,0.3-1.8,0.4-2.8V309c0.1-1.5,0-3-0.2-4.5c0,0,7,0,12.4,0.6
	C517.9,305.5,520.7,306.2,520,307.4z"/>
<path class="st15" d="M482.4,410.6c-7.4-0.2-2-15.6-1.1-17.7s-1.3-7.1-1.3-7.1s-2.5-14.7-2.5-15.6c-0.1-2-0.4-4-0.8-5.9
	c-0.3-2,0.1-4,1-5.8c0.9-1.3,0.7-6.7,0.7-6.7v-6.9l1.6-2.2l4.2,4l1.2,1.1l2.1,7.7l-0.7,11.1l-0.4,10.8l2.5,14.9
	C488.9,392.2,489.8,410.9,482.4,410.6z"/>
<polygon class="st7" points="484.7,348.5 478.4,345.9 478.4,344.9 480.1,342.7 484.3,346.7 "/>
<path class="st16" d="M481.8,332.7c-0.8,2-1.4,4.1-1.8,6.2c-0.3,2-0.9,4-1.7,5.9l7,2.9L481.8,332.7z"/>
<path class="st11" d="M481.8,332.7c-0.8,2-1.4,4.1-1.8,6.2c-0.3,2-0.9,4-1.7,5.9l7,2.9L481.8,332.7z"/>
<path class="st15" d="M537.6,485.7L537,487c0,0-0.6,4.1-0.6,4.2s-1.8,2.8-1.8,2.8L530,495l-1.9-0.2c-0.1-1.1-0.3-2.3-0.5-3.4
	c-0.1-0.3-0.1-0.6-0.2-1c-0.7-2.6-1.8-5-3.2-7.2c0,0-3.4-8.4-4.6-9.5s-5.8-12.1-5.3-14.8c0.3-1.5,0-6.4-0.2-10.4
	c-0.2-3.3-0.4-6.1-0.4-6.1l11.5-6.8l1.3,2.1l0,0l0.8,1.2c0,0.2,0,0.4,0,0.6v0.1c-0.1,1.7-0.5,3.4-1,5c0,0-0.9,6.2,0,7.3
	s3.6,15.7,4.2,22.4v0.6c0.2,3.1,2.2,5.9,4.1,7.9l0,0c0.1,0.1,0.2,0.3,0.4,0.4C535.7,484.2,536.6,485,537.6,485.7z"/>
<path class="st7" d="M528,494.8l2,0.2l4.6-1c0,0,1.8-2.8,1.8-2.8s0.6-4.2,0.6-4.2l0.6-1.2l0.1-0.2c-1.1-0.8-2.2-1.6-3.1-2.6l0,0
	l-0.3-0.3c-0.1-0.1,0.7,4-2.8,5.8c-1.7,0.9-3.1,1.5-4,2L528,494.8z"/>
<path class="st17" d="M538.4,486.3l-0.7,1.4c0,0-0.6,4.1-0.6,4.2s-1.8,2.8-1.8,2.8l-4.6,1l-2.6-0.3c0-0.7-0.1-1.5-0.2-2.2
	c-0.1-0.5-0.2-1.2-0.3-1.8c1-0.5,2.5-1.2,4.5-2.2c3.5-1.8,2.8-5.8,2.8-5.8c0.8,0.7,1.6,1.5,2.4,2.1L538.4,486.3z"/>
<path class="st7" d="M538.4,486.3l-0.7,1.4c0,0-0.6,4.1-0.6,4.2s-1.8,2.8-1.8,2.8l-4.6,1l-2.6-0.3c0-0.7-0.1-1.5-0.2-2.2
	c0.6,0,1.1,0.1,1.7,0.2c0,0,6.2,1.3,6.5-3.6c0.2-2.8,0.8-3.9,1.2-4.3L538.4,486.3z"/>
<path class="st10" d="M537.9,486c0,0-1.5-0.3-1.9,4.6s-6.5,3.6-6.5,3.6s-3.1-0.8-3.1,0.5c0.1,1.2,0.4,2.3,0.8,3.4
	c0,0,0.2,2.9,0.8,3.6s0.2,3.3,0.2,3.3s0.2,1.9,5.1,0c0,0,4.3-0.9,7.9-6.2c0.1-0.2-0.4-0.7,2.7-1.8s12-8.3,11.4-11.8
	c-0.1-1.2-1-2.2-2.1-2.5c-0.9-0.2-1.9-0.1-2.8,0.4c-0.8,0.5-1.7,0.9-2.6,1.2c-1.2,0.5-2.4,0.8-3.7,0.9c-1,0.1-1.9,0.3-2.9,0.5
	C540.1,486.1,539,486.2,537.9,486z"/>
<path class="st15" d="M502.6,452c-0.7,0.6-1.3,1.2-1.8,2c-1.8,2.7-2.8,6.5-4,8.1c-1.5,2.1-2,6.2-2,6.2c-0.4,2.7-6.1,17-7.6,19.5
	s-3.7,9.5-3.7,9.5c-1.3,1.6-1.2,4.1-1.1,5.2c0,0.2,0,0.3,0.1,0.5c0,0.1,0,0.1,0,0.2v0.1l-2.1,3.6l-6.7-0.9l-3.5-2.3
	c0.3-0.5,0.5-0.9,0.8-1.4c1.8-4.1,3.1-11.5,3.1-11.5s1.9-8.4,1.7-10.4c0-2.7,0.2-5.3,0.5-8c0,0,5.3-16,6.9-18.6
	c0.7-1,1.1-2.2,1.3-3.5c0-0.2,0-0.5,0-0.8l2.3-2.2C486.9,447.1,505.5,449.7,502.6,452z"/>
<path class="st7" d="M482.5,502.5v0.8l-2.1,3.6l-6.7-0.9l-3.5-2.3c0.3-0.5,0.5-0.9,0.8-1.4c1.7-0.5,5.5,0.9,5.5,0.9
	S480.7,503.8,482.5,502.5C482.5,502.5,482.5,502.5,482.5,502.5z"/>
<path class="st17" d="M480.9,512l-6.8,1.6l-6.2-4.6l0.3-2.6c0.4-0.3,0.8-0.6,1.1-1c0.5-0.5,0.8-1.2,0.9-1.9c0.4-1.9,6.3,0.2,6.3,0.2
	s4.3,0.8,6-0.5c-0.1,1.3,0,2.5,0.3,3.7c0.2,0.6,0.5,1.1,1,1.5C485.6,509.6,480.9,512,480.9,512z"/>
<path class="st7" d="M480.9,512l-6.8,1.6l-6.2-4.6l0.3-2.6c0.4-0.3,0.8-0.6,1.1-1h1.4c1,0.1,3.5,4.5,3.5,4.5c6.1,0.4,8-1.6,8.6-3.1
	c0.2,0.6,0.5,1.1,1,1.5C485.6,509.6,480.9,512,480.9,512z"/>
<path class="st10" d="M474.2,510.7c0,0-2.5-4.5-3.5-4.5c-0.9,0-1.8,0-2.6,0c0,0-2.7,6.5-3.7,7s-2.5,3.6-2.5,3.6s7.2,7,14.2,5.6
	c2.2,0,4.4,0.6,6.4,1.6c3.2,1.7,16.7,0.4,18.3-2.5c1.2-2.2,1.7-3.8,0.6-5c-0.7-0.7-1.6-1-2.5-0.9c-1.7,0.2-5.5,0.2-8.8-3.9
	c0,0-6.1-5.6-6.6-5.6S483.8,511.4,474.2,510.7z"/>
<path class="st7" d="M527.2,439.7L527.2,439.7c-0.4,0.5-3.4,3.8-4.3,4c-1.5,0.6-2.9,1.2-4.3,1.9c0,0-1.8,2.4-3.3,2.5
	c-0.4,0.1-0.9,0.2-1.3,0.3c-0.2-3.3-0.4-6.1-0.4-6.1l11.5-6.8l1.3,2.1l0,0C526.8,438.6,527.1,439.4,527.2,439.7L527.2,439.7z"/>
<path class="st17" d="M485.4,392.9c0,0-4.5,5.8,0,13.6c2.4,4.4,5.5,8.3,9.2,11.6l15.3,31.6c0,0,4-2.2,5.5-2.3s3.3-2.5,3.3-2.5
	c1.4-0.7,2.9-1.4,4.3-1.9c1-0.2,4.3-4,4.3-4s-1.7-3.6-1.3-4.6s-1.1-3.4-1.1-3.4c-0.5-1.2-0.8-2.5-1-3.8c0-1-1.6-3.3-1.6-3.3
	s-1.6-2.4-1.6-3.8s-2.3-6.6-2.3-6.6l-0.6-23L485.4,392.9z"/>
<path class="st11" d="M527.2,439c0,0-3.4,3.8-4.3,4c-1.5,0.6-2.9,1.2-4.4,1.9c0,0-1.8,2.4-3.3,2.5c-1,0.2-2.1,0.6-3,1.1
	c-1.3,0.6-2.5,1.2-2.5,1.2l-15.3-31.6c-1.3-1.2-2.6-2.4-3.7-3.8c-2.1-2.4-3.9-5.1-5.5-7.8c-1.7-2.8-2.4-6.2-1.7-9.4
	c0.3-1.5,0.9-2.9,1.7-4.1l10.9-0.8l21.6-1.5l0.2,6.8l0.4,16.2l0.8,1.9c0.7,1.5,1.2,3.1,1.5,4.7c0,1.3,1.6,3.8,1.6,3.8
	s1.6,2.3,1.6,3.3c0.2,1.3,0.5,2.5,1,3.8c0,0,1.5,2.4,1.1,3.4S527.2,439,527.2,439z"/>
<path class="st7" d="M502.6,452c-0.7,0.6-1.3,1.2-1.8,2c-6.6,0.5-14.2-3-16.2-3.9c0-0.2,0-0.5,0-0.8l2.3-2.2
	C486.9,447.1,505.5,449.7,502.6,452z"/>
<path class="st17" d="M522,400.1c0,0-1,3.4-1.3,4.8s-1.1,8.6-1.1,8.6l-0.4,2l-6.9,33l-1.5,7.2c-2.7,1.5-9.3-2.4-9.3-2.4
	c-7.8,0.9-17.3-4.1-17.3-4.1s1.6-5.1,1.2-7.6s2.2-4.6,2.2-4.6c-0.6-2.3,1.6-12.4,1.6-12.4s0.5-3.8,2.3-4.7s-0.2-2.4-0.7-3.3
	c-0.2-0.7-0.1-1.5,0.2-2.2c0.2-0.6,0.4-1.1,0.6-1.6c-4.6-4.6-5.3-11.8-5.3-15.9c0-1,0-2,0.1-2.9l10-1.8l21.9-3.8l2.2,6.9l0,0
	l0.6,1.7L522,400.1z"/>
<path class="st7" d="M520,307.4c-0.5,1-0.8,2-1,3.1c-0.1,0.3-0.1,0.5-0.2,0.8c-2.1,1.4-3.4,1.4-6.1,1.4c-0.9,0-1.5-1.8-2.3-2
	c0,0-1.3-4.8-1.7-0.8c-2.5-0.5-4.7,1.5-6.5-0.3l0,0V309c0.1-1.5,0-3-0.2-4.5c0,0,7,0,12.4,0.6C517.9,305.5,520.7,306.2,520,307.4z"
	/>
<path class="st15" d="M525,299.3c0,7.5-6.1,13.5-13.5,13.5h0l0,0c-0.9,0-1.8-0.1-2.7-0.3l0,0c-7.3-1.5-12-8.6-10.5-15.9
	c1.5-7.3,8.6-12,15.9-10.5c3.8,0.8,7.1,3.2,9,6.6C524.4,294.6,525,296.9,525,299.3z"/>
<path class="st7" d="M517.6,320.5c-0.1,1.1-0.2,1.8-0.2,1.8s-21.7-1.5-17.9-5.1c1-1,1.7-2.2,2-3.6l9.4,1.5c0,0,2.7,2.1,4.7,4
	C516.2,319.7,516.9,320.1,517.6,320.5z"/>
<path class="st7" d="M520.8,397.6c-1,0.1-1.9,0.1-2.8-0.2c-0.4-0.1-0.8-0.3-1.2-0.5c-1.8-1.1-7.9,0.2-7.9,0.2s-16.5,1.1-17.2,0
	c-0.4-0.6-3.3-0.5-5.7-0.4c-1,0.1-1.8,0.2-2.5,0.2c0.3-1.5,0.9-2.9,1.7-4.1l10.9-0.8l21.8-3.8l2.2,6.9l0,0
	C520.4,396,520.6,396.8,520.8,397.6z"/>
<path class="st16" d="M510.9,315.9l-11.8-1.9c-0.4,0.9-1.2,1.6-2.2,1.9c-1.6,0.4-8.6,4-11.8,8.4l-3.2,4.4c0,0-2.5,3.1-1.7,5.7
	s1.8,11.1,1.8,11.1l1.2,9.6c0,0,2.3,6.9,1.6,9.9s0.4,15.8,0.4,15.8l-2.4,15.8c0,0,8.2-1.1,9,0s17.2,0,17.2,0s6-1.3,7.9-0.2
	c1.2,0.7,2.6,0.9,4,0.7c0,0-1.5-5-0.6-7.8s0.6-7.9,0.6-7.9s1.2-7.4,0.6-8.7s1.3-6.2,1.3-6.2l6.4-33.8c0,0-0.8-6.1-4.2-8.1
	s-7.3-2.7-9.4-4.6S510.9,315.9,510.9,315.9z"/>
<path class="st15" d="M516.4,349.2v4l3.7,10.1l1.3,9.3c0,0,2.4,6.7,2.4,9s5.9,13.5,5.9,13.5s1.6,3.8,0.8,4.5s-7.8,16.7,1,16.2
	s6.1-17.2,6.1-17.2l-1.2-7.3c0,0-1.7-18.2-1.7-19.5c0,0-2.2-7.8-2.4-9.5s-1.8-10.3-1.8-10.3l-1.3-5.6L516.4,349.2z"/>
<polygon class="st7" points="512.1,361.8 499,369.4 494.9,375.5 500.3,370 "/>
<path class="st7" d="M508.1,376.3c0,0-6,3.9-8.8,3.9s-9.4,6.7-9.4,6.7s9.3-6,10-5.8S508.1,376.3,508.1,376.3z"/>
<path class="st7" d="M492.8,378.4c0,0-5.6,5.1-4.2,5.6s9-5.6,9-5.6H492.8z"/>
<path class="st7" d="M517.7,360.2c0,0-4.3,5.9-3.2,5.8s4.5-3.5,4.5-3.5L517.7,360.2z"/>
<path class="st7" d="M518.3,366c0,0-4.7,5.4-4.5,6.7S518.3,366,518.3,366z"/>
<path class="st7" d="M519.5,368.7c0,0-3.2,5.7-1.8,6.9S519.5,368.7,519.5,368.7z"/>
<path class="st7" d="M515.4,354.1c0,0-2.4,4-0.7,4.3s1.9,0,1.9,0L515.4,354.1z"/>
<path class="st7" d="M516,339.5c-0.6,2.4-1.4,4.8-2.4,7.1c-0.4-1.2-0.7-2.4-0.9-3.6C513.6,341.7,514.8,340.5,516,339.5z"/>
<path class="st7" d="M523.2,292.6c-0.2,0.5-0.5,1-0.9,1.4c-0.6,0.6-1.2,1.2-1.6,1.9c-0.4,1-0.6,2.1-0.6,3.2c-0.2,1.1-0.9,2.3-2,2.3
	c-0.6,0-1.1-0.2-1.6-0.5c-0.5-0.3-1.1-0.3-1.6,0c-0.3,0.3-0.5,0.8-0.5,1.2c-0.1,0.9-0.2,1.9-0.2,2.8c0,0.4,0,0.8,0.1,1.1
	c0.3,1.2,0.2,2.4-0.2,3.6c-0.5,0.8-1.3,1.5-2.2,1.8c-1,0.4-2.1,0.7-3.1,0.9l0,0c-2.1,0.3-4.1,0.3-6.2,0.2c-0.2,0-0.4,0-0.6-0.1
	c-0.1,0-0.2-0.1-0.2-0.1c0.2-1.1,0.4-2.3,0.4-3.5c-5.3-5.2-5.5-13.7-0.3-19.1s13.7-5.5,19.1-0.3l0,0
	C521.8,290.5,522.6,291.5,523.2,292.6z"/>
<path class="st18" d="M517.6,281.2c-1.2-0.1-2.4,0.5-3.6,0.8c-2.5,0.5-5.1-0.6-7.6-0.6c-2.2,0.1-4.4,0.8-6.3,1.9
	c-1.6,0.7-3,1.7-4.2,2.9c-1.2,1.2-1.9,2.9-2,4.6c0.2,1,0.1,2-0.1,3c-0.3,0.5-0.6,1-0.9,1.4c-0.6,1-0.8,2.3-0.4,3.5
	c0.5,1.1,1.2,2.2,2.1,3.1c1.6,2.1,2.7,4.7,4.2,6.9c0.6,1,1.4,1.9,2.2,2.8c0.1,0.2,0.3,0.3,0.5,0.4c0.2,0.1,0.4,0.1,0.5,0.1
	c3.2,0.1,6.4,0.2,9.3-1.1c0.9-0.3,1.7-1,2.2-1.8c0.4-1.2,0.5-2.4,0.2-3.6c-0.1-1.3-0.1-2.7,0.1-4c0-0.4,0.2-0.9,0.5-1.2
	c0.5-0.3,1.1-0.3,1.6,0c0.5,0.3,1,0.4,1.6,0.5c1.1,0,1.8-1.2,2-2.3c-0.2-2,0.6-3.9,2.2-5.1c1.5-1.9,2-4.5,1.4-6.8
	C522.3,284.3,520.1,281.5,517.6,281.2z"/>
<path class="st7" d="M530.6,338.6c-0.3,1.7-0.3,3.3,0,5c-0.1,1.3,0,8.7,0,8.7c-4-1.2-14.2,1.2-14.2,1.2l-1.2-3.6
	c-0.7-0.9-1.2-1.9-1.5-3c-0.4-1.2-0.7-2.4-0.9-3.6c-0.5-2.5-0.9-5.1-1.2-7.6c-0.5-3.9,5.2-8,9.6-10.3s8.1,7.5,8.1,7.5
	S531,336.7,530.6,338.6z"/>
<path class="st16" d="M530.6,337.9c-0.3,1.7-0.3,3.3,0,5c-0.1,1.3,0,8.7,0,8.7c-4-1.2-14.2,1.2-14.2,1.2l-1.2-3.6
	c-0.7-0.9-1.2-1.9-1.5-3c-0.4-1.2-0.7-2.4-0.9-3.6c-0.5-2.5-0.9-5-1.2-7.6c-0.5-3.9,5.2-8,9.6-10.3s8.1,7.5,8.1,7.5
	S531,336,530.6,337.9z"/>
<path class="st1" d="M522.9,286.5c-0.2-0.7-0.5-1.3-0.9-2c0.1,0.2,0.1,0.3,0.2,0.5c0.7,2.4,0.1,4.9-1.4,6.8
	c-1.6,1.2-2.5,3.1-2.2,5.1c-0.2,1.1-0.9,2.3-2,2.3c-0.6,0-1.1-0.2-1.6-0.5c-0.5-0.3-1.1-0.2-1.6,0c-0.3,0.3-0.5,0.7-0.5,1.2
	c-0.2,1.3-0.2,2.7-0.1,4c0.1,1.2,0.3,2.5-0.2,3.6c-0.5,0.8-1.3,1.5-2.2,1.8c-2.9,1.2-6.2,1.2-9.4,1.1c-0.4,0-0.8-0.2-1-0.5
	c-0.8-0.9-1.5-1.8-2.2-2.8c-1.5-2.3-2.5-4.8-4.2-6.9c-0.5-0.6-0.9-1.1-1.4-1.8v0.1c0.5,1.1,1.2,2.2,2.1,3.1c1.7,2.1,2.7,4.7,4.2,6.9
	c0.7,1,1.4,1.9,2.2,2.8c0.1,0.2,0.3,0.3,0.5,0.4c0.2,0.1,0.4,0.1,0.5,0.1c3.2,0.1,6.4,0.2,9.4-1.1c0.9-0.3,1.7-1,2.2-1.8
	c0.4-1.2,0.5-2.4,0.2-3.6c-0.1-1.3-0.1-2.7,0.1-4c0-0.4,0.2-0.9,0.5-1.2c0.5-0.3,1.1-0.3,1.6,0c0.5,0.3,1,0.4,1.6,0.5
	c1.1,0,1.8-1.2,2-2.3c0-1.1,0.2-2.2,0.6-3.2c0.5-0.7,1-1.3,1.6-1.9C523,291.4,523.5,288.9,522.9,286.5z"/>
<path class="st19" d="M620.4,289.1l-8.7,18.4c0,0-1.3,3.5-2.1,4.1s-4.5,11.5-4.5,11.5l-9.3,14.3l0,0l-0.6,1l-3.6-1l-2.5-9.5l0.2-2.8
	v-0.4c0,0,5.7-6,7-6.5c0,0,1,0.1,2.9-4.5s3.6-5.6,3.6-5.6l1-3.4l10.7-17.1c0,0,9-12.9,11.5-7.2S620.4,289.1,620.4,289.1z"/>
<path class="st19" d="M584.5,419.6c0,0.3-0.1,0.6-0.3,0.9c-1,1.5-6.6,31.2-6.6,31.2c0.5,2-0.8,6-1.7,7.8s-2.6,11.3-2.6,11.3
	s-0.5,20.4-1.6,23.5s0.4,10,0.4,10c-0.1,3.1,1.8,6.5,2.9,8.1l0.2,0.3c0.4,0.5,0.6,0.8,0.6,0.8c0.3,0.6,0.7,1.1,1.3,1.6l0.3,0.2
	c1.5,1,3.3,1.8,5.1,2.2h0.2c0.7,0.2,1.2,0.2,1.2,0.2l0.5,2.5l-4.8,1l-9.2,0.6c0,0-10.8,0.8-8.4-4c0.2-0.3,0.3-0.7,0.4-1l0,0
	c0.1-0.2,0.2-0.5,0.2-0.7c1.5-4.6,0.5-10.3,0.5-10.3l-2.1-16.4c-3.5-15.3,2.7-32.3,2.7-32.3s-0.5-1.4,0.7-4.8s0-11,0-11
	s-0.6-9.7-1.5-14.5c-0.3-2-0.4-4.1-0.3-6.1c0-1.2,0.2-2.4,0.3-3.6l20.7-2.8C583.6,414.3,584.7,417.6,584.5,419.6z"/>
<path class="st7" d="M584.2,520.1l-4.8,1l-9.2,0.6c0,0-10.8,0.8-8.4-4c0.2-0.3,0.3-0.7,0.4-1l0,0c0.1-0.2,0.2-0.5,0.2-0.7
	c1.9,0.1,3.7,0.4,5.5,1.1c3.1,1.2,5.4-1.9,5.4-1.9l1.5-2.9l0.2-0.4c0.4,0.5,0.6,0.8,0.6,0.8c0.4,0.7,0.9,1.3,1.5,1.8l-0.3,0.5
	l-1.5,3.1c0,0,1.8,0.2,4.4,0.6c1,0.3,2.1-0.3,2.4-1.3h0.2c0.7,0.2,1.2,0.2,1.2,0.2L584.2,520.1z"/>
<path class="st20" d="M588.7,522.4c-0.4,1.6-10.5,2.1-10.5,2.1s-5.6-0.5-7.2,0.8s-6.2,1-6.4,1s-2.6-0.1-3.6-4.5s1.2-5,1.3-5.1l0,0
	c2,0,3.9,0.4,5.7,1.1c3.1,1.2,5.4-1.9,5.4-1.9l1.7-3.3c0.4,0.5,0.6,0.8,0.6,0.8c0.4,0.7,0.9,1.3,1.5,1.8l-1.7,3.6
	c0,0,1.9,0.2,4.4,0.6c1.1,0.3,2.3-0.4,2.5-1.6l0,0c0-0.1,0-0.3,0-0.4c0-0.1,0-0.2,0-0.3c0,0,1.6,0.5,3.5,1
	C587.9,518.7,589,520.5,588.7,522.4z"/>
<path class="st19" d="M607.7,441.2c-0.2,1.5-0.5,5.2-0.5,5.2c0.8,3.1-1.3,10.6-1.3,10.6l-1.1,4.3c0.5,5.5-3,18.8-3,18.8
	s-2.3,12.4-3.5,17.7c-0.7,3-0.5,6.1,0.6,8.9l0.1,0.2c0,0.1,0,0.2,0.1,0.3c0,0.1,0.1,0.3,0.1,0.4c0.3,0.7,0.7,1.4,1.2,2
	c0.2,0.2,0.4,0.5,0.7,0.7l0,0c1.1,1,2.4,1.8,3.9,2.4l0,0l0.6,0.2c0.6,0.2,1.3,0.4,1.9,0.6h0.2l-0.5,2.9l-6.4-1.7l-8.6-2.8l-4.2-2.3
	c0-0.2,0.1-0.5,0.1-0.7v-0.1c0-0.2,0.1-0.5,0.1-0.7c0.7-3.8,2.3-14.2,1.5-22c-1-9.6,3-22.8,3.9-25.9c0.6-1.8,0.8-3.7,0.7-5.6
	c-1.6-2.3-1.9-11.5-1.9-11.5s-2.9-5.9-5.3-12.2c-0.8-2.1-1.4-4.2-1.7-6.4c-0.3-1.5-0.4-3.1-0.3-4.6c0,0,19.5-17.8,21.7-0.6
	c0.1,0.6,0.1,1.1,0.2,1.7C608.8,436.9,608,439.8,607.7,441.2z"/>
<path class="st7" d="M607.7,513.6l-0.5,2.9l-6.4-1.7l-8.6-2.8l-4.2-2.4c0-0.2,0.1-0.5,0.1-0.7v-0.1c0-0.2,0.1-0.5,0.1-0.7h0.6
	c1.2-0.1,2.5,0,3.6,0.5c1.4,0.5,3.2,1.1,3.6,0.9c0.6-0.3,1.4-0.4,2.1-0.4l0.9-2l0.1-0.3c0.3,0.7,0.7,1.4,1.2,2
	c0.2,0.3,0.4,0.5,0.7,0.7v0.7v1c1,0.6,2,1.1,3.1,1.4c0.3,0.1,0.6,0.1,0.9,0l0,0l0.6,0.2c0.6,0.2,1.3,0.4,1.9,0.6l0,0L607.7,513.6z"
	/>
<path class="st20" d="M604.5,519.8c-1.8-0.5-6.1-1.3-6.8-0.7s-6.7,0-6.7,0c-1.3,0-2.5-0.7-3.1-1.8c-1.2-1.9-0.2-8.2-0.2-8.2h0.4
	l0.7-0.1l0,0c1.2-0.1,2.4,0,3.6,0.5c1.4,0.5,3.2,1.1,3.6,0.9c0.6-0.3,1.4-0.4,2.1-0.4l1-2.2c0.3,0.7,0.7,1.4,1.2,2
	c0.2,0.2,0.4,0.5,0.7,0.7l-0.1,1.7c1,0.6,2,1.1,3.1,1.4c0.5,0.2,1.2,0,1.5-0.5c0.1-0.1,0.1-0.2,0.1-0.2l0,0c0.8,0.4,1.7,0.7,2.5,0.8
	l0,0c2.3-0.2,4.5,1.3,5,3.6C614.1,520,606.3,520.3,604.5,519.8z"/>
<path class="st7" d="M584.5,419.6l-1.1,0.3c-0.9,0.3-1.8,0.4-2.7,0.6c-5.7,0.8-15.2,0.3-18.2,0.1c0-1.2,0.2-2.4,0.3-3.6l20.7-2.8
	C583.6,414.3,584.7,417.6,584.5,419.6z"/>
<path class="st20" d="M602.6,414.5c0,0-7.6,1.2-13.8,2.5c-2.1,0.5-4,0.9-5.4,1.4c-0.9,0.3-1.8,0.4-2.7,0.6c-6.9,1-19.1,0.1-19.1,0.1
	c-3.4-10.9,4.1-24.6,4.1-24.6c-0.2-1.1,1.5-4.4,1.5-4.4v-0.1l1.1-3.9h28.2l0.3,1.7l0.7,3.4l4.4,21.1L602.6,414.5z"/>
<path class="st7" d="M607,421.1l-0.2,0.1l-3.3,1.5c-3.6,1.6-14.3,2-18,2c-0.3-1.5-0.4-3.1-0.3-4.6c0,0,19.5-17.8,21.7-0.6
	C606.8,420,606.9,420.6,607,421.1z"/>
<path class="st20" d="M607.4,419.5l-0.7,0.3l-3.3,1.5c-3.6,1.7-14.7,2-18.2,2h-0.9c-1.6,0-3.3-1.6-3.3-2c0-0.2-0.2-1.3-0.3-2.2
	c-0.1-0.7-0.2-1.4-0.2-1.4c-3.8-1.6-7.5-3.5-11-5.7c-2.8-1.9-2.1-15.3-1.5-22.1c0.2-2.3,0.4-3.9,0.4-3.9l28.6,1.7l4,0.2l2.3,0.5
	l0.6,0.1c0,0,1.7,12,2.5,13s0.3,4.4,0.2,6.3c0,0.8-0.1,1.6-0.3,2.5c0,0,1.2,3.4,0.9,5.2C606.9,416.8,607.1,418.2,607.4,419.5z"/>
<circle class="st19" cx="576.8" cy="308.1" r="11.7"/>
<path class="st19" d="M571.1,313c0,0,0.8,11.1-1.5,13.6c-2.6,2.6-5.3,5.1-8.2,7.4l1.8,7.5l10.3,1.2l12-12.8l-2.7-3.3
	c0,0-2.1-7.1-0.4-10.6S571.1,313,571.1,313z"/>
<path class="st7" d="M595.9,337.4L595.9,337.4l-0.6,1l-3.6-1l-2.5-9.5l0.2-2.8l0.8-1.1c0,0,4,0.1,3.8,3.7
	C593.7,331,595.5,336.2,595.9,337.4z"/>
<path class="st7" d="M603.8,390c0,0-2.9,0.6-6.2,1.1s-7.1,0.7-8.7-0.3c-2.6-1.6-16.9-1.1-21-1h-0.7l1.1-3.9h28.2l0.3,1.7l4,0.2
	l2.3,0.5C603.6,389.4,603.8,390,603.8,390z"/>
<path class="st21" d="M589.3,324.8c0,0,4,0.1,3.8,3.7s2.2,9.9,2.2,9.9l-0.9,2.1c0,0-1.3,5.1-0.3,6.4s4.6,1.3,2.5,11.7
	c0,0-0.5,7.8,0.6,10.4s1.1,8.6,2.7,11.2c1.5,2.7,2.8,5.5,3.8,8.5c0,0-11.8,2.6-14.9,0.8s-22.1-0.9-22.1-0.9s0.1-3.2,0-3.5
	c-0.2-0.8,0-1.6,0.5-2.3c0.6-0.9,1.6-2.3,1.1-3.6s1.4-3.1,0.4-5.1s-2.2-2.4-2-3.4c0.1-1.3-0.3-2.5-1.1-3.5
	c-0.7-0.9-5.6-10.5-5.6-10.5l-0.8-4.5c0,0-6.3-4.6-6.2-6.8s2.4-5.2,2.4-5.2l6.1-6c0,0,3.4,3.6,6.6,2.4s10.3-7.3,10.3-7.3
	s2.5-1.4,2.7-2.4s1.7-0.1,1.7-0.1s2.3-1.2,2.7-0.8c0.8,0.4,1.6,0.7,2.5,0.8L589.3,324.8z"/>
<path class="st19" d="M555,343.7l-2,1.5c-1.5,3.1-2.3,6.5-2.4,9.9c-0.5,5.2-1.3,10.3-2.5,15.3l-3.8,6.8c0,0-6.3,13.2-7.1,16.7
	s-4.5,9.4-4.5,9.4s-12.6,11.4-3.8,13.4s9.1-9,9.1-9c1-1.1,1.8-2.4,2.4-3.8c0.4-1.5,11.5-21.3,11.5-21.3s3.9-5.3,3.1-8.1
	c0,0,5.1-12,5.1-15c-0.1-2.5-0.4-5-0.8-7.5l0.8-6.3L555,343.7z"/>
<path class="st7" d="M581.1,368.7c0,0-8.9,4.7-10.6,4.9s7.5-1,7.5-1L581.1,368.7z"/>
<path class="st7" d="M588.4,372.4c0,0-11.8,4-17,3.3C571.4,375.6,584.3,378.1,588.4,372.4z"/>
<path class="st7" d="M589.1,373.7c0,0-10.6,6.7-16.9,5.6c0,0,14.6,2.9,16.9,1.4l-6.5-1.8C582.6,378.8,589.8,375,589.1,373.7z"/>
<path class="st7" d="M576.9,287.5c-3.1-0.8-6.4-0.1-9,1.7c-1.8,1.4-3,3.6-5.1,4.7c-1.1,0.5-2.2,0.9-3.3,1.2
	c-4.1,1.7-6.5,5.9-5.8,10.3c0.3,1.8,1.2,3.5,1.6,5.2c0.7,3.2,0.1,6.5-0.7,9.6c-2.2,8.8-5.6,17.2-10.1,25c-0.4,0.5-0.5,1.1-0.5,1.7
	c0.1,0.4,0.3,0.8,0.6,1.1c4.2,4.9,11,6.5,17.5,6.7c2.4,0.2,4.8-0.2,6.9-1.1c1.3-0.8,2.5-1.8,3.4-3.1c2.2-3.1,3.3-6.8,3.1-10.6
	c-0.2-3-1.2-6.1-0.4-9.1c0.1-0.4,0.3-0.8,0.5-1.1c0.7-0.7,1.8-0.5,2.8-0.6c2.7-0.3,4.4-3.1,4.7-5.8s-0.3-5.4-0.4-8
	c0-3.5,1.1-7,3.2-9.9c0.9-1.2,2-2.4,2.3-4c0.4-1.9-0.7-3.3-1.7-4.8c-1.5-2.4-2.2-5.1-4.5-6.9C580.5,288.6,578.7,287.9,576.9,287.5z"
	/>
<path class="st22" d="M576.1,286.8c-3.1-0.8-6.3-0.1-8.9,1.7c-1.8,1.4-3,3.6-5.1,4.7c-1.1,0.5-2.2,0.8-3.3,1.2
	c-4.1,1.7-6.5,5.9-5.8,10.3c0.3,1.8,1.2,3.5,1.6,5.2c0.7,3.2,0.1,6.5-0.7,9.6c-2.2,8.7-5.6,17.1-10.1,25c-0.4,0.5-0.5,1.1-0.5,1.7
	c0.1,0.4,0.3,0.8,0.6,1.1c4.2,4.9,11,6.5,17.5,6.7c2.4,0.2,4.7-0.2,6.9-1.1c1.3-0.8,2.5-1.8,3.4-3.1c2.2-3.1,3.3-6.8,3.1-10.6
	c-0.2-3-1.2-6.1-0.4-9.1c0.1-0.4,0.3-0.8,0.5-1.1c0.7-0.7,1.8-0.5,2.8-0.6c2.7-0.3,4.4-3.1,4.7-5.8s-0.3-5.4-0.4-8
	c0-3.5,1.1-7,3.2-9.9c0.9-1.2,2-2.4,2.3-4c0.4-1.9-0.7-3.3-1.7-4.8c-1.5-2.4-2.2-5.1-4.5-6.9C579.8,287.9,578,287.1,576.1,286.8z"/>
<path class="st7" d="M572.2,400.4c0,0,2.3,10.9,6.2,13.9L572.2,400.4z"/>
<g class="st23">
	<path d="M553.6,307.1c-0.1-0.4-0.3-0.9-0.4-1.3C553.4,306.2,553.4,306.6,553.6,307.1z"/>
	<path d="M586.8,297.6c0,0.3,0,0.7,0,1c-0.3,1.5-1.4,2.7-2.3,4c-2.1,2.9-3.2,6.3-3.2,9.9c0,2.7,0.7,5.4,0.4,8s-2,5.5-4.7,5.8
		c-1,0.1-2.1-0.1-2.8,0.6c-0.3,0.3-0.5,0.7-0.5,1.1c-0.8,3,0.3,6,0.4,9.1c0.2,3.8-0.9,7.5-3.2,10.5c-0.9,1.3-2,2.3-3.4,3.1
		c-2.2,1-4.5,1.4-6.9,1.1c-6.3-0.2-13-1.8-17.2-6.5c-0.1,0.3-0.2,0.6-0.1,0.9c0.1,0.4,0.3,0.8,0.6,1.1c4.2,4.9,11,6.5,17.5,6.7
		c2.4,0.2,4.8-0.2,6.9-1.1c1.3-0.8,2.5-1.8,3.4-3.1c2.2-3.1,3.3-6.8,3.1-10.6c-0.2-3-1.2-6.1-0.4-9.1c0.1-0.4,0.3-0.8,0.5-1.1
		c0.7-0.7,1.8-0.5,2.8-0.6c2.7-0.3,4.4-3.1,4.7-5.8s-0.3-5.4-0.4-8c0-3.5,1.1-7,3.2-9.9c0.9-1.2,2-2.4,2.3-4
		C587.6,299.7,587.4,298.6,586.8,297.6z"/>
</g>
</svg>
