<svg xmlns="http://www.w3.org/2000/svg" viewBox="0 0 64 64"><title>fcicons-tape</title><g style="isolation:isolate"><g id="shadows"><path d="M26.5,12.4A21.4,21.4,0,1,0,47.9,33.8,21.4,21.4,0,0,0,26.5,12.4ZM27.7,43a9.2,9.2,0,1,1,9.2-9.2A9.2,9.2,0,0,1,27.7,43Z" style="opacity:0.2;mix-blend-mode:color-burn"/></g><g id="lines"><path d="M9.3,51.6a24.9,24.9,0,0,0,35,0l.5-.6a.1.1,0,0,0,.1-.1l9.8-9.8a24.7,24.7,0,0,0,0-35,2.9,2.9,0,0,0-4.2,0,2.9,2.9,0,0,0,0,4.2,18.8,18.8,0,0,1,1,25.5V34a24.5,24.5,0,0,0-7.2-17.5,24.8,24.8,0,1,0-35,35.1Zm4.2-30.8a18.7,18.7,0,0,1,13.3-5.5A18.3,18.3,0,0,1,40,20.8,18.2,18.2,0,0,1,45.5,34,18.3,18.3,0,0,1,40,47.3,18.7,18.7,0,0,1,13.5,20.8Z" style="fill:#fff"/><path d="M26.8,44.9a10.9,10.9,0,0,0,7.6-3.2,10.7,10.7,0,0,0,0-15.3h0a10.8,10.8,0,1,0-7.6,18.5ZM23.3,30.6a5.2,5.2,0,0,1,3.5-1.4,5.1,5.1,0,0,1,3.4,1.4h0a4.9,4.9,0,0,1-6.9,6.9A5.1,5.1,0,0,1,23.3,30.6Z" style="fill:#fff"/></g></g></svg>