<svg xmlns="http://www.w3.org/2000/svg" viewBox="0 0 64 64"><title>fcicons-writing-utensils</title><g style="isolation:isolate"><g id="shadows"><polygon points="9.6 54.3 47.8 16.2 46.5 10.9 55.7 7 51.7 18.8 13.6 58.3 9.6 54.3" style="opacity:0.2;mix-blend-mode:color-burn"/></g><g id="lines"><path d="M60.1,3.9a3.1,3.1,0,0,0-3.3-.7L43.7,8.8l-.8.6h-.1L4.2,48a5.2,5.2,0,0,0-1.4,3.6,5,5,0,0,0,1.4,3.5l4.6,4.6a4.9,4.9,0,0,0,3.6,1.5,4.7,4.7,0,0,0,3.5-1.5l6-6h0L54.5,21.1h0l.3-.4h.1a.5.5,0,0,0,.2-.4l5.6-13A3.1,3.1,0,0,0,60.1,3.9Zm-8.7,9.9-1.2-1.2,2-.9ZM9.2,51.6l3.2-3.2,3.2,3.2-3.2,3.2Zm10.6-4.3-3.2-3.2L44.9,15.8,48.1,19Z" style="fill:#fff"/></g></g></svg>