<svg xmlns="http://www.w3.org/2000/svg" viewBox="0 0 64 64"><title>fcicons-ideation</title><g style="isolation:isolate"><g id="shadows"><polygon points="23.3 39.6 40.7 39.6 40.7 51.6 35.3 59.3 28.7 59.3 23.3 52.7 23.3 39.6" style="opacity:0.2;mix-blend-mode:color-burn"/></g><g id="lines"><path d="M20.3,52.7a3.1,3.1,0,0,0,.7,2l5.4,6.5a3,3,0,0,0,2.3,1.1h6.6a3,3,0,0,0,2.3-1.1L43,54.7a3.1,3.1,0,0,0,.7-2V41.1C50.6,35.4,54,29.4,54,22.7c0-11.6-9.9-21-22-21s-22,9.4-22,21c0,6.7,3.4,12.7,10.3,18.4Zm17.4-6.2H26.3V42.6H37.7Zm-3.8,9.8H30.1l-3.2-3.8H37.1ZM16,22.7c0-8.3,7.2-15,16-15s16,6.7,16,15c0,4.9-2.7,9.4-8.3,13.9H24.3C18.7,32.1,16,27.6,16,22.7Z" style="fill:#fff"/><path d="M23.7,25.3a3,3,0,0,0,3-3,4.7,4.7,0,0,1,4.9-4.5,3,3,0,0,0,3-3,2.9,2.9,0,0,0-3-3A10.7,10.7,0,0,0,20.7,22.3,3.1,3.1,0,0,0,23.7,25.3Z" style="fill:#fff"/></g></g></svg>