<svg xmlns="http://www.w3.org/2000/svg" viewBox="0 0 64 64"><title>fcicons-hat</title><g style="isolation:isolate"><g id="shadows"><ellipse cx="32" cy="19" rx="13.5" ry="4.5" style="opacity:0.2;mix-blend-mode:color-burn"/><path d="M34,29.5l-17-2v8c0,.3,17,1.7,17,2v11c0,4-5,9-10,7,0,0,21.8,4.5,24-7,.8-4.1-2.2-19.3-1-22C47,26.5,44,29.5,34,29.5Z" style="opacity:0.2;mix-blend-mode:color-burn"/></g><g id="lines"><path d="M23.1,16.4a3,3,0,0,0-4.2,4.2h0a8.1,8.1,0,0,0,3.3,1.8A34.9,34.9,0,0,0,32,23.5a34.9,34.9,0,0,0,9.8-1.1,8.1,8.1,0,0,0,3.3-1.8,3,3,0,0,0-4.2-4.2l1.4,1.4-1.2-1.6-.2.2,1.4,1.4-1.2-1.6.3.4-.3-.4h0l.3.4-.3-.4a7,7,0,0,1-1.9.6,27.8,27.8,0,0,1-7.2.7,27.4,27.4,0,0,1-8-.9l-1.1-.4h0v0h0v0" style="fill:#fff"/><path d="M23.1,16.4l-.2-.2" style="fill:#fff"/><path d="M32,4.5c-14.5,0-25.5,6-25.5,14,0,4,2.8,7.6,7.4,10.1l-.9,19v.8a2.5,2.5,0,0,0,.1.8C14,55.1,21.8,59.5,32,59.5s18-4.4,18.9-10.3a2.5,2.5,0,0,0,.1-.8v-.8l-.9-19c4.6-2.5,7.4-6.1,7.4-10.1C57.5,10.5,46.5,4.5,32,4.5Zm0,49c-7.8,0-12.8-3.1-13-5.3l.4-8.6A44.6,44.6,0,0,0,32,41.5a44.6,44.6,0,0,0,12.6-1.9l.4,8.6C44.8,50.4,39.8,53.5,32,53.5ZM44.3,33.3A38.1,38.1,0,0,1,32,35.5a38.7,38.7,0,0,1-12.3-2.2V30.9A45.6,45.6,0,0,0,32,32.5a45.6,45.6,0,0,0,12.2-1.6ZM32,26.5c-12.1,0-19.5-4.7-19.5-8s7.4-8,19.5-8,19.5,4.7,19.5,8S44.1,26.5,32,26.5Z" style="fill:#fff"/></g></g></svg>