<svg xmlns="http://www.w3.org/2000/svg" viewBox="0 0 64 64"><title>fcicons-reply</title><g style="isolation:isolate"><g id="shadows"><path d="M12,32,9,40l11-3s1-8,7-12,14.8-2.9,14.8-2.9c0-7.8-8-14.1-17.9-14.1S6,14.3,6,22.1c0,4.1,2.2,7.7,5.6,10.3" style="opacity:0.2;mix-blend-mode:color-burn"/></g><g id="lines"><path d="M61,37c0-8.4-7-15.4-16.5-17.4C43,11.3,34.3,5,23.9,5S3,12.7,3,22.1A15.4,15.4,0,0,0,8.1,33.4L6,38.9A2.9,2.9,0,0,0,6.6,42a2.8,2.8,0,0,0,2.2,1h.8l7.9-2.1c1.9,7.5,9.6,13.3,19.3,14.1h1.8l15.7,3.9H55a3,3,0,0,0,2.2-1,2.9,2.9,0,0,0,.6-3.1l-2.3-6A16.4,16.4,0,0,0,61,37ZM14.5,33.5a.8.8,0,0,1,.1-.4h0V31.8h0A3.6,3.6,0,0,0,13.4,30,10,10,0,0,1,9,22.1C9,16,15.7,11,23.9,11s12.5,3.4,14.3,8c-10.8.3-19.6,7.1-21,15.6l-3.5,1ZM39.7,49.1H37.2C29.3,48.3,23,43,23,37s7.2-12,16-12,16,5.4,16,12c0,3.2-1.7,6.2-4.8,8.5A3.5,3.5,0,0,0,49,47.8v.4a2.9,2.9,0,0,0,.2.9l1,2.6Z" style="fill:#fff"/></g></g></svg>