<svg xmlns="http://www.w3.org/2000/svg" viewBox="0 0 64 64"><title>fcicons-clarification</title><g style="isolation:isolate"><g id="shadows"><polygon points="33.1 8.4 43.3 23 57.9 21.9 47.8 8.4 33.1 8.4" style="opacity:0.2;mix-blend-mode:color-burn"/><polygon points="6.1 23 28.6 51.1 21.9 23 6.1 23" style="opacity:0.2;mix-blend-mode:color-burn"/></g><g id="lines"><path d="M62,22.9c0-.2,0-.3-.1-.4v-.2c0-.1-.1-.3-.1-.4a.3.3,0,0,1-.1-.2v-.2l-.2-.2h0L50.1,6.5a2.8,2.8,0,0,0-2.3-1.1H16.2a2.8,2.8,0,0,0-2.3,1.1L2.6,21.2h0l-.2.2v.2a.3.3,0,0,1-.1.2c0,.1-.1.3-.1.4v.2c-.1.1-.1.2-.1.4H2a1.3,1.3,0,0,0,.1.6h0c0,.2.1.3.1.4s.1.1.1.2l.2.3v.2h.1l27,32.6c0,.1,0,.1.1.1l.3.3a.1.1,0,0,0,.1.1l.5.3h.6a.1.1,0,0,1,.1.1h1.2a.1.1,0,0,1,.1-.1h.6l.5-.3a.1.1,0,0,0,.1-.1l.3-.3c.1,0,.1,0,.1-.1l27-32.6h.1v-.2l.2-.3c0-.1.1-.1.1-.2s.1-.2.1-.4h0A1.3,1.3,0,0,0,62,23h0ZM18.6,26l5.2,15L11.4,26ZM39,26,32,46.4,25,26ZM26.8,20,32,13.3,37.2,20Zm18.6,6h7.2L40.2,41Zm7.5-6H44.7l-6.6-8.6h8.2ZM17.7,11.4h8.2L19.3,20H11.1Z" style="fill:#fff"/></g></g></svg>