<svg xmlns="http://www.w3.org/2000/svg" viewBox="0 0 64 64"><title>fcicons-facilitator-card</title><g style="isolation:isolate"><g id="shadows"><path d="M19,6H45a6,6,0,0,1,6,6V32a0,0,0,0,1,0,0H13a0,0,0,0,1,0,0V12A6,6,0,0,1,19,6Z" style="opacity:0.2;mix-blend-mode:color-burn"/></g><g id="lines"><path d="M45,3H19a9,9,0,0,0-9,9V51.5a9,9,0,0,0,9,9H45a9,9,0,0,0,9-9V12A9,9,0,0,0,45,3ZM19,9H45a2.9,2.9,0,0,1,3,3V29H16V12A2.9,2.9,0,0,1,19,9ZM45,54.5H19a2.9,2.9,0,0,1-3-3V35H48V51.5A2.9,2.9,0,0,1,45,54.5Z" style="fill:#fff"/></g></g></svg>