<svg xmlns="http://www.w3.org/2000/svg" viewBox="0 0 64 64"><title>fcicons-execution</title><g style="isolation:isolate"><g id="shadows"><polygon points="29.8 5 41 33.1 46.6 33.1 39.9 5 29.8 5" style="opacity:0.2;mix-blend-mode:color-burn"/></g><g id="lines"><path d="M13.5,26.2a3.1,3.1,0,0,0,.4,3.2L39.8,60.9A3,3,0,0,0,42.1,62a3.1,3.1,0,0,0,1.3-.3,3,3,0,0,0,1.7-3.2L41.2,36.1h6.6a2.7,2.7,0,0,0,2.3-1.2,2.7,2.7,0,0,0,.5-2.6L42.8,4.2A3.1,3.1,0,0,0,39.9,2H16.2a3,3,0,0,0-2.5,1.4,3.1,3.1,0,0,0-.2,2.8l8.2,18.3H16.2A3.1,3.1,0,0,0,13.5,26.2ZM20.9,8H37.6l6.2,22.1H37.6a3,3,0,0,0-2.3,1.1,3,3,0,0,0-.6,2.4l2.5,14.7L22.6,30.5h3.8a3,3,0,0,0,2.5-1.4,3.1,3.1,0,0,0,.2-2.8Z" style="fill:#fff"/></g></g></svg>