<svg xmlns="http://www.w3.org/2000/svg" viewBox="0 0 64 64"><title>fcicons-chevron-right</title><g style="isolation:isolate"><g id="shadows"><g style="opacity:0.2;mix-blend-mode:color-burn"><path d="M24.7,58.7a3.2,3.2,0,0,1-2.1-.8,3,3,0,0,1,0-4.3L43.1,33.1,24.3,14.4a3,3,0,0,1,0-4.3,3.2,3.2,0,0,1,4.3,0L49.4,31a3,3,0,0,1,0,4.3L26.8,57.9A3.2,3.2,0,0,1,24.7,58.7Z"/></g></g><g id="lines"><path d="M18.6,55.9a3.2,3.2,0,0,0,4.2,0L45.4,33.3a3,3,0,0,0,0-4.3L24.6,8.1a3.2,3.2,0,0,0-4.3,0,3,3,0,0,0,0,4.3L39.1,31.1,18.6,51.6A3,3,0,0,0,18.6,55.9Z" style="fill:#fff"/></g></g></svg>