<svg xmlns="http://www.w3.org/2000/svg" viewBox="0 0 64 64"><title>fcicons-full-group</title><g style="isolation:isolate"><g id="shadows"><path d="M48.5,27.5l-.3-5.3a.1.1,0,0,0,.1.1A15.3,15.3,0,0,1,48.5,27.5Z" style="opacity:0.2;mix-blend-mode:color-burn"/><path d="M49.3,42.8l-.8-15.3a15.3,15.3,0,0,0-.2-5.2C70.9,30.9,49.3,42.8,49.3,42.8Z" style="opacity:0.2;mix-blend-mode:color-burn"/><path d="M48.5,27.5a16.1,16.1,0,0,1-.8,3.8l-7.1-2.9v.7a9.9,9.9,0,0,1-9.9,10,8.6,8.6,0,0,1-2.8-.4l3.5,8.2S12.9,54.7,16.5,32.7l8.9,3.5a11,11,0,0,0,11-11l-3.6-8.8c10.7-2.2,14.4,1.6,15.5,5.9a.1.1,0,0,1-.1-.1Z" style="opacity:0.2;mix-blend-mode:color-burn"/><path d="M30.9,48.2l10.8,1.1c0,4.4-4.3,7.6-10.8,8.7s-9.8-7.6-9.8-7.6Z" style="opacity:0.2;mix-blend-mode:color-burn"/><path d="M48.5,27.5l-.3-5.3a.1.1,0,0,0,.1.1A15.3,15.3,0,0,1,48.5,27.5Z" style="opacity:0.2;mix-blend-mode:color-burn"/></g><g id="lines"><path d="M13.3,45.5a13.3,13.3,0,0,0,5,5,13.9,13.9,0,0,0,27,0A13.8,13.8,0,0,0,50.1,46a14,14,0,0,0,.4-27.2,14.2,14.2,0,0,0-5.2-5.4,14,14,0,0,0-27,0,14.4,14.4,0,0,0-5,5.1,13.9,13.9,0,0,0,0,27ZM41.1,18.1l.7.3a8,8,0,0,1,4.5,7.1,5.9,5.9,0,0,1-.2,1.4,14.5,14.5,0,0,0-6.9-2.3,14.9,14.9,0,0,0-2.3-6.9h1.4A6.6,6.6,0,0,1,41.1,18.1ZM18.2,42l-.3-.7a8.2,8.2,0,0,1-.5-2.8,6.1,6.1,0,0,1,.1-1.4,14.9,14.9,0,0,0,6.9,2.3,14,14,0,0,0,2.4,6.9H25.3A8,8,0,0,1,18.2,42Zm12.2-3.5h0a14,14,0,0,0,7.9-7.9h0a8,8,0,0,1,8,8,7.9,7.9,0,0,1-8,7.9A7.9,7.9,0,0,1,30.4,38.5Zm2.9-13a7.9,7.9,0,0,1-8,7.9,7.9,7.9,0,0,1,0-15.8A7.9,7.9,0,0,1,33.3,25.5ZM31.8,55A7.7,7.7,0,0,1,26,52.4a13.3,13.3,0,0,0,5.8-1.6,13.3,13.3,0,0,0,5.9,1.6A8.1,8.1,0,0,1,31.8,55ZM55.1,32.3a7.9,7.9,0,0,1-2.8,6.1A13.9,13.9,0,0,0,50.6,32a13.3,13.3,0,0,0,1.6-5.8A7.8,7.8,0,0,1,55.1,32.3ZM31.8,9a8.1,8.1,0,0,1,5.9,2.6,13.3,13.3,0,0,0-5.9,1.6A12.9,12.9,0,0,0,26,11.6,7.7,7.7,0,0,1,31.8,9ZM11.4,26.1A13.3,13.3,0,0,0,13,32a13.3,13.3,0,0,0-1.6,5.8A7.7,7.7,0,0,1,8.8,32,8.1,8.1,0,0,1,11.4,26.1Z" style="fill:#fff"/></g></g></svg>