<svg xmlns="http://www.w3.org/2000/svg" viewBox="0 0 64 64"><title>fcicons-custom</title><g style="isolation:isolate"><g id="shadows"><path d="M48,5C58.3,6,61,20.1,61,20.1s-16-14-14,13c1.7,22.9-4,29-21,28C45.4,58,36,19,35,16,36,10,37.7,4,48,5Z" style="opacity:0.2;mix-blend-mode:color-burn"/></g><g id="lines"><path d="M45,1c-5.3,0-9.5,2.8-12.3,8.4C29.5,4.3,24.7,1,18,1,8.1,1,0,12.7,0,27a2.9,2.9,0,0,0,3,3,2.9,2.9,0,0,0,3-3c0-4.7,2.7-7.5,5.4-7.5a3.2,3.2,0,0,1,2.4.7c1.4,1.5,1.3,5.8,1.2,9.2v2.5c-.1,1.5-1,11.6-1,14.1a18,18,0,0,0,36,0c0-2.5-.9-12.6-1-14.2V29.7c-.1-3.5-.2-7.9,1.4-9.5s.7-.7,2.4-.7S58,22.3,58,27a3,3,0,0,0,6,0C64,12.2,55.8,1,45,1ZM11.4,13.5l-2.2.2C11.5,9.5,14.9,7,18,7,29.3,7,31.5,21.9,31.9,29H21.1c.1-4.6.1-9.8-3-13A9,9,0,0,0,11.4,13.5ZM32,58A12,12,0,0,1,20,46c0-1.5.4-7.1.8-11H43.2c.4,3.9.8,9.5.8,11A12,12,0,0,1,32,58ZM52.8,13.5A8.8,8.8,0,0,0,46.1,16C43,19.2,42.9,24.3,43,29H37.9a57,57,0,0,0-1.8-11.8h0C37.4,12.4,39.6,7,45,7s7.4,2.6,9.7,6.7A5.8,5.8,0,0,0,52.8,13.5Z" style="fill:#fff"/><path d="M4.7,31.5l-.6-.3H3.6a2.4,2.4,0,0,0-1.2,0H1.8l-.5.3c-.1.1-.3.2-.4.4A2.7,2.7,0,0,0,0,34a1.3,1.3,0,0,0,.1.6,4.3,4.3,0,0,0,.1.5l.3.6c.1.1.2.3.4.4A2.7,2.7,0,0,0,3,37H4.1l.6-.3.4-.4a2.9,2.9,0,0,0,0-4.2C5,31.7,4.8,31.6,4.7,31.5Z" style="fill:#fff"/><path d="M62.7,31.5l-.6-.3h-.5a2.4,2.4,0,0,0-1.2,0h-.6l-.5.3-.4.4A2.7,2.7,0,0,0,58,34a1.3,1.3,0,0,0,.1.6,4.3,4.3,0,0,0,.1.5l.3.6.4.4A2.7,2.7,0,0,0,61,37h1.1l.6-.3.4-.4a2.9,2.9,0,0,0,0-4.2Z" style="fill:#fff"/></g></g></svg>