<svg xmlns="http://www.w3.org/2000/svg" viewBox="0 0 64 64"><title>fcicons-colored-paper</title><g style="isolation:isolate"><g id="shadows"><polygon points="21.6 5 21.6 16.6 40.9 16.6 40.9 47.4 53.8 47.4 53.8 5 21.6 5" style="opacity:0.2;mix-blend-mode:color-burn"/></g><g id="lines"><path d="M56.1,47.4V5a2.9,2.9,0,0,0-3-3H22.3a2.9,2.9,0,0,0-3,3v8.6H10.7a3,3,0,0,0-3,3V59a3,3,0,0,0,3,3H41.6a3,3,0,0,0,3-3V50.4h8.5A2.9,2.9,0,0,0,56.1,47.4ZM38.6,56H13.7V19.6H38.6ZM50.1,44.4H44.6V16.6a3,3,0,0,0-3-3H25.3V8H50.1Z" style="fill:#fff"/><path d="M26.4,46.6a5.8,5.8,0,0,0,5.8-5.8c0-1.5-.7-3.2-1.9-5.8-.3-.7-.8-1.7-.9-2.1a3,3,0,0,0-5.9,0L22.6,35c-1.2,2.6-2,4.3-2,5.8A5.8,5.8,0,0,0,26.4,46.6Z" style="fill:#fff"/></g></g></svg>