<svg xmlns="http://www.w3.org/2000/svg" viewBox="0 0 64 64"><title>fcicons-chevron-up</title><g style="isolation:isolate"><g id="shadows"><g style="opacity:0.2;mix-blend-mode:color-burn"><path d="M60.2,45.3a3.4,3.4,0,0,1-.8,2.1,3,3,0,0,1-4.3,0L34.6,26.9,15.9,45.7a3.2,3.2,0,0,1-4.3,0,3.2,3.2,0,0,1,0-4.3L32.5,20.5a3.2,3.2,0,0,1,4.3,0L59.4,43.1A3.5,3.5,0,0,1,60.2,45.3Z"/></g></g><g id="lines"><path d="M33.3,18.6a3,3,0,0,0-4.3,0L8.1,39.4a3.2,3.2,0,0,0,0,4.3,3,3,0,0,0,4.3,0L31.1,24.9,51.6,45.4a3,3,0,0,0,2.1.9,3,3,0,0,0,2.2-5.1Z" style="fill:#fff"/></g></g></svg>