<svg xmlns="http://www.w3.org/2000/svg" viewBox="0 0 64 64"><title>fcicons-hand</title><g style="isolation:isolate"><g id="shadows"><path d="M56.2,26s-.6-2.8-3,.9S43.8,44.2,35.4,49.2C20.9,57.8,20,54.8,20,54.8s6.6,4.4,9.6,3.6,14-3.1,16.6-5S57.8,35.1,56.2,26Z" style="opacity:0.2;mix-blend-mode:color-burn"/></g><g id="lines"><path d="M55.2,20.5h0c-2.9-.9-6.1.6-8.5,2.4L42.9,10.2a7.6,7.6,0,0,0-9.4-5.1,4.9,4.9,0,0,0-1.8.8A8.1,8.1,0,0,0,29,3.4a7.3,7.3,0,0,0-5.8-.6A7.7,7.7,0,0,0,17.8,10a5.8,5.8,0,0,0-1.9.3A7.7,7.7,0,0,0,11.3,14a7.5,7.5,0,0,0-.6,5.5,4.1,4.1,0,0,0-1.6.3,7.4,7.4,0,0,0-4.5,3.6,7.9,7.9,0,0,0-.7,5.8l4,13.2A26.6,26.6,0,0,0,18.7,57.2a20.4,20.4,0,0,0,11,3.7,13.6,13.6,0,0,0,3.6-.5l10.8-3.2c6.6-2,13.1-18.6,15.6-25.7a9.7,9.7,0,0,0-.1-7.3A6.8,6.8,0,0,0,55.2,20.5ZM54,29.4h0c-3.8,11-9.2,21.2-11.6,21.9L31.6,54.6c-2.5.8-6.2-.1-9.6-2.4a20.9,20.9,0,0,1-8.4-11.5L9.7,27.5a1.7,1.7,0,0,1,.1-1.2,1.6,1.6,0,0,1,1-.8h.4a1.6,1.6,0,0,1,1.6,1.1l3,10.3a2.9,2.9,0,0,0,3.7,2,3.1,3.1,0,0,0,2.1-3.7L16.5,18a1.7,1.7,0,0,1,.1-1.2,1.8,1.8,0,0,1,1-.7,1.3,1.3,0,0,1,1.2.1,1.6,1.6,0,0,1,.7.9l5.1,17.2a3,3,0,0,0,3.7,2,3.1,3.1,0,0,0,2.1-3.7L25.3,15.4h0l-1.5-4.9a1.6,1.6,0,0,1,1.1-1.9,1.3,1.3,0,0,1,1.2.1,1.4,1.4,0,0,1,.8.9l6.5,22.1A3,3,0,0,0,39.2,30L34.1,12.8a1.7,1.7,0,0,1,1.1-2,1.8,1.8,0,0,1,2,1.1l5,17.2a3,3,0,0,0,2.2,2,2.9,2.9,0,0,0,2.9-.8c2.1-2.2,5.2-4.2,6.2-4.1s.7.4.7.6A3.5,3.5,0,0,1,54,29.4Z" style="fill:#fff"/></g></g></svg>