<svg xmlns="http://www.w3.org/2000/svg" viewBox="0 0 64 64"><title>fcicons-paper</title><g style="isolation:isolate"><g id="shadows"><polygon points="23.3 6 23.3 15.9 40.7 15.9 40.7 46.9 51.8 46.9 51.8 6 23.3 6" style="opacity:0.2;mix-blend-mode:color-burn"/></g><g id="lines"><path d="M8.6,17.1V58a2.9,2.9,0,0,0,3,3H41.3a3,3,0,0,0,3-3V49.9h8.1a3,3,0,0,0,3-3V6a2.9,2.9,0,0,0-3-3H22.7a3,3,0,0,0-3,3v8.1H11.6A3,3,0,0,0,8.6,17.1ZM25.7,9H49.4V43.9H44.3V17.1a3.1,3.1,0,0,0-3-3H25.7ZM14.6,20.1H38.3V55H14.6Z" style="fill:#fff"/></g></g></svg>