<svg xmlns="http://www.w3.org/2000/svg" viewBox="0 0 64 64"><title>fcicons-emotion</title><g style="isolation:isolate"><g id="shadows"><polygon points="9.2 32 20.6 32 25.1 26.3 29.7 32 33.1 32 38.9 22.9 42.3 32 56 32 32 56 9.2 32" style="opacity:0.2;mix-blend-mode:color-burn"/></g><g id="lines"><path d="M9.3,37.5,29.9,58.1a2.9,2.9,0,0,0,4.2,0L54.7,37.5,57.3,35a17.6,17.6,0,0,0,5.1-12.4,17.8,17.8,0,0,0-5.1-12.5,17.6,17.6,0,0,0-24.8,0l-.5.5-.5-.5a17.6,17.6,0,0,0-24.8,0A17.8,17.8,0,0,0,1.6,22.6,17.6,17.6,0,0,0,6.7,35ZM32,51.8,15.5,35.3h5.1a2.8,2.8,0,0,0,2.3-1.2l2.2-2.7,2.3,2.7a2.7,2.7,0,0,0,2.3,1.2h4.6A2.9,2.9,0,0,0,37,33.5l1.9-4.1,1.8,4.1a2.9,2.9,0,0,0,2.7,1.8h5.1ZM11,14.4a11.5,11.5,0,0,1,16.3,0L29.9,17a3.1,3.1,0,0,0,4.2,0l2.6-2.6A11.5,11.5,0,0,1,54.2,29.3H45.4l-3.8-8.5A3,3,0,0,0,38.9,19a3.1,3.1,0,0,0-2.8,1.8l-3.8,8.5H31.2l-3.7-4.6a3,3,0,0,0-2.4-1.1,3,3,0,0,0-2.3,1.1l-3.7,4.6H9.8A11.5,11.5,0,0,1,11,14.4Z" style="fill:#fff"/></g></g></svg>